<svg version="1.1" id="Layer_1" xmlns="http://www.w3.org/2000/svg" xmlns:xlink="http://www.w3.org/1999/xlink" x="0px" y="0px"
	 width="100%" viewBox="0 0 250 201" enable-background="new 0 0 250 201" xml:space="preserve">
<path fill="#EDEEF0" opacity="1.000000" stroke="none" 
	d="
M1.000000,124.000000 
	C1.000000,121.629440 1.000000,119.258888 1.359722,116.489410 
	C3.840357,117.094322 5.961271,118.098152 8.384418,119.245033 
	C8.700468,117.787193 8.986841,117.145622 8.951354,116.522377 
	C8.669161,111.566429 8.166814,106.617554 8.054875,101.659210 
	C7.974664,98.106178 8.665984,95.043457 13.599198,97.161423 
	C14.484312,97.541420 16.477566,97.073257 16.939159,96.347740 
	C17.914463,94.814796 19.059244,92.528984 18.535891,91.165718 
	C18.088043,89.999146 15.455387,89.288139 13.709290,89.094353 
	C11.189664,88.814728 8.471878,88.620926 9.224207,85.433731 
	C9.628116,83.722603 11.824031,82.217224 13.530481,81.111595 
	C14.568211,80.439232 16.214245,80.705727 17.771212,80.529655 
	C16.544672,76.037430 14.650630,73.029770 10.360590,71.930672 
	C9.426862,71.691444 8.149856,70.248055 8.182169,69.403305 
	C8.226069,68.255661 9.228969,67.012436 10.101848,66.070992 
	C10.788773,65.330101 11.901340,64.983849 12.824841,64.462303 
	C12.858952,63.974846 12.893061,63.487385 12.927171,62.999924 
	C11.520535,62.613792 10.098277,61.861504 8.710641,61.920708 
	C6.129776,62.030819 3.569088,62.613846 1.000000,63.000000 
	C1.000000,62.250000 1.000000,61.500000 1.435701,60.375000 
	C5.272110,59.947266 8.966730,60.850937 11.066174,56.790165 
	C11.243931,56.446346 12.985173,56.910862 13.872648,57.298485 
	C14.096169,58.618362 14.447108,59.639610 14.798049,60.660858 
	C15.532034,59.440674 16.266018,58.220490 17.223885,56.709885 
	C20.064695,52.219910 19.071377,48.975014 14.349481,44.815105 
	C12.924750,43.559940 12.099697,41.624084 11.333457,40.000015 
	C12.111316,40.000000 12.555667,40.000000 13.351419,39.960785 
	C14.806432,39.832222 16.206984,39.263882 16.964186,39.733303 
	C21.067188,42.276917 21.673590,40.101528 22.131975,36.559155 
	C22.330853,35.022247 23.534536,33.153595 24.844732,32.313061 
	C28.134407,30.202618 27.496042,28.421167 25.224794,26.078503 
	C23.942190,24.755568 21.953472,22.782991 22.229158,21.531948 
	C23.079573,17.672831 23.914774,13.009609 26.532202,10.545811 
	C29.716257,7.548646 30.193584,4.667435 30.000000,1.000000 
	C78.687561,1.000000 127.375122,1.000000 176.531342,1.418128 
	C176.485428,6.922643 178.433609,10.316957 183.981964,11.810424 
	C184.487991,10.273664 184.539581,8.321008 185.465424,7.723872 
	C186.873901,6.815462 188.888351,6.846568 190.645432,6.478654 
	C190.579407,7.997873 191.056778,9.887044 190.329132,10.955818 
	C188.999268,12.909142 186.956558,14.377142 185.211166,16.047562 
	C186.808548,17.638363 188.405930,19.229162 189.593872,20.894131 
	C175.512344,22.848728 164.760483,32.826496 163.396194,45.804577 
	C162.200546,57.178722 163.445099,68.187614 168.363602,78.459808 
	C172.664551,87.442322 177.571457,96.158691 182.609970,104.758690 
	C191.253708,119.512276 196.543442,134.333786 185.318512,150.166931 
	C182.186234,154.585098 178.791763,158.817398 175.517578,163.134964 
	C174.129913,153.460861 174.023834,144.657104 173.088943,135.942276 
	C171.635605,122.394356 169.009430,109.071663 162.518280,96.453415 
	C158.610474,91.119682 154.777878,86.145561 150.784485,80.892502 
	C150.099350,80.246605 149.575012,79.879631 148.887329,79.242790 
	C139.476089,71.419136 128.649490,68.937943 116.681534,68.987106 
	C115.917580,68.890640 115.472427,68.906746 114.705574,68.746811 
	C108.247482,68.213745 104.763626,64.684189 103.102982,59.051212 
	C102.118034,55.710239 101.101120,52.369083 100.336929,48.974358 
	C97.526741,36.490868 91.428169,26.254473 80.683846,18.919441 
	C73.576630,14.067425 67.743782,7.058408 57.849316,6.910578 
	C58.607410,9.927569 59.526531,13.585406 60.484009,17.395880 
	C57.888603,18.372473 55.645702,18.971270 53.651176,20.035538 
	C51.636757,21.110420 49.868561,22.646744 47.843460,23.755287 
	C47.466614,22.476496 47.238800,21.423334 46.796810,19.380016 
	C45.110558,20.301035 43.555202,21.150555 41.533623,22.000008 
	C36.580776,21.999941 32.094158,21.999941 28.244373,21.999941 
	C29.304262,26.231672 30.151924,29.616064 30.648928,33.007439 
	C29.532154,33.676277 28.766039,34.338139 27.670254,34.864479 
	C26.640324,34.869694 25.335236,34.988308 25.329159,35.154438 
	C25.208920,38.441315 25.123774,41.741180 25.336409,45.018627 
	C25.378841,45.672668 26.605078,46.641247 27.406441,46.783573 
	C30.142672,47.269527 32.932873,47.451614 35.881603,48.021561 
	C37.503117,51.152557 38.945503,54.011642 39.965622,56.904503 
	C38.696636,56.961079 37.849918,56.983883 36.614273,57.106102 
	C35.577747,61.237904 34.930157,65.270294 34.282566,69.302681 
	C32.831570,67.205765 32.506958,64.923920 31.967533,62.694042 
	C31.600231,61.175697 31.072674,59.658619 30.365215,58.269051 
	C29.361605,56.297791 28.163252,54.421013 26.973888,52.551075 
	C26.429121,51.694588 25.707481,50.950596 25.066055,50.155586 
	C24.381432,51.081707 23.191067,51.964211 23.106730,52.942104 
	C22.850725,55.910572 22.443783,59.063755 23.161324,61.872772 
	C24.277317,66.241669 22.666082,67.255089 18.766495,67.072609 
	C17.623192,67.019104 15.508108,67.715866 15.452961,68.238960 
	C15.297590,69.712746 15.808215,71.346748 16.399874,72.775307 
	C16.751451,73.624191 17.682680,74.721176 18.470577,74.826126 
	C26.903900,75.949432 25.385784,81.466797 24.001993,86.978828 
	C23.922863,87.294029 24.041367,87.663094 23.946402,87.969421 
	C22.981182,91.082932 22.712975,94.731445 20.865356,97.189804 
	C16.215372,103.376892 16.635061,107.735191 23.078777,110.261589 
	C26.385647,109.841156 29.692518,109.420731 32.999527,109.416916 
	C32.999420,111.222244 32.999176,112.610970 32.656212,114.061966 
	C29.080158,117.980736 29.277411,118.784790 34.333435,120.999695 
	C35.111023,120.999695 35.555359,120.999695 36.417152,120.999969 
	C38.529114,121.875977 40.725616,122.358734 41.794529,123.724197 
	C43.218990,125.543846 43.766476,128.050018 44.370453,129.495132 
	C42.929626,131.859604 39.727047,135.067032 40.380466,136.442032 
	C42.074795,140.007462 42.381626,145.380524 48.000076,146.000000 
	C48.000000,146.000000 48.000153,146.000000 48.000092,146.447556 
	C48.350906,150.642151 48.469730,154.434875 49.192734,158.108673 
	C49.412338,159.224579 51.299980,160.012222 52.423637,160.950195 
	C53.280048,159.848740 54.681122,158.835938 54.877834,157.627136 
	C55.269653,155.219391 54.639668,152.629349 55.130775,150.259460 
	C55.452274,148.708038 57.001133,147.410980 58.274658,146.280060 
	C58.699421,148.706741 58.849789,150.853363 59.000103,153.418503 
	C59.352081,155.915909 59.560722,158.031982 60.087795,160.065506 
	C61.011894,163.630798 62.131222,167.145508 62.887169,170.817719 
	C57.602142,174.805252 58.165443,177.950058 64.705116,182.675385 
	C61.666328,187.804688 62.278671,190.955460 66.994827,191.601212 
	C73.223152,192.453995 79.754936,193.826187 85.649521,189.063477 
	C86.798080,188.748779 87.609550,188.458603 88.421028,188.168442 
	C87.889198,187.758148 87.357368,187.347855 86.826897,186.559174 
	C87.230530,184.459183 87.632812,182.737564 88.439819,180.853119 
	C92.895737,181.186432 96.946930,181.682556 100.942299,182.525909 
	C100.407341,184.336746 99.909531,185.795547 99.525558,187.283722 
	C99.511894,187.336670 101.005257,188.006454 101.151596,187.835831 
	C102.132713,186.691956 103.014420,185.441284 103.764442,184.131393 
	C104.060127,183.614975 103.935585,182.857925 104.396271,182.139587 
	C105.967781,182.289368 107.145409,182.510025 108.588898,182.780487 
	C102.705330,190.801041 102.614838,192.102158 106.891357,196.905258 
	C104.338585,196.730194 102.168465,196.526825 99.173630,196.246170 
	C96.427528,191.882507 91.352501,191.859543 85.999390,192.835266 
	C84.438576,193.119766 81.818024,193.222839 81.543564,194.036545 
	C79.441689,200.268188 75.657776,198.156387 71.699875,196.524780 
	C66.383270,194.333038 62.035587,196.442978 60.000000,202.000000 
	C58.933331,202.000000 57.866661,202.000000 56.400162,201.582306 
	C56.768036,197.347534 57.535740,193.530472 58.019318,191.126083 
	C55.255119,188.416382 53.092972,186.296860 50.800465,184.049545 
	C49.436634,185.306549 48.257202,186.393600 46.787777,187.747940 
	C44.555355,184.383438 42.053825,184.036682 38.972042,186.782150 
	C37.850567,187.781250 35.929974,188.216385 34.349213,188.278473 
	C32.570103,188.348312 30.763052,187.706482 28.968157,187.374237 
	C29.311420,185.674057 29.654682,183.973907 30.076843,181.882965 
	C32.769073,182.907745 34.646626,183.622437 36.532230,184.340179 
	C36.532230,181.786819 36.532230,179.595322 36.532230,177.014557 
	C34.191280,177.620850 32.385040,178.088669 28.899324,178.991470 
	C30.207781,175.298172 30.381844,171.895081 32.160709,170.394897 
	C35.808941,167.318176 36.299927,162.648560 32.278870,160.164597 
	C28.632126,157.911865 26.459194,159.041229 25.968376,163.292633 
	C25.758318,165.112152 25.171658,166.888184 24.756115,168.683990 
	C24.166395,168.757065 23.576675,168.830139 22.986956,168.903229 
	C22.322155,167.130478 21.589994,165.379318 21.013161,163.578384 
	C20.522474,162.046432 21.109070,159.417191 17.609802,160.897598 
	C16.813393,159.308823 16.110010,157.832977 16.056866,156.334076 
	C15.899441,151.894058 15.998551,147.444946 15.898817,142.613251 
	C12.200351,141.817917 8.600412,141.408737 5.099774,140.736969 
	C5.466055,139.983337 5.733035,139.492310 6.115762,138.787750 
	C6.432517,138.307739 6.689559,138.116608 7.370768,138.007034 
	C9.158441,138.342361 10.577982,138.671478 12.383742,139.000854 
	C14.180092,138.667206 15.590221,138.333298 16.951895,137.683273 
	C16.269257,136.911240 15.635074,136.455322 15.000777,135.624466 
	C15.000531,134.499695 15.000399,133.749847 15.238388,132.778168 
	C16.005949,130.122528 16.786394,127.709557 16.990646,125.248756 
	C17.176043,123.015137 16.734184,120.729454 16.568863,118.466721 
	C14.501387,119.114296 11.545564,119.126884 10.540093,120.533569 
	C7.963335,124.138504 4.664968,124.219170 1.000000,124.000000 
M43.689140,163.185287 
	C43.792709,163.457260 43.896278,163.729248 44.123249,164.679977 
	C45.081963,165.119980 46.040672,165.559998 47.526287,166.380615 
	C49.649632,168.793900 50.975285,167.319229 50.723316,165.209274 
	C50.579918,164.008469 48.311985,163.061356 46.449074,161.426224 
	C46.139717,158.806549 45.830357,156.186874 45.521000,153.567200 
	C45.014000,153.600632 44.507000,153.634064 44.000000,153.667496 
	C44.000000,156.777924 44.000000,159.888351 43.689140,163.185287 
M36.398357,17.416958 
	C39.020752,19.954033 40.523064,19.720739 41.060291,15.798523 
	C41.365406,13.570943 42.294720,11.434036 42.861706,9.235350 
	C43.247360,7.739827 43.893047,6.132847 43.628948,4.724507 
	C43.499264,4.032930 41.566063,3.679553 40.449051,3.173123 
	C39.745689,4.734815 38.845066,6.240508 38.382317,7.870508 
	C37.560226,10.766260 37.003571,13.737366 36.398357,17.416958 
M52.723793,175.055099 
	C50.076103,175.503845 48.058617,177.009186 49.355747,179.639267 
	C49.997143,180.939774 53.488617,182.328186 54.296391,181.745178 
	C56.029652,180.494217 56.858032,177.989502 58.650414,175.012299 
	C55.767178,175.012299 54.649281,175.012299 52.723793,175.055099 
M21.077175,128.399811 
	C22.637032,127.657654 24.985167,127.271790 25.528337,126.070084 
	C26.040545,124.936890 24.940271,122.725548 23.959398,121.437859 
	C23.564234,120.919090 20.557539,121.454018 20.516962,121.751694 
	C20.241516,123.772499 20.441092,125.858063 21.077175,128.399811 
M48.718681,172.814804 
	C50.835339,172.524780 52.985031,172.370499 55.050003,171.868042 
	C55.734760,171.701431 56.201603,170.639267 56.768066,169.986542 
	C55.893551,169.524094 54.964588,168.597351 54.155430,168.692245 
	C52.253498,168.915283 50.346882,169.481812 48.582634,170.237381 
	C48.116787,170.436890 48.161648,171.828888 48.718681,172.814804 
M31.404051,54.208691 
	C32.744415,54.365921 34.084778,54.523155 36.671741,54.826618 
	C32.391186,51.243362 32.391186,51.243362 31.404051,54.208691 
M28.769100,155.931610 
	C29.762609,155.405075 30.756117,154.878540 31.749624,154.352005 
	C31.294821,153.804062 30.840017,153.256119 30.385212,152.708176 
	C29.624685,153.737244 28.864159,154.766296 28.769100,155.931610 
M22.382549,135.347977 
	C21.548077,135.045700 20.713606,134.743423 19.879135,134.441147 
	C19.798325,134.881683 19.717516,135.322220 19.636705,135.762756 
	C20.398045,135.762756 21.159382,135.762756 22.382549,135.347977 
M99.090759,190.304703 
	C98.573006,190.489090 98.055244,190.673492 97.537498,190.857880 
	C97.657875,191.125366 97.778252,191.392853 97.898628,191.660355 
	C98.431648,191.348343 98.964676,191.036346 99.090759,190.304703 
M39.721127,167.529129 
	C39.988247,167.275024 40.257870,167.023254 40.508423,166.753738 
	C40.514843,166.746826 40.312096,166.545471 40.206886,166.434814 
	C39.939690,166.689240 39.672493,166.943680 39.721127,167.529129 
M58.568409,3.514069 
	C58.568409,3.514069 58.478989,3.562933 58.568409,3.514069 
M43.431583,168.485840 
	C43.431583,168.485840 43.520889,168.436798 43.431583,168.485840 
M46.431679,168.485855 
	C46.431679,168.485855 46.520840,168.436935 46.431679,168.485855 
z"/>
<path fill="#E6E7E9" opacity="1.000000" stroke="none" 
	d="
M251.000000,101.000000 
	C251.000000,104.692909 251.000000,108.385818 250.709137,112.582802 
	C250.107910,113.406502 249.797546,113.726128 249.487198,114.045761 
	C249.991455,114.363846 250.495728,114.681923 251.000000,115.000000 
	C251.000000,116.066673 251.000000,117.133339 250.621277,118.600906 
	C248.350281,119.719238 246.458023,120.436668 244.565765,121.154091 
	C242.854813,119.313553 240.341675,117.234962 238.411636,117.680763 
	C234.452499,118.595253 231.610657,124.259392 232.650421,127.251839 
	C234.728485,133.232529 232.407791,136.002518 226.221924,135.750229 
	C225.434204,137.317032 225.116180,139.191498 224.054230,139.831451 
	C220.723618,141.838531 221.120605,144.236893 221.854218,147.499039 
	C222.764633,151.547409 222.664200,155.823105 222.667099,160.000854 
	C221.889404,160.001358 221.445007,160.001602 220.841949,159.705353 
	C216.960251,160.119797 213.237213,160.830750 209.823196,161.482681 
	C211.373795,163.159683 212.687210,164.580139 214.000305,166.250305 
	C214.000000,166.500000 213.999390,166.999390 213.606934,166.998535 
	C211.640289,166.851639 210.066086,166.705627 207.878479,166.502716 
	C208.532608,169.778366 209.427185,172.607468 209.553070,175.470367 
	C209.636597,177.369934 208.968369,180.779648 208.038071,181.001328 
	C202.906830,182.224060 201.568069,186.316742 198.768814,189.883545 
	C195.589737,193.934296 194.964264,197.562363 195.000000,202.000000 
	C193.611115,202.000000 192.222214,202.000000 190.359879,201.672516 
	C188.924286,201.563339 187.962143,201.781662 187.000000,202.000000 
	C180.645599,202.000000 174.291214,202.000000 167.425110,201.709061 
	C166.593643,201.107712 166.273895,200.797318 165.954147,200.486908 
	C165.636093,200.991272 165.318039,201.495636 165.000000,202.000000 
	C164.555557,202.000000 164.111099,202.000000 163.303192,201.681015 
	C162.295990,200.574692 161.652267,199.787338 160.767670,198.736908 
	C159.353271,198.310974 158.179749,198.148132 157.004608,197.737885 
	C157.002991,197.490509 157.000610,196.995728 157.336838,196.996613 
	C158.404068,196.870529 159.135086,196.743561 159.866089,196.616592 
	C159.840973,196.411072 159.815857,196.205536 159.790741,196.000000 
	C158.860489,196.000000 157.930252,196.000000 156.624786,195.999908 
	C155.499115,196.000900 154.748642,196.001968 154.034943,195.534271 
	C154.098450,194.753159 154.125183,194.440811 154.462631,194.048645 
	C155.841263,193.932266 156.909149,193.895737 158.148193,194.118896 
	C159.210770,194.020493 160.102188,193.662430 161.306747,193.127457 
	C165.574509,188.729492 172.726074,188.106750 174.565369,181.462372 
	C174.652756,181.146637 175.394501,181.002655 175.839890,180.796768 
	C186.886185,175.690872 194.757141,167.293198 200.975311,157.083893 
	C201.245178,158.550781 201.171738,159.791611 201.167099,161.032684 
	C201.151794,165.132584 201.161331,169.232559 201.161331,173.332489 
	C201.593903,173.323273 202.026474,173.314056 202.459061,173.304840 
	C203.603653,168.002945 204.748245,162.701035 205.892853,157.399139 
	C206.301773,157.378891 206.710693,157.358643 207.119614,157.338409 
	C205.679459,155.538071 204.239288,153.737732 202.848419,151.562866 
	C203.537079,149.104172 204.176468,147.020004 205.105972,144.961731 
	C206.265610,144.990753 207.135101,144.993881 208.217682,144.882416 
	C208.695908,144.567139 208.886017,144.310791 209.294449,143.953110 
	C209.858383,143.732956 210.149368,143.581757 210.389008,143.371933 
	C210.478424,143.293640 210.514832,142.974762 210.462418,142.941010 
	C209.326599,142.209412 208.174789,141.502640 207.026047,140.791092 
	C207.271255,140.386322 207.516464,139.981552 207.761673,139.576782 
	C210.268188,139.576782 212.774704,139.576782 216.714264,139.576782 
	C214.327988,138.190018 213.193253,137.530563 211.671127,136.645996 
	C212.826019,133.823273 213.849670,131.321320 215.311920,127.747375 
	C216.891129,130.858856 217.643799,132.341827 218.995300,135.004639 
	C219.563782,132.740433 219.782196,131.870514 220.368866,131.044250 
	C223.690002,132.350433 224.151428,130.745300 224.008591,128.307571 
	C223.747726,123.856102 224.067139,119.558746 227.674805,115.755211 
	C228.882767,117.645943 229.876068,119.200645 231.830795,122.260208 
	C232.718140,112.956787 245.079224,113.351151 243.147278,103.872467 
	C246.127441,102.782341 248.563721,101.891167 251.000000,101.000000 
M206.568756,153.513794 
	C206.568756,153.513794 206.479401,153.562805 206.568756,153.513794 
z"/>
<path fill="#E1E2E4" opacity="1.000000" stroke="none" 
	d="
M221.000610,160.001846 
	C221.445007,160.001602 221.889404,160.001358 223.011780,159.934326 
	C226.560303,156.824112 229.430832,153.780670 232.299042,150.739670 
	C230.636948,148.967911 228.778091,146.986404 226.033310,144.060516 
	C229.810623,142.381699 232.677200,141.107666 236.296814,139.498932 
	C236.296814,137.525803 236.296814,134.446014 236.296814,131.366241 
	C236.586273,131.369965 236.875732,131.373703 237.165192,131.377441 
	C237.165192,135.487183 237.165192,139.596939 237.165192,143.706680 
	C237.398651,143.699081 237.632111,143.691483 237.865555,143.683884 
	C237.953262,142.160065 238.040955,140.636230 238.092392,139.742477 
	C239.266739,139.742477 240.711014,139.951080 240.789673,139.711426 
	C242.134277,135.614944 244.706024,137.812592 246.803162,138.577209 
	C248.297867,139.122162 249.607681,140.174240 251.000000,141.000000 
	C251.000000,153.687561 251.000000,166.375122 250.652191,179.464020 
	C249.707489,178.935776 249.206100,177.923950 248.492294,177.095062 
	C247.297470,175.707642 245.967133,174.436920 244.693832,173.117065 
	C243.560196,174.633102 242.191666,176.034500 241.376053,177.705750 
	C240.838623,178.806946 241.018280,180.296310 241.012772,181.612457 
	C240.984360,188.408203 240.999847,195.204132 241.000000,202.000000 
	C240.555557,202.000000 240.111099,202.000000 239.333099,201.532455 
	C238.999542,196.155487 238.999542,191.246048 238.999542,186.336624 
	C238.678543,186.337448 238.357529,186.338272 238.036530,186.339081 
	C237.691010,191.559387 237.345505,196.779694 237.000000,202.000000 
	C225.645767,202.000000 214.291550,202.000000 202.471848,201.587814 
	C201.761948,197.366776 204.537033,198.124878 206.772629,197.988815 
	C213.070816,197.605469 217.412262,191.765564 215.609451,186.336014 
	C215.153809,184.963745 215.306763,183.389389 215.180069,181.907898 
	C216.622208,181.907898 218.064331,181.907898 220.000000,181.907898 
	C220.000000,179.695709 219.893951,177.235153 220.022324,174.786896 
	C220.280899,169.854996 220.667068,164.929810 221.000610,160.001846 
M239.691788,145.184921 
	C239.795074,145.457275 239.898361,145.729630 240.001755,146.938995 
	C240.001755,154.115173 240.001755,161.291336 240.001755,168.467514 
	C240.756577,168.432632 241.511414,168.397766 242.266235,168.362885 
	C243.594986,160.479340 241.398392,152.758301 239.691788,145.184921 
M223.152695,170.329697 
	C222.789871,174.361069 222.427063,178.392441 221.948166,183.713608 
	C227.076752,178.603714 227.249069,172.803131 223.152695,170.329697 
M237.648193,183.354874 
	C238.084076,182.831055 238.842239,182.327682 238.877075,181.778427 
	C238.924332,181.033600 238.417511,180.253616 238.148346,179.488724 
	C237.883850,179.532928 237.619354,179.577133 237.354858,179.621338 
	C237.307266,180.693192 237.259674,181.765030 237.648193,183.354874 
z"/>
<path fill="#EBECEE" opacity="1.000000" stroke="none" 
	d="
M240.000000,1.000001 
	C243.649139,1.000000 247.298294,1.000000 251.000000,1.000000 
	C251.000000,27.687540 251.000000,54.375111 250.553879,81.531342 
	C247.956268,82.023628 245.701187,81.646751 243.678925,82.169907 
	C241.013550,82.859413 238.532669,84.075752 235.754013,81.739090 
	C228.938339,79.387482 229.581009,86.646103 226.471176,89.304535 
	C223.837265,83.458992 224.875748,78.776382 229.096207,78.330688 
	C234.117188,77.800446 235.087128,73.989151 235.569489,70.804497 
	C235.927536,68.440376 233.645477,65.676392 232.539398,63.090523 
	C232.763947,58.623306 232.763947,58.623306 241.180237,58.516140 
	C240.844345,54.300720 240.513824,50.152874 240.183304,46.005028 
	C237.455734,46.336533 234.728180,46.668037 231.996704,46.649742 
	C231.661865,45.199913 231.330933,44.099880 231.000000,42.599922 
	C231.000000,41.133533 231.000000,40.067070 231.403900,38.944336 
	C234.744980,38.715240 237.747147,38.856289 240.597885,38.265995 
	C242.713272,37.827969 244.632034,36.440399 246.638367,35.475792 
	C245.704819,33.990417 244.771255,32.505047 243.837708,31.019676 
	C243.223526,30.962227 242.609360,30.904778 241.995193,30.847328 
	C243.220093,28.653219 244.436340,26.454231 245.672333,24.266394 
	C246.855133,22.172735 248.277481,20.160803 244.753265,18.714447 
	C243.685410,18.276197 242.366577,17.109961 242.179932,16.090857 
	C241.264923,11.095071 240.693085,6.036431 240.000000,1.000001 
z"/>
<path fill="#EDEEF0" opacity="1.000000" stroke="none" 
	d="
M239.531342,1.000001 
	C240.693085,6.036431 241.264923,11.095071 242.179932,16.090857 
	C242.366577,17.109961 243.685410,18.276197 244.753265,18.714447 
	C248.277481,20.160803 246.855133,22.172735 245.672333,24.266394 
	C244.436340,26.454231 243.220093,28.653219 241.995193,30.847328 
	C242.609360,30.904778 243.223526,30.962227 243.837708,31.019676 
	C244.771255,32.505047 245.704819,33.990417 246.638367,35.475792 
	C244.632034,36.440399 242.713272,37.827969 240.597885,38.265995 
	C237.747147,38.856289 234.744980,38.715240 231.401886,38.560059 
	C230.119797,37.193241 229.243607,36.154419 228.367432,35.115593 
	C227.911636,36.410599 227.455826,37.705608 226.705093,38.974747 
	C225.940109,38.632591 225.470047,38.316296 224.999878,37.587769 
	C224.229919,33.946938 223.460052,30.718348 222.690201,27.489758 
	C222.220901,27.480507 221.751602,27.471256 221.282303,27.462008 
	C220.520630,30.833601 219.946503,34.264683 218.905212,37.547592 
	C218.487045,38.865921 217.042709,39.858768 215.851379,40.715599 
	C214.787262,38.511791 213.719162,36.651241 213.176361,34.648335 
	C212.891937,33.598789 213.528915,32.299530 214.043152,30.974741 
	C214.430939,29.952208 214.878494,28.890179 214.542435,28.222675 
	C213.938858,27.023798 212.864716,26.061832 211.991760,24.580727 
	C211.839355,20.732548 212.159317,17.982027 216.020309,16.083767 
	C219.261414,14.490282 221.739380,11.344557 224.555206,8.886063 
	C224.137009,8.140066 223.718826,7.394069 223.300629,6.648073 
	C221.419006,7.054801 219.281265,7.027761 217.707947,7.956676 
	C214.208069,10.023082 212.403229,8.628898 211.368362,5.408087 
	C210.928940,4.040461 211.104141,2.475354 211.000000,1.000000 
	C220.354233,1.000000 229.708450,1.000000 239.531342,1.000001 
M238.863800,28.060537 
	C238.098495,29.263292 237.333191,30.466047 236.567886,31.668806 
	C237.563705,32.100067 238.549744,32.830338 239.558594,32.863342 
	C240.300278,32.887604 241.774902,31.684975 241.721695,31.565918 
	C241.168594,30.328310 240.371857,29.199593 238.863800,28.060537 
z"/>
<path fill="#ECEDEF" opacity="1.000000" stroke="none" 
	d="
M18.000000,161.000000 
	C21.109070,159.417191 20.522474,162.046432 21.013161,163.578384 
	C21.589994,165.379318 22.322155,167.130478 22.986956,168.903229 
	C23.576675,168.830139 24.166395,168.757065 24.756115,168.683990 
	C25.171658,166.888184 25.758318,165.112152 25.968376,163.292633 
	C26.459194,159.041229 28.632126,157.911865 32.278870,160.164597 
	C36.299927,162.648560 35.808941,167.318176 32.160709,170.394897 
	C30.381844,171.895081 30.207781,175.298172 28.899324,178.991470 
	C32.385040,178.088669 34.191280,177.620850 36.532230,177.014557 
	C36.532230,179.595322 36.532230,181.786819 36.532230,184.340179 
	C34.646626,183.622437 32.769073,182.907745 30.076843,181.882965 
	C29.654682,183.973907 29.311420,185.674057 28.968157,187.374237 
	C30.763052,187.706482 32.570103,188.348312 34.349213,188.278473 
	C35.929974,188.216385 37.850567,187.781250 38.972042,186.782150 
	C42.053825,184.036682 44.555355,184.383438 46.787777,187.747940 
	C48.257202,186.393600 49.436634,185.306549 50.800465,184.049545 
	C53.092972,186.296860 55.255119,188.416382 58.019318,191.126083 
	C57.535740,193.530472 56.768036,197.347534 56.000168,201.582306 
	C44.645771,202.000000 33.291542,202.000000 21.468658,201.569427 
	C20.265587,198.152969 19.109838,195.197861 18.888777,192.174423 
	C18.489100,186.708054 13.691981,180.817596 20.242287,175.764114 
	C21.066107,175.128540 21.115881,172.889450 20.833910,171.537277 
	C20.092615,167.982452 18.970448,164.507050 18.000000,161.000000 
M28.074627,192.181564 
	C27.190302,191.082138 26.305977,189.982712 25.421652,188.883286 
	C24.892170,189.213837 24.362686,189.544388 23.833204,189.874939 
	C24.510031,191.213333 24.945810,192.787003 25.945013,193.810760 
	C26.659121,194.542435 28.786907,196.055557 28.074627,192.181564 
z"/>
<path fill="#EAEBED" opacity="1.000000" stroke="none" 
	d="
M17.609802,160.897598 
	C18.970448,164.507050 20.092615,167.982452 20.833910,171.537277 
	C21.115881,172.889450 21.066107,175.128540 20.242287,175.764114 
	C13.691981,180.817596 18.489100,186.708054 18.888777,192.174423 
	C19.109838,195.197861 20.265587,198.152969 21.000000,201.569427 
	C14.379980,202.000000 7.759961,202.000000 1.000000,202.000000 
	C1.000000,187.979370 1.000000,173.958344 1.350957,159.426086 
	C4.882113,158.029617 8.062311,157.144409 11.768188,156.112854 
	C11.508546,153.182953 11.156369,149.208847 10.688544,143.929718 
	C9.380017,145.561218 8.062933,146.465057 8.142973,147.220993 
	C8.755287,153.003891 5.250101,153.400436 1.000000,153.000000 
	C1.000000,149.969406 1.000000,146.938812 1.466113,143.454102 
	C6.620599,142.999786 11.308971,142.999588 15.997343,142.999390 
	C15.998551,147.444946 15.899441,151.894058 16.056866,156.334076 
	C16.110010,157.832977 16.813393,159.308823 17.609802,160.897598 
M10.999823,170.856934 
	C10.999805,172.571289 10.999788,174.285645 10.369197,176.347809 
	C9.591166,177.919891 8.309163,179.458389 8.201434,181.075134 
	C8.121450,182.275497 9.565386,183.577393 10.330515,184.834061 
	C11.220160,183.816925 12.402431,182.929398 12.924972,181.749680 
	C13.569992,180.293457 13.666386,178.594223 14.309377,176.297577 
	C14.935844,173.423203 16.610460,170.217148 12.015670,168.237198 
	C12.421046,166.990158 13.053320,165.763626 13.168505,164.490341 
	C13.285606,163.195831 13.125653,161.744217 12.580903,160.602982 
	C12.419024,160.263870 10.057382,160.340271 9.573789,160.934448 
	C8.802706,161.881866 8.255374,163.541367 8.524640,164.685242 
	C8.963099,166.547836 10.136563,168.237411 10.999823,170.856934 
z"/>
<path fill="#ECEDEF" opacity="1.000000" stroke="none" 
	d="
M154.151901,194.128479 
	C154.125183,194.440811 154.098450,194.753159 153.998322,195.878021 
	C153.949951,198.460373 153.974976,200.230194 154.000000,202.000000 
	C122.979103,202.000000 91.958214,202.000000 60.468658,202.000000 
	C62.035587,196.442978 66.383270,194.333038 71.699875,196.524780 
	C75.657776,198.156387 79.441689,200.268188 81.543564,194.036545 
	C81.818024,193.222839 84.438576,193.119766 85.999390,192.835266 
	C91.352501,191.859543 96.427528,191.882507 99.173630,196.246170 
	C102.168465,196.526825 104.338585,196.730194 107.335533,196.918701 
	C116.415054,196.680603 124.666985,196.417374 132.920944,196.260529 
	C135.147186,196.218201 137.422150,196.836517 139.600449,196.562042 
	C144.475739,195.947708 149.304306,194.962585 154.151901,194.128479 
z"/>
<path fill="#ECEDEF" opacity="1.000000" stroke="none" 
	d="
M1.000000,63.468658 
	C3.569088,62.613846 6.129776,62.030819 8.710641,61.920708 
	C10.098277,61.861504 11.520535,62.613792 12.927171,62.999924 
	C12.893061,63.487385 12.858952,63.974846 12.824841,64.462303 
	C11.901340,64.983849 10.788773,65.330101 10.101848,66.070992 
	C9.228969,67.012436 8.226069,68.255661 8.182169,69.403305 
	C8.149856,70.248055 9.426862,71.691444 10.360590,71.930672 
	C14.650630,73.029770 16.544672,76.037430 17.771212,80.529655 
	C16.214245,80.705727 14.568211,80.439232 13.530481,81.111595 
	C11.824031,82.217224 9.628116,83.722603 9.224207,85.433731 
	C8.471878,88.620926 11.189664,88.814728 13.709290,89.094353 
	C15.455387,89.288139 18.088043,89.999146 18.535891,91.165718 
	C19.059244,92.528984 17.914463,94.814796 16.939159,96.347740 
	C16.477566,97.073257 14.484312,97.541420 13.599198,97.161423 
	C8.665984,95.043457 7.974664,98.106178 8.054875,101.659210 
	C8.166814,106.617554 8.669161,111.566429 8.951354,116.522377 
	C8.986841,117.145622 8.700468,117.787193 8.384418,119.245033 
	C5.961271,118.098152 3.840357,117.094322 1.359722,116.045242 
	C1.000000,98.645775 1.000000,81.291542 1.000000,63.468658 
z"/>
<path fill="#E8E9EB" opacity="1.000000" stroke="none" 
	d="
M236.000610,82.000610 
	C238.532669,84.075752 241.013550,82.859413 243.678925,82.169907 
	C245.701187,81.646751 247.956268,82.023628 250.553879,82.000000 
	C251.000000,88.021156 251.000000,94.042305 251.000000,100.531723 
	C248.563721,101.891167 246.127441,102.782341 243.147278,103.872467 
	C245.079224,113.351151 232.718140,112.956787 231.830795,122.260208 
	C229.876068,119.200645 228.882767,117.645943 227.674805,115.755211 
	C224.067139,119.558746 223.747726,123.856102 224.008591,128.307571 
	C224.151428,130.745300 223.690002,132.350433 220.368561,130.592926 
	C220.087967,125.932594 220.418518,122.455070 223.364456,118.468437 
	C226.213226,114.613312 226.771683,111.057594 232.531967,115.708496 
	C232.255783,113.068718 231.521301,111.205841 230.813950,109.332718 
	C230.258286,107.861267 228.947006,106.119255 229.331726,104.941963 
	C231.312012,98.881981 233.731461,92.965515 235.998260,86.582436 
	C235.999481,84.777489 236.000046,83.389046 236.000610,82.000610 
z"/>
<path fill="#ECEDEF" opacity="1.000000" stroke="none" 
	d="
M29.539364,1.000000 
	C30.193584,4.667435 29.716257,7.548646 26.532202,10.545811 
	C23.914774,13.009609 23.079573,17.672831 22.229158,21.531948 
	C21.953472,22.782991 23.942190,24.755568 25.224794,26.078503 
	C27.496042,28.421167 28.134407,30.202618 24.844732,32.313061 
	C23.534536,33.153595 22.330853,35.022247 22.131975,36.559155 
	C21.673590,40.101528 21.067188,42.276917 16.964186,39.733303 
	C16.206984,39.263882 14.806432,39.832222 13.351410,39.627316 
	C12.999871,38.888756 12.999745,38.444454 12.989508,37.631966 
	C11.986545,36.509388 10.993691,35.754997 9.952547,34.633701 
	C9.605378,30.961376 9.180604,27.661497 9.034893,24.349342 
	C8.765287,18.220963 15.043858,22.944117 16.634094,19.953682 
	C16.634094,19.529848 16.767910,19.090899 16.608177,18.907198 
	C16.184744,18.420233 15.692846,17.928585 15.125724,17.640539 
	C8.138538,14.091717 8.108775,11.734505 14.507758,6.575041 
	C16.121260,5.274084 16.859526,2.887625 18.000000,1.000000 
	C21.692909,1.000000 25.385818,1.000000 29.539364,1.000000 
z"/>
<path fill="#E4E5E7" opacity="1.000000" stroke="none" 
	d="
M251.000000,140.531433 
	C249.607681,140.174240 248.297867,139.122162 246.803162,138.577209 
	C244.706024,137.812592 242.134277,135.614944 240.789673,139.711426 
	C240.711014,139.951080 239.266739,139.742477 238.092392,139.742477 
	C238.040955,140.636230 237.953262,142.160065 237.865555,143.683884 
	C237.632111,143.691483 237.398651,143.699081 237.165192,143.706680 
	C237.165192,139.596939 237.165192,135.487183 237.165192,131.377441 
	C236.875732,131.373703 236.586273,131.369965 236.296814,131.366241 
	C236.296814,134.446014 236.296814,137.525803 236.296814,139.498932 
	C232.677200,141.107666 229.810623,142.381699 226.033310,144.060516 
	C228.778091,146.986404 230.636948,148.967911 232.299042,150.739670 
	C229.430832,153.780670 226.560303,156.824112 223.345093,159.934082 
	C222.664200,155.823105 222.764633,151.547409 221.854218,147.499039 
	C221.120605,144.236893 220.723618,141.838531 224.054230,139.831451 
	C225.116180,139.191498 225.434204,137.317032 226.221924,135.750229 
	C232.407791,136.002518 234.728485,133.232529 232.650421,127.251839 
	C231.610657,124.259392 234.452499,118.595253 238.411636,117.680763 
	C240.341675,117.234962 242.854813,119.313553 244.565765,121.154091 
	C246.458023,120.436668 248.350281,119.719238 250.621277,119.000900 
	C251.000000,126.020950 251.000000,133.041901 251.000000,140.531433 
M238.271194,134.155960 
	C238.395920,134.039276 238.520630,133.922592 238.645340,133.805908 
	C238.520020,133.825836 238.394714,133.845764 238.271194,134.155960 
z"/>
<path fill="#EAEBED" opacity="1.000000" stroke="none" 
	d="
M17.529547,1.000000 
	C16.859526,2.887625 16.121260,5.274084 14.507758,6.575041 
	C8.108775,11.734505 8.138538,14.091717 15.125724,17.640539 
	C15.692846,17.928585 16.184744,18.420233 16.608177,18.907198 
	C16.767910,19.090899 16.634094,19.529848 16.634094,19.953682 
	C15.043858,22.944117 8.765287,18.220963 9.034893,24.349342 
	C9.180604,27.661497 9.605378,30.961376 9.952391,35.008644 
	C10.000770,36.500435 10.001015,37.250370 10.000727,38.333755 
	C10.000124,39.111481 10.000053,39.555759 9.849600,40.295486 
	C8.851908,41.735886 8.004600,42.880840 7.176238,44.000191 
	C8.680231,45.282043 9.880803,46.305290 11.026390,47.281677 
	C10.265146,48.975204 9.698878,50.335384 9.048360,51.654003 
	C8.394536,52.979321 7.656834,54.263256 6.955889,55.565327 
	C6.304103,54.061829 5.150902,52.573112 5.106058,51.051727 
	C5.015759,47.988235 4.940397,45.295864 1.000000,45.000000 
	C1.000000,30.440218 1.000000,15.880435 1.000000,1.000000 
	C6.348763,1.000000 11.703928,1.000000 17.529547,1.000000 
z"/>
<path fill="#F1F2F4" opacity="1.000000" stroke="none" 
	d="
M211.987183,25.000877 
	C212.864716,26.061832 213.938858,27.023798 214.542435,28.222675 
	C214.878494,28.890179 214.430939,29.952208 213.668274,31.002911 
	C211.482117,30.418509 209.897095,29.776766 208.460648,28.893438 
	C205.696716,27.193787 203.191101,24.954117 200.255417,23.685982 
	C197.027664,22.291676 193.436264,21.739206 190.003296,20.819962 
	C188.405930,19.229162 186.808548,17.638363 185.211166,16.047562 
	C186.956558,14.377142 188.999268,12.909142 190.329132,10.955818 
	C191.056778,9.887044 190.579407,7.997873 190.645432,6.478654 
	C188.888351,6.846568 186.873901,6.815462 185.465424,7.723872 
	C184.539581,8.321008 184.487991,10.273664 183.981964,11.810424 
	C178.433609,10.316957 176.485428,6.922643 177.000000,1.418128 
	C184.354248,1.000000 191.708496,1.000000 199.531372,1.466917 
	C200.002594,5.908396 199.829544,9.893373 200.064392,13.854164 
	C200.246048,16.917643 201.377670,19.116558 205.353958,18.567665 
	C206.406967,18.422304 207.823746,20.473434 208.976074,21.614395 
	C210.047302,22.675028 210.988647,23.866823 211.987183,25.000877 
z"/>
<path fill="#E4E5E7" opacity="1.000000" stroke="none" 
	d="
M220.841949,159.705353 
	C220.667068,164.929810 220.280899,169.854996 220.022324,174.786896 
	C219.893951,177.235153 220.000000,179.695709 220.000000,181.907898 
	C218.064331,181.907898 216.622208,181.907898 215.180069,181.907898 
	C215.306763,183.389389 215.153809,184.963745 215.609451,186.336014 
	C217.412262,191.765564 213.070816,197.605469 206.772629,197.988815 
	C204.537033,198.124878 201.761948,197.366776 202.003189,201.587814 
	C199.958328,202.000000 197.916672,202.000000 195.437500,202.000000 
	C194.964264,197.562363 195.589737,193.934296 198.768814,189.883545 
	C201.568069,186.316742 202.906830,182.224060 208.038071,181.001328 
	C208.968369,180.779648 209.636597,177.369934 209.553070,175.470367 
	C209.427185,172.607468 208.532608,169.778366 207.878479,166.502716 
	C210.066086,166.705627 211.640289,166.851639 213.607056,167.446579 
	C214.001129,175.516006 214.001129,175.516006 217.181335,176.513321 
	C219.155823,169.514740 218.429794,167.115112 214.000610,166.000610 
	C212.687210,164.580139 211.373795,163.159683 209.823196,161.482681 
	C213.237213,160.830750 216.960251,160.119797 220.841949,159.705353 
M207.583176,186.488358 
	C207.666061,188.179688 207.748962,189.871017 207.831863,191.562363 
	C208.749832,191.470383 210.337616,191.622238 210.474609,191.245941 
	C211.235229,189.156525 211.643417,186.938843 212.172256,184.765060 
	C211.767212,184.598099 211.362183,184.431122 210.957138,184.264145 
	C210.028946,184.840607 209.100754,185.417068 207.583176,186.488358 
z"/>
<path fill="#F1F2F4" opacity="1.000000" stroke="none" 
	d="
M211.991760,24.580727 
	C210.988647,23.866823 210.047302,22.675028 208.976074,21.614395 
	C207.823746,20.473434 206.406967,18.422304 205.353958,18.567665 
	C201.377670,19.116558 200.246048,16.917643 200.064392,13.854164 
	C199.829544,9.893373 200.002594,5.908396 200.000000,1.466917 
	C203.361282,1.000000 206.722580,1.000000 210.541931,1.000000 
	C211.104141,2.475354 210.928940,4.040461 211.368362,5.408087 
	C212.403229,8.628898 214.208069,10.023082 217.707947,7.956676 
	C219.281265,7.027761 221.419006,7.054801 223.300629,6.648073 
	C223.718826,7.394069 224.137009,8.140066 224.555206,8.886063 
	C221.739380,11.344557 219.261414,14.490282 216.020309,16.083767 
	C212.159317,17.982027 211.839355,20.732548 211.991760,24.580727 
z"/>
<path fill="#DDDEE0" opacity="1.000000" stroke="none" 
	d="
M241.486572,202.000000 
	C240.999847,195.204132 240.984360,188.408203 241.012772,181.612457 
	C241.018280,180.296310 240.838623,178.806946 241.376053,177.705750 
	C242.191666,176.034500 243.560196,174.633102 244.693832,173.117065 
	C245.967133,174.436920 247.297470,175.707642 248.492294,177.095062 
	C249.206100,177.923950 249.707489,178.935776 250.652191,179.932678 
	C251.000000,187.223190 251.000000,194.446365 251.000000,202.000000 
	C247.999115,202.000000 244.986130,202.000000 241.486572,202.000000 
z"/>
<path fill="#ECEDEF" opacity="1.000000" stroke="none" 
	d="
M11.997521,139.000610 
	C10.577982,138.671478 9.158441,138.342361 7.412323,137.644012 
	C6.527432,136.187897 6.219002,134.531326 5.350954,134.150543 
	C4.116210,133.608917 2.470269,134.004700 1.000000,134.000000 
	C1.000000,130.969406 1.000000,127.938812 1.000000,124.454109 
	C4.664968,124.219170 7.963335,124.138504 10.540093,120.533569 
	C11.545564,119.126884 14.501387,119.114296 16.568863,118.466721 
	C16.734184,120.729454 17.176043,123.015137 16.990646,125.248756 
	C16.786394,127.709557 16.005949,130.122528 14.915870,132.644836 
	C13.581579,133.175476 12.255381,133.506714 12.140119,134.080994 
	C11.821892,135.666550 12.009772,137.353653 11.997521,139.000610 
z"/>
<path fill="#ECEDEF" opacity="1.000000" stroke="none" 
	d="
M1.000000,45.466118 
	C4.940397,45.295864 5.015759,47.988235 5.106058,51.051727 
	C5.150902,52.573112 6.304103,54.061829 6.955889,55.565327 
	C7.656834,54.263256 8.394536,52.979321 9.048360,51.654003 
	C9.698878,50.335384 10.265146,48.975204 11.026390,47.281677 
	C9.880803,46.305290 8.680231,45.282043 7.176238,44.000191 
	C8.004600,42.880840 8.851908,41.735886 10.099592,40.295479 
	C10.499967,40.000019 10.999949,40.000034 10.999949,40.000034 
	C12.099697,41.624084 12.924750,43.559940 14.349481,44.815105 
	C19.071377,48.975014 20.064695,52.219910 16.848890,56.709755 
	C15.500032,56.999977 14.750051,56.999912 14.000068,56.999847 
	C12.985173,56.910862 11.243931,56.446346 11.066174,56.790165 
	C8.966730,60.850937 5.272110,59.947266 1.435701,60.000000 
	C1.000000,55.310745 1.000000,50.621487 1.000000,45.466118 
z"/>
<path fill="#ECEDEF" opacity="1.000000" stroke="none" 
	d="
M1.000000,153.428467 
	C5.250101,153.400436 8.755287,153.003891 8.142973,147.220993 
	C8.062933,146.465057 9.380017,145.561218 10.688544,143.929718 
	C11.156369,149.208847 11.508546,153.182953 11.768188,156.112854 
	C8.062311,157.144409 4.882113,158.029617 1.350957,158.957428 
	C1.000000,157.285645 1.000000,155.571289 1.000000,153.428467 
z"/>
<path fill="#EAEBED" opacity="1.000000" stroke="none" 
	d="
M1.000000,134.416672 
	C2.470269,134.004700 4.116210,133.608917 5.350954,134.150543 
	C6.219002,134.531326 6.527432,136.187897 7.044191,137.637817 
	C6.689559,138.116608 6.432517,138.307739 5.699101,138.787415 
	C3.777796,139.000397 2.388898,139.000198 1.000000,139.000000 
	C1.000000,137.611115 1.000000,136.222214 1.000000,134.416672 
z"/>
<path fill="#EAEBED" opacity="1.000000" stroke="none" 
	d="
M15.898817,142.613251 
	C11.308971,142.999588 6.620599,142.999786 1.466113,143.000000 
	C1.000000,142.555557 1.000000,142.111099 1.399984,141.333328 
	C2.866803,140.999863 3.933638,140.999725 5.000473,140.999573 
	C8.600412,141.408737 12.200351,141.817917 15.898817,142.613251 
z"/>
<path fill="#EAEBED" opacity="1.000000" stroke="none" 
	d="
M154.428467,202.000000 
	C153.974976,200.230194 153.949951,198.460373 153.961548,196.346802 
	C154.748642,196.001968 155.499115,196.000900 156.625198,196.248840 
	C157.000809,196.497864 157.000610,196.995728 157.000610,196.995728 
	C157.000610,196.995728 157.002991,197.490509 156.788788,197.920486 
	C157.716187,198.568771 158.857788,198.787079 159.999634,199.379700 
	C159.999908,200.502686 159.999954,201.251343 160.000000,202.000000 
	C158.285645,202.000000 156.571289,202.000000 154.428467,202.000000 
z"/>
<path fill="#DDDEE0" opacity="1.000000" stroke="none" 
	d="
M237.333328,202.000000 
	C237.345505,196.779694 237.691010,191.559387 238.036530,186.339081 
	C238.357529,186.338272 238.678543,186.337448 238.999542,186.336624 
	C238.999542,191.246048 238.999542,196.155487 238.999771,201.532455 
	C238.555557,202.000000 238.111099,202.000000 237.333328,202.000000 
z"/>
<path fill="#ECEDEF" opacity="1.000000" stroke="none" 
	d="
M5.099774,140.736969 
	C3.933638,140.999725 2.866803,140.999863 1.399984,141.000000 
	C1.000000,140.555557 1.000000,140.111099 1.000000,139.333328 
	C2.388898,139.000198 3.777796,139.000397 5.583354,139.000946 
	C5.733035,139.492310 5.466055,139.983337 5.099774,140.736969 
z"/>
<path fill="#EAEBED" opacity="1.000000" stroke="none" 
	d="
M160.375000,202.000000 
	C159.999954,201.251343 159.999908,200.502686 160.251923,199.378036 
	C160.672165,199.001358 160.840347,199.000687 161.008545,199.000000 
	C161.652267,199.787338 162.295990,200.574692 162.969849,201.681015 
	C162.250000,202.000000 161.500000,202.000000 160.375000,202.000000 
z"/>
<path fill="#E4E5E7" opacity="1.000000" stroke="none" 
	d="
M187.375000,202.000000 
	C187.962143,201.781662 188.924286,201.563339 189.943207,201.672516 
	C189.250000,202.000000 188.500000,202.000000 187.375000,202.000000 
z"/>
<path fill="#E4E5E7" opacity="1.000000" stroke="none" 
	d="
M251.000000,114.666672 
	C250.495728,114.681923 249.991455,114.363846 249.487198,114.045761 
	C249.797546,113.726128 250.107910,113.406502 250.709137,113.043442 
	C251.000000,113.444443 251.000000,113.888893 251.000000,114.666672 
z"/>
<path fill="#EAEBED" opacity="1.000000" stroke="none" 
	d="
M165.333328,202.000000 
	C165.318039,201.495636 165.636093,200.991272 165.954147,200.486908 
	C166.273895,200.797318 166.593643,201.107712 166.956696,201.709061 
	C166.555557,202.000000 166.111099,202.000000 165.333328,202.000000 
z"/>
<path fill="#06090A" opacity="1.000000" stroke="none" 
	d="
M189.593872,20.894133 
	C193.436264,21.739206 197.027664,22.291676 200.255417,23.685982 
	C203.191101,24.954117 205.696716,27.193787 208.460648,28.893438 
	C209.897095,29.776766 211.482117,30.418509 213.374908,31.141212 
	C213.528915,32.299530 212.891937,33.598789 213.176361,34.648335 
	C213.719162,36.651241 214.787262,38.511791 215.823013,41.135853 
	C216.144363,45.558586 216.280029,49.276901 216.280457,53.378830 
	C216.032242,54.841042 215.919266,55.919643 215.530594,57.196983 
	C212.757217,61.227074 210.259521,65.058426 207.401962,68.889603 
	C205.694809,69.334221 204.347549,69.779022 202.610901,70.293503 
	C198.615723,71.348305 194.835739,72.527817 193.172058,67.596420 
	C191.628937,63.022373 194.708542,60.920734 198.181870,59.195374 
	C199.065796,58.756290 199.943451,58.273521 200.875473,57.967705 
	C205.264114,56.527695 206.505447,53.172203 206.403336,48.998325 
	C206.225967,41.747482 199.534119,35.671856 191.291260,35.250092 
	C183.915527,34.872688 176.922562,41.091755 176.145554,48.940815 
	C174.837967,62.149315 178.985001,73.905548 186.448792,84.521858 
	C194.346802,95.755745 200.838852,107.598473 204.193176,121.312691 
	C204.409851,122.429916 204.667679,123.225761 204.906616,124.468811 
	C205.166809,127.271217 205.445908,129.626419 205.596100,132.230530 
	C205.589615,133.007767 205.712036,133.536087 205.693115,134.469696 
	C205.306458,138.228622 205.061142,141.582230 204.815842,144.935852 
	C204.176468,147.020004 203.537079,149.104172 202.588989,151.780746 
	C201.741333,153.868088 201.202423,155.363007 200.663513,156.857925 
	C194.757141,167.293198 186.886185,175.690872 175.839890,180.796768 
	C175.394501,181.002655 174.652756,181.146637 174.565369,181.462372 
	C172.726074,188.106750 165.574509,188.729492 160.994598,193.098541 
	C159.571899,193.450760 158.774475,193.654984 157.977051,193.859207 
	C156.909149,193.895737 155.841263,193.932266 154.462631,194.048645 
	C149.304306,194.962585 144.475739,195.947708 139.600449,196.562042 
	C137.422150,196.836517 135.147186,196.218201 132.920944,196.260529 
	C124.666985,196.417374 116.415054,196.680603 107.718185,196.890411 
	C102.614838,192.102158 102.705330,190.801041 108.588898,182.780487 
	C107.145409,182.510025 105.967781,182.289368 104.025299,182.061676 
	C102.506340,182.095978 101.752228,182.137329 100.998123,182.178680 
	C96.946930,181.682556 92.895737,181.186432 88.170547,180.609406 
	C86.767960,179.116531 86.329597,176.802750 85.257622,176.457764 
	C81.716034,175.317993 81.980011,172.766373 81.991295,170.070709 
	C82.018478,163.573654 81.654022,157.052200 82.106903,150.586761 
	C82.485321,145.184387 80.570518,142.263611 73.624092,141.860077 
	C75.813667,140.789185 76.642845,140.004669 77.374641,140.086884 
	C82.339668,140.644775 83.400780,138.014862 83.030228,133.766815 
	C82.569687,128.486969 82.153297,123.190804 82.059158,117.895630 
	C81.990273,114.021080 80.524124,112.502365 76.552895,111.816650 
	C71.556732,110.953979 65.645035,112.146736 62.227913,106.718155 
	C63.636143,104.847282 65.738602,103.317665 65.845428,101.659477 
	C66.485161,91.729492 66.829323,81.771606 66.932190,71.819557 
	C66.985085,66.702171 66.146271,61.581287 66.042824,56.455269 
	C65.878120,48.293953 65.714539,48.009026 57.588444,47.999855 
	C49.938156,47.991222 49.938164,47.991219 50.000267,40.736923 
	C50.054314,34.424324 50.469994,34.016911 56.879177,34.000496 
	C57.878124,33.997936 58.979126,34.272484 59.855419,33.944546 
	C61.865536,33.192287 64.775124,32.616634 65.475403,31.111361 
	C66.534843,28.834042 67.181442,25.538181 63.521717,23.882389 
	C62.854271,23.580410 62.146049,22.338614 62.218468,21.605957 
	C62.569698,18.052549 69.224304,14.979680 71.735306,17.412359 
	C73.013435,18.650625 73.038437,21.182350 73.682281,23.301830 
	C75.201424,23.013912 76.789467,22.712936 79.319778,22.233376 
	C79.555466,29.037899 79.877892,35.453320 79.974258,41.872135 
	C80.090759,49.632225 80.402290,50.427246 88.229767,49.858528 
	C94.205086,49.424385 97.287437,52.329960 99.793938,56.450165 
	C98.402245,58.378693 96.474548,59.855240 96.305069,61.511673 
	C95.820885,66.244156 96.173088,71.055054 95.965118,75.825027 
	C95.768822,80.327255 97.721191,82.131416 102.200417,82.048019 
	C111.021408,81.883766 119.851730,82.158310 128.669861,81.929932 
	C132.780426,81.823479 136.871567,80.967155 141.825928,80.343117 
	C143.945084,82.432541 143.945084,82.432541 144.000366,91.633987 
	C144.031860,96.876587 145.940292,98.567566 150.997528,97.977875 
	C154.855667,97.528000 158.727661,97.196945 162.593491,96.813026 
	C169.009430,109.071663 171.635605,122.394356 173.088943,135.942276 
	C174.023834,144.657104 174.129913,153.460861 175.517578,163.134964 
	C178.791763,158.817398 182.186234,154.585098 185.318512,150.166931 
	C196.543442,134.333786 191.253708,119.512276 182.609970,104.758690 
	C177.571457,96.158691 172.664551,87.442322 168.363602,78.459808 
	C163.445099,68.187614 162.200546,57.178722 163.396194,45.804577 
	C164.760483,32.826496 175.512344,22.848728 189.593872,20.894133 
M76.567528,24.513876 
	C76.567528,24.513876 76.479546,24.561911 76.567528,24.513876 
z"/>
<path fill="#060709" opacity="1.000000" stroke="none" 
	d="
M62.000000,107.000000 
	C65.645035,112.146736 71.556732,110.953979 76.552895,111.816650 
	C80.524124,112.502365 81.990273,114.021080 82.059158,117.895630 
	C82.153297,123.190804 82.569687,128.486969 83.030228,133.766815 
	C83.400780,138.014862 82.339668,140.644775 77.374641,140.086884 
	C76.642845,140.004669 75.813667,140.789185 73.624092,141.860077 
	C80.570518,142.263611 82.485321,145.184387 82.106903,150.586761 
	C81.654022,157.052200 82.018478,163.573654 81.991295,170.070709 
	C81.980011,172.766373 81.716034,175.317993 85.257622,176.457764 
	C86.329597,176.802750 86.767960,179.116531 87.765816,180.772217 
	C87.632812,182.737564 87.230530,184.459183 86.608040,186.711945 
	C86.029366,187.858047 85.670898,188.473038 85.312439,189.088013 
	C79.754936,193.826187 73.223152,192.453995 66.994827,191.601212 
	C62.278671,190.955460 61.666328,187.804688 64.705116,182.675385 
	C58.165443,177.950058 57.602142,174.805252 63.258980,170.765320 
	C65.027817,170.091827 66.143250,169.607056 67.562134,169.081543 
	C68.113457,168.357742 68.361313,167.674652 68.743668,166.634781 
	C68.925499,165.520432 68.972816,164.762848 69.232391,163.725525 
	C69.544685,162.295944 69.644730,161.146118 69.830269,159.629776 
	C69.966080,158.514893 70.016396,157.766525 70.294716,156.834930 
	C70.576218,156.085693 70.629707,155.519669 70.785141,154.594788 
	C70.931427,153.492218 70.975769,152.748520 71.237839,151.891708 
	C71.559265,151.164062 71.662964,150.549500 71.841583,149.741287 
	C71.976608,149.266418 71.949181,148.994019 72.022461,148.490417 
	C72.378143,147.486160 72.545578,146.721924 72.816849,145.603760 
	C72.854942,142.846405 72.789192,140.442993 72.809372,137.754990 
	C72.606125,136.977432 72.316940,136.484451 72.006241,135.625305 
	C70.894325,132.335846 69.803917,129.412537 69.049637,126.324715 
	C69.822006,125.444992 70.258263,124.729790 70.694519,124.014580 
	C70.323418,123.830772 69.952316,123.646957 69.581215,123.463142 
	C69.240196,124.423973 68.899178,125.384811 68.206894,126.379570 
	C64.997345,123.236732 62.139046,120.059959 59.207310,116.571548 
	C59.059044,115.839668 58.984215,115.419434 59.055840,114.689850 
	C58.537975,113.560631 57.873653,112.740761 57.157276,111.536469 
	C55.213505,106.705963 53.321793,102.259880 51.298470,97.382370 
	C50.497883,91.807304 50.883545,86.815414 53.533115,81.929626 
	C53.837456,81.162186 53.910206,80.581078 54.235909,79.731140 
	C54.898327,78.219948 55.732231,76.945145 55.640179,75.741127 
	C55.324245,71.608955 58.010948,66.856422 53.296158,63.546410 
	C53.239326,63.550190 53.191357,63.446869 53.268517,63.054314 
	C52.414906,62.422401 51.436001,62.296082 50.561832,61.923817 
	C47.074173,60.438618 42.531708,61.055859 40.387894,56.870728 
	C38.945503,54.011642 37.503117,51.152557 35.915993,47.662216 
	C35.787994,46.070744 35.804733,45.110523 35.937408,44.100430 
	C36.284134,43.777260 36.397495,43.487869 36.699265,42.938477 
	C37.932140,41.462681 38.859184,40.230793 40.020035,38.708580 
	C42.833393,33.605804 45.412945,28.793358 47.992493,23.980913 
	C49.868561,22.646744 51.636757,21.110420 53.651176,20.035538 
	C55.645702,18.971270 57.888603,18.372473 60.484009,17.395880 
	C59.526531,13.585406 58.607410,9.927569 57.849316,6.910578 
	C67.743782,7.058408 73.576630,14.067425 80.683846,18.919441 
	C91.428169,26.254473 97.526741,36.490868 100.336929,48.974358 
	C101.101120,52.369083 102.118034,55.710239 103.102982,59.051212 
	C104.763626,64.684189 108.247482,68.213745 114.705231,69.087509 
	C115.358017,70.222221 115.689461,70.840202 116.020897,71.458183 
	C116.347374,70.672012 116.673851,69.885849 117.000328,69.099678 
	C128.649490,68.937943 139.476089,71.419136 148.887573,79.559593 
	C149.682541,80.487991 150.313919,80.829712 150.945282,81.171440 
	C154.777878,86.145561 158.610474,91.119682 162.518280,96.453415 
	C158.727661,97.196945 154.855667,97.528000 150.997528,97.977875 
	C145.940292,98.567566 144.031860,96.876587 144.000366,91.633987 
	C143.945084,82.432541 143.945084,82.432541 141.825928,80.343117 
	C136.871567,80.967155 132.780426,81.823479 128.669861,81.929932 
	C119.851730,82.158310 111.021408,81.883766 102.200417,82.048019 
	C97.721191,82.131416 95.768822,80.327255 95.965118,75.825027 
	C96.173088,71.055054 95.820885,66.244156 96.305069,61.511673 
	C96.474548,59.855240 98.402245,58.378693 99.793938,56.450165 
	C97.287437,52.329960 94.205086,49.424385 88.229767,49.858528 
	C80.402290,50.427246 80.090759,49.632225 79.974258,41.872135 
	C79.877892,35.453320 79.555466,29.037899 79.319778,22.233376 
	C76.789467,22.712936 75.201424,23.013912 73.682281,23.301830 
	C73.038437,21.182350 73.013435,18.650625 71.735306,17.412359 
	C69.224304,14.979680 62.569698,18.052549 62.218468,21.605957 
	C62.146049,22.338614 62.854271,23.580410 63.521717,23.882389 
	C67.181442,25.538181 66.534843,28.834042 65.475403,31.111361 
	C64.775124,32.616634 61.865536,33.192287 59.855419,33.944546 
	C58.979126,34.272484 57.878124,33.997936 56.879177,34.000496 
	C50.469994,34.016911 50.054314,34.424324 50.000267,40.736923 
	C49.938164,47.991219 49.938156,47.991222 57.588444,47.999855 
	C65.714539,48.009026 65.878120,48.293953 66.042824,56.455269 
	C66.146271,61.581287 66.985085,66.702171 66.932190,71.819557 
	C66.829323,81.771606 66.485161,91.729492 65.845428,101.659477 
	C65.738602,103.317665 63.636143,104.847282 61.954582,106.603943 
	C60.867329,106.704620 60.281326,106.637665 59.695320,106.570709 
	C59.778862,106.958366 59.862400,107.346024 59.945938,107.733688 
	C60.630627,107.489128 61.315311,107.244560 62.000000,107.000000 
M72.618919,186.902771 
	C73.175491,187.069061 73.732056,187.235336 74.288628,187.401627 
	C74.194107,186.845261 74.099586,186.288895 74.005066,185.732529 
	C73.457970,185.951263 72.910881,186.170013 72.618919,186.902771 
M92.186584,35.569447 
	C92.191132,35.200989 92.195679,34.832535 92.200233,34.464077 
	C92.047371,34.462280 91.761635,34.450012 91.760834,34.460205 
	C91.731934,34.826817 91.729622,35.195526 92.186584,35.569447 
M77.470680,145.721283 
	C77.724831,145.988403 77.976646,146.258041 78.246216,146.508575 
	C78.253136,146.515015 78.454491,146.312271 78.565163,146.207062 
	C78.310699,145.939865 78.056236,145.672684 77.470680,145.721283 
M71.721252,165.529236 
	C71.988411,165.275055 72.258064,165.023178 72.508636,164.753571 
	C72.515068,164.746658 72.312286,164.545303 72.207054,164.434601 
	C71.939842,164.689102 71.672630,164.943588 71.721252,165.529236 
z"/>
<path fill="#EEEFF1" opacity="1.000000" stroke="none" 
	d="
M32.999390,109.000305 
	C29.692518,109.420731 26.385647,109.841156 23.078777,110.261589 
	C16.635061,107.735191 16.215372,103.376892 20.865356,97.189804 
	C22.712975,94.731445 22.981182,91.082932 23.946402,87.969421 
	C24.041367,87.663094 23.922863,87.294029 24.001993,86.978828 
	C25.385784,81.466797 26.903900,75.949432 18.470577,74.826126 
	C17.682680,74.721176 16.751451,73.624191 16.399874,72.775307 
	C15.808215,71.346748 15.297590,69.712746 15.452961,68.238960 
	C15.508108,67.715866 17.623192,67.019104 18.766495,67.072609 
	C22.666082,67.255089 24.277317,66.241669 23.161324,61.872772 
	C22.443783,59.063755 22.850725,55.910572 23.106730,52.942104 
	C23.191067,51.964211 24.381432,51.081707 25.066055,50.155586 
	C25.707481,50.950596 26.429121,51.694588 26.973888,52.551075 
	C28.163252,54.421013 29.361605,56.297791 30.365215,58.269051 
	C31.072674,59.658619 31.600231,61.175697 31.967533,62.694042 
	C32.506958,64.923920 32.831570,67.205765 34.282566,69.302681 
	C34.930157,65.270294 35.577747,61.237904 36.613121,57.552662 
	C36.096443,63.545536 40.746563,69.728943 34.801792,74.738136 
	C40.611767,76.871696 41.079823,76.261292 44.803112,62.613770 
	C49.733803,65.351021 51.710503,70.715088 48.773251,73.748016 
	C44.411865,74.445122 44.030003,76.295792 46.765930,81.255371 
	C45.517128,81.981079 44.502396,82.451416 42.304047,83.470367 
	C45.629448,83.902054 47.528526,84.148582 49.624840,84.420715 
	C49.383949,86.081604 49.183258,87.465355 48.959858,89.005653 
	C44.863998,89.005653 41.046150,89.095039 37.234581,88.978706 
	C33.900871,88.876961 33.085697,90.573524 32.927383,93.602577 
	C32.720779,97.555611 35.842995,97.313858 37.939014,97.699944 
	C41.767395,98.405136 42.371803,100.061234 41.391064,103.633820 
	C40.712856,106.104362 41.260731,108.911484 41.260731,112.349152 
	C40.025242,112.260277 37.667694,112.090691 35.263161,111.917725 
	C35.022137,109.704926 34.796791,107.636063 34.571445,105.567200 
	C34.166573,105.606018 33.761696,105.644836 33.356823,105.683655 
	C33.237679,106.789207 33.118534,107.894753 32.999390,109.000305 
z"/>
<path fill="#EFF0F2" opacity="1.000000" stroke="none" 
	d="
M32.999527,109.416916 
	C33.118534,107.894753 33.237679,106.789207 33.356823,105.683655 
	C33.761696,105.644836 34.166573,105.606018 34.571445,105.567200 
	C34.796791,107.636063 35.022137,109.704926 35.263161,111.917725 
	C37.667694,112.090691 40.025242,112.260277 41.260731,112.349152 
	C41.260731,108.911484 40.712856,106.104362 41.391064,103.633820 
	C42.371803,100.061234 41.767395,98.405136 37.939014,97.699944 
	C35.842995,97.313858 32.720779,97.555611 32.927383,93.602577 
	C33.085697,90.573524 33.900871,88.876961 37.234581,88.978706 
	C41.046150,89.095039 44.863998,89.005653 48.959858,89.005653 
	C49.183258,87.465355 49.383949,86.081604 49.624840,84.420715 
	C47.528526,84.148582 45.629448,83.902054 42.304047,83.470367 
	C44.502396,82.451416 45.517128,81.981079 47.109703,81.189484 
	C48.124516,78.578316 48.561493,76.288399 48.998466,73.998482 
	C51.710503,70.715088 49.733803,65.351021 44.803112,62.613770 
	C41.079823,76.261292 40.611767,76.871696 34.801792,74.738136 
	C40.746563,69.728943 36.096443,63.545536 37.002052,57.453251 
	C37.849918,56.983883 38.696636,56.961079 39.965622,56.904503 
	C42.531708,61.055859 47.074173,60.438618 50.561832,61.923817 
	C51.436001,62.296082 52.414906,62.422401 53.040203,63.301086 
	C52.534626,64.550751 52.334522,65.161087 52.134418,65.771423 
	C52.327526,65.828545 52.520634,65.885674 52.713741,65.942795 
	C52.926823,65.142738 53.139904,64.342682 53.352985,63.542629 
	C58.010948,66.856422 55.324245,71.608955 55.640179,75.741127 
	C55.732231,76.945145 54.898327,78.219948 53.936413,79.776649 
	C53.356483,80.765984 53.329006,81.440971 53.301525,82.115959 
	C50.883545,86.815414 50.497883,91.807304 50.971161,97.610184 
	C49.933620,101.086327 47.530384,104.832680 48.548229,106.542564 
	C51.386528,111.310616 49.186722,113.267967 44.391834,115.368965 
	C47.254032,115.970345 48.935623,116.323669 50.756996,116.706360 
	C51.312515,114.906006 51.732601,113.544571 52.233604,111.920891 
	C53.899391,111.920891 55.554359,111.920891 57.209328,111.920891 
	C57.873653,112.740761 58.537975,113.560631 58.682648,114.705406 
	C55.951794,117.011650 53.920948,120.309082 51.483986,120.643044 
	C48.399349,121.065765 44.993778,119.042671 41.704842,118.155159 
	C40.929348,117.945892 39.859791,117.731094 39.286991,118.092224 
	C38.065659,118.862206 37.081207,120.007935 35.999695,120.999695 
	C35.555359,120.999695 35.111023,120.999695 34.282135,120.611893 
	C33.598034,118.149292 33.298481,116.074493 32.998932,113.999695 
	C32.999176,112.610970 32.999420,111.222244 32.999527,109.416916 
M45.278835,106.470825 
	C45.011707,106.724937 44.742077,106.976730 44.491512,107.246239 
	C44.485104,107.253120 44.687855,107.454468 44.793060,107.565140 
	C45.060272,107.310707 45.327480,107.056274 45.278835,106.470825 
z"/>
<path fill="#EFF0F2" opacity="1.000000" stroke="none" 
	d="
M72.723442,138.039566 
	C72.789192,140.442993 72.854942,142.846405 72.471405,145.723114 
	C71.959480,147.041061 71.896843,147.885742 71.834206,148.730423 
	C71.949181,148.994019 71.976608,149.266418 71.397232,149.757080 
	C70.581955,149.982361 70.285950,149.998184 69.939941,149.896576 
	C69.889938,149.779114 69.589409,149.754425 69.589409,149.754425 
	C69.589409,149.754425 70.013954,149.989746 70.039932,150.288574 
	C70.383980,151.059860 70.702049,151.532333 71.020111,152.004807 
	C70.975769,152.748520 70.931427,153.492218 70.515976,154.637512 
	C70.118820,155.698761 70.092766,156.358459 70.066704,157.018143 
	C70.016396,157.766525 69.966080,158.514893 69.610130,159.742401 
	C68.906624,160.509430 68.508759,160.797318 68.082886,161.063690 
	C68.054878,161.042191 67.998779,160.999252 67.741188,160.733734 
	C64.605202,159.998978 61.783100,159.654327 61.570465,155.650864 
	C61.521255,154.724350 59.898712,153.881409 59.000153,153.000000 
	C58.849789,150.853363 58.699421,148.706741 58.220177,145.959534 
	C56.823193,145.298645 55.744549,145.114136 54.689159,145.203674 
	C52.453064,145.393372 50.229095,145.725998 48.000153,146.000000 
	C48.000153,146.000000 48.000000,146.000000 47.952187,145.635254 
	C46.374187,141.886795 44.844006,138.503098 43.580948,135.710083 
	C45.611115,133.669189 47.202213,131.336716 49.408894,130.129028 
	C50.711456,129.416153 53.187717,130.093445 54.756702,130.891525 
	C55.773457,131.408691 56.105278,133.272415 56.743999,134.532776 
	C57.188435,134.465927 57.632874,134.399078 58.077309,134.332214 
	C57.870213,132.325867 57.526043,130.322281 57.485218,128.312546 
	C57.405964,124.410774 55.013680,120.109062 59.280750,116.883194 
	C62.139046,120.059959 64.997345,123.236732 68.263763,126.395966 
	C68.671883,126.378426 68.713516,126.489235 68.713516,126.489235 
	C69.803917,129.412537 70.894325,132.335846 71.789719,135.777802 
	C71.970955,136.877487 72.347198,137.458527 72.723442,138.039566 
z"/>
<path fill="#EEEFF1" opacity="1.000000" stroke="none" 
	d="
M59.207310,116.571548 
	C55.013680,120.109062 57.405964,124.410774 57.485218,128.312546 
	C57.526043,130.322281 57.870213,132.325867 58.077309,134.332214 
	C57.632874,134.399078 57.188435,134.465927 56.743999,134.532776 
	C56.105278,133.272415 55.773457,131.408691 54.756702,130.891525 
	C53.187717,130.093445 50.711456,129.416153 49.408894,130.129028 
	C47.202213,131.336716 45.611115,133.669189 43.580948,135.710083 
	C44.844006,138.503098 46.374187,141.886795 47.952263,145.635254 
	C42.381626,145.380524 42.074795,140.007462 40.380466,136.442032 
	C39.727047,135.067032 42.929626,131.859604 44.370453,129.495132 
	C43.766476,128.050018 43.218990,125.543846 41.794529,123.724197 
	C40.725616,122.358734 38.529114,121.875977 36.417152,120.999969 
	C37.081207,120.007935 38.065659,118.862206 39.286991,118.092224 
	C39.859791,117.731094 40.929348,117.945892 41.704842,118.155159 
	C44.993778,119.042671 48.399349,121.065765 51.483986,120.643044 
	C53.920948,120.309082 55.951794,117.011650 58.536194,115.014755 
	C58.984215,115.419434 59.059044,115.839668 59.207310,116.571548 
z"/>
<path fill="#EEEFF1" opacity="1.000000" stroke="none" 
	d="
M39.786232,38.998905 
	C38.859184,40.230793 37.932140,41.462681 36.635048,42.493530 
	C35.652210,41.757950 35.061451,41.190868 34.393066,40.738461 
	C34.325081,40.692444 33.487015,41.587204 33.516552,41.622871 
	C34.242935,42.500065 35.038368,43.320080 35.821468,44.150307 
	C35.804733,45.110523 35.787994,46.070744 35.736870,47.390305 
	C32.932873,47.451614 30.142672,47.269527 27.406441,46.783573 
	C26.605078,46.641247 25.378841,45.672668 25.336409,45.018627 
	C25.123774,41.741180 25.208920,38.441315 25.329159,35.154438 
	C25.335236,34.988308 26.640324,34.869694 27.866432,35.093544 
	C29.261383,34.638912 30.130484,33.819683 30.999586,33.000458 
	C30.151924,29.616064 29.304262,26.231672 28.244373,21.999941 
	C32.094158,21.999941 36.580776,21.999941 41.660378,22.288338 
	C42.188068,23.524387 42.271946,25.258842 42.035477,25.303677 
	C37.170422,26.226068 36.969536,30.824833 34.872887,34.050423 
	C34.833088,34.069572 34.917610,34.036179 35.312889,34.051731 
	C37.011177,35.733421 38.398705,37.366161 39.786232,38.998905 
z"/>
<path fill="#ECEDEF" opacity="1.000000" stroke="none" 
	d="
M34.997204,33.997883 
	C36.969536,30.824833 37.170422,26.226068 42.035477,25.303677 
	C42.271946,25.258842 42.188068,23.524387 42.126606,22.288404 
	C43.555202,21.150555 45.110558,20.301035 46.796810,19.380016 
	C47.238800,21.423334 47.466614,22.476496 47.843460,23.755283 
	C45.412945,28.793358 42.833393,33.605804 40.020039,38.708580 
	C38.398705,37.366161 37.011177,35.733421 35.311821,34.050339 
	C35.000000,34.000000 34.997204,33.997883 34.997204,33.997883 
z"/>
<path fill="#EEEFF1" opacity="1.000000" stroke="none" 
	d="
M48.000092,146.447556 
	C50.229095,145.725998 52.453064,145.393372 54.689159,145.203674 
	C55.744549,145.114136 56.823193,145.298645 57.945786,145.679489 
	C57.001133,147.410980 55.452274,148.708038 55.130775,150.259460 
	C54.639668,152.629349 55.269653,155.219391 54.877834,157.627136 
	C54.681122,158.835938 53.280048,159.848740 52.423637,160.950195 
	C51.299980,160.012222 49.412338,159.224579 49.192734,158.108673 
	C48.469730,154.434875 48.350906,150.642151 48.000092,146.447556 
z"/>
<path fill="#ECEDEF" opacity="1.000000" stroke="none" 
	d="
M36.367115,17.046953 
	C37.003571,13.737366 37.560226,10.766260 38.382317,7.870508 
	C38.845066,6.240508 39.745689,4.734815 40.449051,3.173122 
	C41.566063,3.679553 43.499264,4.032930 43.628948,4.724507 
	C43.893047,6.132847 43.247360,7.739827 42.861706,9.235350 
	C42.294720,11.434036 41.365406,13.570943 41.060291,15.798523 
	C40.523064,19.720739 39.020752,19.954033 36.367115,17.046953 
z"/>
<path fill="#EEEFF1" opacity="1.000000" stroke="none" 
	d="
M59.000103,153.418503 
	C59.898712,153.881409 61.521255,154.724350 61.570465,155.650864 
	C61.783100,159.654327 64.605202,159.998978 67.475342,160.930359 
	C66.978523,163.262680 66.489975,165.132874 66.043579,167.327515 
	C66.476715,168.142075 66.867699,168.632187 67.258682,169.122284 
	C66.143250,169.607056 65.027817,170.091827 63.540573,170.628998 
	C62.131222,167.145508 61.011894,163.630798 60.087795,160.065506 
	C59.560722,158.031982 59.352081,155.915909 59.000103,153.418503 
z"/>
<path fill="#ECEDEF" opacity="1.000000" stroke="none" 
	d="
M53.127590,175.033691 
	C54.649281,175.012299 55.767178,175.012299 58.650414,175.012299 
	C56.858032,177.989502 56.029652,180.494217 54.296391,181.745178 
	C53.488617,182.328186 49.997143,180.939774 49.355747,179.639267 
	C48.058617,177.009186 50.076103,175.503845 53.127590,175.033691 
z"/>
<path fill="#EEEFF1" opacity="1.000000" stroke="none" 
	d="
M20.782187,128.161255 
	C20.441092,125.858063 20.241516,123.772499 20.516962,121.751694 
	C20.557539,121.454018 23.564234,120.919090 23.959398,121.437859 
	C24.940271,122.725548 26.040545,124.936890 25.528337,126.070084 
	C24.985167,127.271790 22.637032,127.657654 20.782187,128.161255 
z"/>
<path fill="#EEEFF1" opacity="1.000000" stroke="none" 
	d="
M46.999386,166.000000 
	C46.040672,165.559998 45.081963,165.119980 44.061749,164.089981 
	C44.000164,163.332901 44.000080,163.165833 44.000000,162.998779 
	C44.000000,159.888351 44.000000,156.777924 44.000000,153.667496 
	C44.507000,153.634064 45.014000,153.600632 45.521000,153.567200 
	C45.830357,156.186874 46.139717,158.806549 46.724728,162.113098 
	C47.000050,163.866653 46.999718,164.933334 46.999386,166.000000 
z"/>
<path fill="#EEEFF1" opacity="1.000000" stroke="none" 
	d="
M48.345337,172.744049 
	C48.161648,171.828888 48.116787,170.436890 48.582634,170.237381 
	C50.346882,169.481812 52.253498,168.915283 54.155430,168.692245 
	C54.964588,168.597351 55.893551,169.524094 56.768070,169.986542 
	C56.201603,170.639267 55.734760,171.701431 55.050003,171.868042 
	C52.985031,172.370499 50.835339,172.524780 48.345337,172.744049 
z"/>
<path fill="#EAEBED" opacity="1.000000" stroke="none" 
	d="
M12.383741,139.000854 
	C12.009772,137.353653 11.821892,135.666550 12.140119,134.080994 
	C12.255381,133.506714 13.581579,133.175476 14.677750,132.866669 
	C15.000399,133.749847 15.000531,134.499695 15.048752,135.940796 
	C15.731344,137.087845 16.365849,137.543610 17.000351,137.999390 
	C15.590221,138.333298 14.180092,138.667206 12.383741,139.000854 
z"/>
<path fill="#ECEDEF" opacity="1.000000" stroke="none" 
	d="
M100.942299,182.525909 
	C101.752228,182.137329 102.506340,182.095978 103.631424,182.132538 
	C103.935585,182.857925 104.060127,183.614975 103.764442,184.131393 
	C103.014420,185.441284 102.132713,186.691956 101.151596,187.835831 
	C101.005257,188.006454 99.511894,187.336670 99.525558,187.283722 
	C99.909531,185.795547 100.407341,184.336746 100.942299,182.525909 
z"/>
<path fill="#ECEDEF" opacity="1.000000" stroke="none" 
	d="
M47.262836,166.190308 
	C46.999718,164.933334 47.000050,163.866653 47.000572,162.399994 
	C48.311985,163.061356 50.579918,164.008469 50.723316,165.209274 
	C50.975285,167.319229 49.649632,168.793900 47.262836,166.190308 
z"/>
<path fill="#EEEFF1" opacity="1.000000" stroke="none" 
	d="
M32.656212,114.061966 
	C33.298481,116.074493 33.598034,118.149292 33.948883,120.611893 
	C29.277411,118.784790 29.080158,117.980736 32.656212,114.061966 
z"/>
<path fill="#ECEDEF" opacity="1.000000" stroke="none" 
	d="
M31.274214,53.881535 
	C32.391186,51.243362 32.391186,51.243362 36.671741,54.826618 
	C34.084778,54.523155 32.744415,54.365921 31.274214,53.881535 
z"/>
<path fill="#EEEFF1" opacity="1.000000" stroke="none" 
	d="
M13.872648,57.298481 
	C14.750051,56.999912 15.500032,56.999977 16.625008,57.000175 
	C16.266018,58.220490 15.532034,59.440674 14.798049,60.660858 
	C14.447108,59.639610 14.096169,58.618362 13.872648,57.298481 
z"/>
<path fill="#EEEFF1" opacity="1.000000" stroke="none" 
	d="
M28.436367,155.863495 
	C28.864159,154.766296 29.624685,153.737244 30.385212,152.708176 
	C30.840017,153.256119 31.294821,153.804062 31.749624,154.352005 
	C30.756117,154.878540 29.762609,155.405075 28.436367,155.863495 
z"/>
<path fill="#ECEDEF" opacity="1.000000" stroke="none" 
	d="
M30.648928,33.007439 
	C30.130484,33.819683 29.261383,34.638912 28.196104,35.229069 
	C28.766039,34.338139 29.532154,33.676277 30.648928,33.007439 
z"/>
<path fill="#ECEDEF" opacity="1.000000" stroke="none" 
	d="
M85.649521,189.063477 
	C85.670898,188.473038 86.029366,187.858047 86.606682,187.090302 
	C87.357368,187.347855 87.889198,187.758148 88.421028,188.168442 
	C87.609550,188.458603 86.798080,188.748779 85.649521,189.063477 
z"/>
<path fill="#EEEFF1" opacity="1.000000" stroke="none" 
	d="
M22.151634,135.555359 
	C21.159382,135.762756 20.398045,135.762756 19.636705,135.762756 
	C19.717516,135.322220 19.798325,134.881683 19.879135,134.441147 
	C20.713606,134.743423 21.548077,135.045700 22.151634,135.555359 
z"/>
<path fill="#EEEFF1" opacity="1.000000" stroke="none" 
	d="
M11.333457,40.000015 
	C10.999949,40.000034 10.499967,40.000019 10.249975,40.000027 
	C10.000053,39.555759 10.000124,39.111481 10.375498,38.333679 
	C11.500408,38.000149 12.250013,38.000149 12.999619,38.000153 
	C12.999745,38.444454 12.999871,38.888756 13.000008,39.666527 
	C12.555667,40.000000 12.111316,40.000000 11.333457,40.000015 
z"/>
<path fill="#ECEDEF" opacity="1.000000" stroke="none" 
	d="
M99.294235,190.514526 
	C98.964676,191.036346 98.431648,191.348343 97.898636,191.660355 
	C97.778252,191.392853 97.657875,191.125366 97.537491,190.857880 
	C98.055244,190.673492 98.573006,190.489090 99.294235,190.514526 
z"/>
<path fill="#06090A" opacity="1.000000" stroke="none" 
	d="
M116.681534,68.987106 
	C116.673851,69.885849 116.347374,70.672012 116.020897,71.458183 
	C115.689461,70.840202 115.358017,70.222221 115.026917,69.263542 
	C115.472427,68.906746 115.917580,68.890640 116.681534,68.987106 
z"/>
<path fill="#06090A" opacity="1.000000" stroke="none" 
	d="
M150.784485,80.892502 
	C150.313919,80.829712 149.682541,80.487991 149.050934,79.829460 
	C149.575012,79.879631 150.099350,80.246605 150.784485,80.892502 
z"/>
<path fill="#ECEDEF" opacity="1.000000" stroke="none" 
	d="
M16.951895,137.683289 
	C16.365849,137.543610 15.731344,137.087845 15.048866,136.315735 
	C15.635074,136.455322 16.269257,136.911240 16.951895,137.683289 
z"/>
<path fill="#EEEFF1" opacity="1.000000" stroke="none" 
	d="
M39.563210,167.363617 
	C39.672493,166.943680 39.939690,166.689240 40.206894,166.434814 
	C40.312096,166.545471 40.514843,166.746826 40.508423,166.753738 
	C40.257870,167.023254 39.988247,167.275024 39.563210,167.363617 
z"/>
<path fill="#ECEDEF" opacity="1.000000" stroke="none" 
	d="
M43.844570,163.092041 
	C44.000080,163.165833 44.000164,163.332901 44.000046,163.750610 
	C43.896278,163.729248 43.792709,163.457260 43.844570,163.092041 
z"/>
<path fill="#ECEDEF" opacity="1.000000" stroke="none" 
	d="
M58.523697,3.538501 
	C58.478989,3.562933 58.568409,3.514069 58.523697,3.538501 
z"/>
<path fill="#ECEDEF" opacity="1.000000" stroke="none" 
	d="
M43.476234,168.461319 
	C43.520889,168.436798 43.431583,168.485840 43.476234,168.461319 
z"/>
<path fill="#ECEDEF" opacity="1.000000" stroke="none" 
	d="
M46.476257,168.461395 
	C46.520840,168.436935 46.431679,168.485855 46.476257,168.461395 
z"/>
<path fill="#EBECEE" opacity="1.000000" stroke="none" 
	d="
M205.105972,144.961731 
	C205.061142,141.582230 205.306458,138.228622 205.917053,134.351196 
	C206.096573,133.212128 205.910782,132.596863 205.724991,131.981613 
	C205.445908,129.626419 205.166809,127.271217 205.174179,124.463364 
	C205.639023,124.006721 205.817383,124.002747 206.353516,123.920532 
	C207.322189,120.788216 207.933090,117.734146 208.544006,114.680084 
	C211.085754,112.743729 213.174179,110.002350 215.476593,107.454323 
	C216.401947,106.430252 217.699753,105.407173 218.994812,105.109718 
	C225.221985,103.679451 225.282394,103.533142 224.359131,97.330597 
	C224.131516,95.801582 225.091476,94.095779 225.505493,92.471252 
	C231.203461,94.256485 230.945541,89.851280 231.490829,86.153267 
	C233.174179,86.469139 234.585892,86.734047 235.997604,86.998947 
	C233.731461,92.965515 231.312012,98.881981 229.331726,104.941963 
	C228.947006,106.119255 230.258286,107.861267 230.813950,109.332718 
	C231.521301,111.205841 232.255783,113.068718 232.531967,115.708496 
	C226.771683,111.057594 226.213226,114.613312 223.364456,118.468437 
	C220.418518,122.455070 220.087967,125.932594 220.000305,130.549286 
	C219.782196,131.870514 219.563782,132.740433 218.995300,135.004639 
	C217.643799,132.341827 216.891129,130.858856 215.311920,127.747375 
	C213.849670,131.321320 212.826019,133.823273 211.671127,136.645996 
	C213.193253,137.530563 214.327988,138.190018 216.714264,139.576782 
	C212.774704,139.576782 210.268188,139.576782 207.761673,139.576782 
	C207.516464,139.981552 207.271255,140.386322 207.026047,140.791092 
	C208.174789,141.502640 209.326599,142.209412 210.462418,142.941010 
	C210.514832,142.974762 210.478424,143.293640 210.389008,143.371933 
	C210.149368,143.581757 209.858383,143.732956 209.080627,144.066971 
	C208.307388,144.426880 208.117767,144.683716 208.004608,144.997009 
	C207.135101,144.993881 206.265610,144.990753 205.105972,144.961731 
z"/>
<path fill="#E4E5E7" opacity="1.000000" stroke="none" 
	d="
M200.975311,157.083893 
	C201.202423,155.363007 201.741333,153.868088 202.539703,152.155289 
	C204.239288,153.737732 205.679459,155.538071 207.119614,157.338409 
	C206.710693,157.358643 206.301773,157.378891 205.892853,157.399139 
	C204.748245,162.701035 203.603653,168.002945 202.459061,173.304840 
	C202.026474,173.314056 201.593903,173.323273 201.161331,173.332489 
	C201.161331,169.232559 201.151794,165.132584 201.167099,161.032684 
	C201.171738,159.791611 201.245178,158.550781 200.975311,157.083893 
z"/>
<path fill="#E1E2E4" opacity="1.000000" stroke="none" 
	d="
M214.000305,166.250305 
	C218.429794,167.115112 219.155823,169.514740 217.181335,176.513321 
	C214.001129,175.516006 214.001129,175.516006 213.999512,167.447449 
	C213.999390,166.999390 214.000000,166.500000 214.000305,166.250305 
z"/>
<path fill="#F1F2F4" opacity="1.000000" stroke="none" 
	d="
M160.767670,198.736908 
	C160.840347,199.000687 160.672165,199.001358 160.251678,199.003723 
	C158.857788,198.787079 157.716187,198.568771 156.790405,198.167877 
	C158.179749,198.148132 159.353271,198.310974 160.767670,198.736908 
z"/>
<path fill="#ECEDEF" opacity="1.000000" stroke="none" 
	d="
M158.148193,194.118896 
	C158.774475,193.654984 159.571899,193.450760 160.681458,193.275452 
	C160.102188,193.662430 159.210770,194.020493 158.148193,194.118896 
z"/>
<path fill="#F1F2F4" opacity="1.000000" stroke="none" 
	d="
M157.336838,196.996613 
	C157.000610,196.995728 157.000809,196.497864 157.000397,196.248932 
	C157.930252,196.000000 158.860489,196.000000 159.790741,196.000000 
	C159.815857,196.205536 159.840973,196.411072 159.866089,196.616592 
	C159.135086,196.743561 158.404068,196.870529 157.336838,196.996613 
z"/>
<path fill="#E4E5E7" opacity="1.000000" stroke="none" 
	d="
M206.524078,153.538300 
	C206.479401,153.562805 206.568756,153.513794 206.524078,153.538300 
z"/>
<path fill="#E4E5E7" opacity="1.000000" stroke="none" 
	d="
M208.217682,144.882416 
	C208.117767,144.683716 208.307388,144.426880 208.787277,144.112640 
	C208.886017,144.310791 208.695908,144.567139 208.217682,144.882416 
z"/>
<path fill="#DDDEE0" opacity="1.000000" stroke="none" 
	d="
M240.004883,145.000244 
	C241.398392,152.758301 243.594986,160.479340 242.266235,168.362885 
	C241.511414,168.397766 240.756577,168.432632 240.001755,168.467514 
	C240.001755,161.291336 240.001755,154.115173 240.002197,146.220032 
	C240.003403,145.334122 240.004150,145.167175 240.004883,145.000244 
z"/>
<path fill="#E4E5E7" opacity="1.000000" stroke="none" 
	d="
M223.355774,170.014374 
	C227.249069,172.803131 227.076752,178.603714 221.948166,183.713608 
	C222.427063,178.392441 222.789871,174.361069 223.355774,170.014374 
z"/>
<path fill="#DDDEE0" opacity="1.000000" stroke="none" 
	d="
M237.430145,183.095886 
	C237.259674,181.765030 237.307266,180.693192 237.354858,179.621338 
	C237.619354,179.577133 237.883850,179.532928 238.148346,179.488724 
	C238.417511,180.253616 238.924332,181.033600 238.877075,181.778427 
	C238.842239,182.327682 238.084076,182.831055 237.430145,183.095886 
z"/>
<path fill="#E4E5E7" opacity="1.000000" stroke="none" 
	d="
M239.848328,145.092590 
	C240.004150,145.167175 240.003403,145.334122 240.002136,145.751526 
	C239.898361,145.729630 239.795074,145.457275 239.848328,145.092590 
z"/>
<path fill="#ECEDEF" opacity="1.000000" stroke="none" 
	d="
M235.998260,86.582436 
	C234.585892,86.734047 233.174179,86.469139 231.490829,86.153267 
	C230.945541,89.851280 231.203461,94.256485 225.505493,92.471252 
	C225.091476,94.095779 224.131516,95.801582 224.359131,97.330597 
	C225.282394,103.533142 225.221985,103.679451 218.994812,105.109718 
	C217.699753,105.407173 216.401947,106.430252 215.476593,107.454323 
	C213.174179,110.002350 211.085754,112.743729 208.544006,114.680084 
	C207.933090,117.734146 207.322189,120.788216 206.349854,123.584747 
	C205.403732,122.548569 204.819046,121.769936 204.234360,120.991310 
	C200.838852,107.598473 194.346802,95.755745 186.448792,84.521858 
	C178.985001,73.905548 174.837967,62.149315 176.145554,48.940815 
	C176.922562,41.091755 183.915527,34.872688 191.291260,35.250092 
	C199.534119,35.671856 206.225967,41.747482 206.403336,48.998325 
	C206.505447,53.172203 205.264114,56.527695 200.875473,57.967705 
	C199.943451,58.273521 199.065796,58.756290 198.181870,59.195374 
	C194.708542,60.920734 191.628937,63.022373 193.172058,67.596420 
	C194.835739,72.527817 198.615723,71.348305 202.613159,70.662384 
	C203.918533,71.828140 204.832275,72.694687 205.746002,73.561234 
	C206.417953,72.004082 207.089890,70.446930 207.761841,68.889786 
	C210.259521,65.058426 212.757217,61.227074 215.946854,57.195541 
	C217.716385,56.467937 219.516769,56.154030 219.746552,55.376167 
	C220.746689,51.990559 221.289703,48.469913 221.955460,44.707714 
	C221.592743,44.107014 221.273331,43.796921 220.953918,43.486832 
	C220.636154,43.990818 220.318390,44.494801 219.842972,45.356625 
	C217.560822,47.676754 221.393097,52.314121 216.415680,52.995220 
	C216.280029,49.276901 216.144363,45.558586 216.037079,41.420013 
	C217.042709,39.858768 218.487045,38.865921 218.905212,37.547592 
	C219.946503,34.264683 220.520630,30.833601 221.282303,27.462008 
	C221.751602,27.471256 222.220901,27.480507 222.690201,27.489758 
	C223.460052,30.718348 224.229919,33.946938 224.655975,37.654285 
	C224.208725,40.087933 224.105286,42.042820 224.044830,44.359421 
	C224.337952,46.592365 224.588089,48.463604 224.990646,51.475124 
	C227.499481,49.873329 229.750046,48.436436 232.000610,46.999542 
	C234.728180,46.668037 237.455734,46.336533 240.183304,46.005028 
	C240.513824,50.152874 240.844345,54.300720 241.180237,58.516140 
	C232.763947,58.623306 232.763947,58.623306 232.539398,63.090523 
	C233.645477,65.676392 235.927536,68.440376 235.569489,70.804497 
	C235.087128,73.989151 234.117188,77.800446 229.096207,78.330688 
	C224.875748,78.776382 223.837265,83.458992 226.471176,89.304535 
	C229.581009,86.646103 228.938339,79.387482 235.754013,81.739090 
	C236.000046,83.389046 235.999481,84.777489 235.998260,86.582436 
M215.229630,72.976204 
	C213.303635,76.389313 211.377655,79.802414 209.326111,83.438004 
	C212.084869,84.728500 214.773499,85.986191 217.734909,87.371483 
	C217.836029,83.770180 217.926697,80.335533 222.547241,79.385460 
	C223.522247,79.184990 224.902039,76.508537 224.598724,75.372559 
	C223.703247,72.018883 222.057785,68.865463 220.752090,65.744431 
	C219.197540,68.032944 217.587906,70.402542 215.229630,72.976204 
M225.153595,62.981506 
	C224.773605,65.435333 224.393616,67.889168 224.013626,70.342995 
	C224.569336,70.391449 225.125046,70.439903 225.680756,70.488358 
	C227.361893,67.944199 227.995651,65.337280 225.153595,62.981506 
M237.980759,56.670841 
	C237.892136,54.651531 237.803513,52.632225 237.714890,50.612915 
	C237.094116,50.706001 236.473358,50.799088 235.852585,50.892174 
	C236.321304,52.840858 236.790024,54.789539 237.980759,56.670841 
M220.198715,35.239502 
	C220.198715,36.947163 220.198715,38.654819 220.198715,40.362480 
	C220.866333,40.260048 221.533966,40.157612 222.201584,40.055176 
	C221.685532,38.260880 221.169479,36.466587 220.198715,35.239502 
M227.238541,59.120476 
	C228.225281,59.429951 229.212021,59.739429 230.198761,60.048908 
	C230.335403,59.313412 230.472031,58.577911 230.608658,57.842407 
	C229.469238,58.032398 228.329819,58.222393 227.238541,59.120476 
M229.721130,74.529160 
	C229.988266,74.275055 230.257904,74.023277 230.508484,73.753777 
	C230.514877,73.746880 230.312134,73.545517 230.206940,73.434853 
	C229.939728,73.689278 229.672516,73.943695 229.721130,74.529160 
z"/>
<path fill="#EDEEF0" opacity="1.000000" stroke="none" 
	d="
M231.996704,46.649746 
	C229.750046,48.436436 227.499481,49.873329 224.990646,51.475124 
	C224.588089,48.463604 224.337952,46.592365 224.377838,44.360165 
	C225.111893,43.999420 225.555954,43.999634 226.364044,43.956093 
	C228.152054,43.608173 229.576035,43.304008 231.000000,42.999847 
	C231.330933,44.099880 231.661865,45.199913 231.996704,46.649746 
z"/>
<path fill="#ECEDEF" opacity="1.000000" stroke="none" 
	d="
M231.000000,42.599918 
	C229.576035,43.304008 228.152054,43.608173 226.407837,43.592098 
	C226.391724,41.848110 226.695862,40.424362 227.000000,39.000610 
	C227.455826,37.705608 227.911636,36.410599 228.367432,35.115593 
	C229.243607,36.154419 230.119797,37.193241 230.997986,38.616337 
	C231.000000,40.067070 231.000000,41.133533 231.000000,42.599918 
z"/>
<path fill="#EBECEE" opacity="1.000000" stroke="none" 
	d="
M239.253281,28.050594 
	C240.371857,29.199593 241.168594,30.328310 241.721695,31.565918 
	C241.774902,31.684975 240.300278,32.887604 239.558594,32.863342 
	C238.549744,32.830338 237.563705,32.100067 236.567871,31.668804 
	C237.333191,30.466047 238.098495,29.263292 239.253281,28.050594 
z"/>
<path fill="#EBECEE" opacity="1.000000" stroke="none" 
	d="
M226.705078,38.974747 
	C226.695862,40.424362 226.391724,41.848110 226.043793,43.635853 
	C225.555954,43.999634 225.111893,43.999420 224.334839,43.998459 
	C224.105286,42.042820 224.208725,40.087933 224.656082,38.066521 
	C225.470047,38.316296 225.940109,38.632591 226.705078,38.974747 
z"/>
<path fill="#EAEBED" opacity="1.000000" stroke="none" 
	d="
M28.223219,192.492828 
	C28.786907,196.055557 26.659121,194.542435 25.945013,193.810760 
	C24.945810,192.787003 24.510031,191.213333 23.833204,189.874939 
	C24.362686,189.544388 24.892170,189.213837 25.421652,188.883286 
	C26.305977,189.982712 27.190302,191.082138 28.223219,192.492828 
z"/>
<path fill="#ECEDEF" opacity="1.000000" stroke="none" 
	d="
M13.999848,177.000000 
	C13.666386,178.594223 13.569992,180.293457 12.924972,181.749680 
	C12.402431,182.929398 11.220160,183.816925 10.330519,184.834061 
	C9.565386,183.577393 8.121450,182.275497 8.201434,181.075134 
	C8.309163,179.458389 9.591166,177.919891 10.977646,176.302048 
	C12.390680,176.504181 13.195264,176.752090 13.999848,177.000000 
z"/>
<path fill="#ECEDEF" opacity="1.000000" stroke="none" 
	d="
M10.999846,170.000000 
	C10.136563,168.237411 8.963099,166.547836 8.524640,164.685242 
	C8.255374,163.541367 8.802706,161.881866 9.573789,160.934448 
	C10.057382,160.340271 12.419024,160.263870 12.580903,160.602982 
	C13.125653,161.744217 13.285606,163.195831 13.168505,164.490341 
	C13.053320,165.763626 12.421046,166.990158 11.892834,168.832214 
	C11.569325,169.693497 11.312609,169.884430 10.999846,170.000000 
z"/>
<path fill="#ECEDEF" opacity="1.000000" stroke="none" 
	d="
M10.999835,170.428467 
	C11.312609,169.884430 11.569325,169.693497 11.885023,169.213608 
	C16.610460,170.217148 14.935844,173.423203 14.154613,176.648788 
	C13.195264,176.752090 12.390680,176.504181 11.292933,176.128143 
	C10.999788,174.285645 10.999805,172.571289 10.999835,170.428467 
z"/>
<path fill="#EDEEF0" opacity="1.000000" stroke="none" 
	d="
M12.989508,37.631966 
	C12.250013,38.000149 11.500408,38.000149 10.376031,38.000229 
	C10.001015,37.250370 10.000770,36.500435 10.000683,35.375557 
	C10.993691,35.754997 11.986545,36.509388 12.989508,37.631966 
z"/>
<path fill="#E1E2E4" opacity="1.000000" stroke="none" 
	d="
M238.270294,134.010834 
	C238.394714,133.845764 238.520020,133.825836 238.645340,133.805908 
	C238.520630,133.922592 238.395920,134.039276 238.270294,134.010834 
z"/>
<path fill="#E1E2E4" opacity="1.000000" stroke="none" 
	d="
M207.877869,186.240952 
	C209.100754,185.417068 210.028946,184.840607 210.957138,184.264145 
	C211.362183,184.431122 211.767212,184.598099 212.172256,184.765060 
	C211.643417,186.938843 211.235229,189.156525 210.474609,191.245941 
	C210.337616,191.622238 208.749832,191.470383 207.831863,191.562347 
	C207.748962,189.871017 207.666061,188.179688 207.877869,186.240952 
z"/>
<path fill="#EDEEF0" opacity="1.000000" stroke="none" 
	d="
M221.998779,44.998322 
	C221.289703,48.469913 220.746689,51.990559 219.746552,55.376167 
	C219.516769,56.154030 217.716385,56.467937 216.222549,56.996803 
	C215.919266,55.919643 216.032242,54.841042 216.280457,53.378830 
	C221.393097,52.314121 217.560822,47.676754 220.175995,45.357010 
	C221.110703,44.999142 221.554733,44.998730 221.998779,44.998322 
z"/>
<path fill="#EDEEF0" opacity="1.000000" stroke="none" 
	d="
M207.401947,68.889603 
	C207.089890,70.446930 206.417953,72.004082 205.746002,73.561234 
	C204.832275,72.694687 203.918533,71.828140 203.002533,70.592705 
	C204.347549,69.779022 205.694809,69.334221 207.401947,68.889603 
z"/>
<path fill="#E6E7E9" opacity="1.000000" stroke="none" 
	d="
M204.193176,121.312691 
	C204.819046,121.769936 205.403732,122.548569 205.992065,123.662994 
	C205.817383,124.002747 205.639023,124.006721 205.193085,124.016159 
	C204.667679,123.225761 204.409851,122.429916 204.193176,121.312691 
z"/>
<path fill="#E6E7E9" opacity="1.000000" stroke="none" 
	d="
M205.596100,132.230530 
	C205.910782,132.596863 206.096573,133.212128 206.058411,133.945892 
	C205.712036,133.536087 205.589615,133.007767 205.596100,132.230530 
z"/>
<path fill="#060709" opacity="1.000000" stroke="none" 
	d="
M76.523537,24.537893 
	C76.479546,24.561911 76.567528,24.513876 76.523537,24.537893 
z"/>
<path fill="#F1F2F4" opacity="1.000000" stroke="none" 
	d="
M57.157272,111.536469 
	C55.554359,111.920891 53.899391,111.920891 52.233604,111.920891 
	C51.732601,113.544571 51.312515,114.906006 50.756996,116.706360 
	C48.935623,116.323669 47.254032,115.970345 44.391834,115.368965 
	C49.186722,113.267967 51.386528,111.310616 48.548229,106.542564 
	C47.530384,104.832680 49.933620,101.086327 51.102776,98.041603 
	C53.321793,102.259880 55.213505,106.705963 57.157272,111.536469 
z"/>
<path fill="#EFF0F2" opacity="1.000000" stroke="none" 
	d="
M66.001427,167.003052 
	C66.489975,165.132874 66.978523,163.262680 67.732925,161.195877 
	C67.998779,160.999252 68.054878,161.042191 68.066078,161.387955 
	C68.391571,162.490906 68.705856,163.248093 69.020142,164.005280 
	C68.972816,164.762848 68.925499,165.520432 68.417671,166.634445 
	C67.305252,166.994949 66.653343,166.998993 66.001427,167.003052 
z"/>
<path fill="#EDEEF0" opacity="1.000000" stroke="none" 
	d="
M35.937408,44.100430 
	C35.038368,43.320080 34.242935,42.500065 33.516552,41.622871 
	C33.487015,41.587204 34.325081,40.692444 34.393066,40.738461 
	C35.061451,41.190868 35.652210,41.757950 36.329216,42.737434 
	C36.397495,43.487869 36.284134,43.777260 35.937408,44.100430 
z"/>
<path fill="#D3D4D6" opacity="1.000000" stroke="none" 
	d="
M69.232391,163.725525 
	C68.705856,163.248093 68.391571,162.490906 68.094086,161.409454 
	C68.508759,160.797318 68.906624,160.509430 69.524635,160.108917 
	C69.644730,161.146118 69.544685,162.295944 69.232391,163.725525 
z"/>
<path fill="#06090A" opacity="1.000000" stroke="none" 
	d="
M72.491356,186.645767 
	C72.910881,186.170013 73.457970,185.951263 74.005066,185.732529 
	C74.099586,186.288895 74.194107,186.845261 74.288628,187.401627 
	C73.732056,187.235336 73.175491,187.069061 72.491356,186.645767 
z"/>
<path fill="#EDEEF0" opacity="1.000000" stroke="none" 
	d="
M66.043579,167.327515 
	C66.653343,166.998993 67.305252,166.994949 68.283173,166.991226 
	C68.361313,167.674652 68.113457,168.357742 67.562141,169.081558 
	C66.867699,168.632187 66.476715,168.142075 66.043579,167.327515 
z"/>
<path fill="#06090A" opacity="1.000000" stroke="none" 
	d="
M68.615021,126.362030 
	C68.899178,125.384811 69.240196,124.423973 69.581215,123.463142 
	C69.952316,123.646957 70.323418,123.830772 70.694519,124.014580 
	C70.258263,124.729790 69.822006,125.444992 69.049637,126.324715 
	C68.713516,126.489235 68.671883,126.378426 68.615021,126.362030 
z"/>
<path fill="#06090A" opacity="1.000000" stroke="none" 
	d="
M61.726669,106.885788 
	C61.315311,107.244560 60.630627,107.489128 59.945938,107.733688 
	C59.862400,107.346024 59.778862,106.958366 59.695320,106.570709 
	C60.281326,106.637665 60.867329,106.704620 61.726669,106.885788 
z"/>
<path fill="#D3D4D6" opacity="1.000000" stroke="none" 
	d="
M70.294716,156.834930 
	C70.092766,156.358459 70.118820,155.698761 70.414032,154.996368 
	C70.629707,155.519669 70.576218,156.085693 70.294716,156.834930 
z"/>
<path fill="#EEEFF1" opacity="1.000000" stroke="none" 
	d="
M53.533115,81.929626 
	C53.329006,81.440971 53.356483,80.765984 53.683456,80.045486 
	C53.910206,80.581078 53.837456,81.162186 53.533115,81.929626 
z"/>
<path fill="#D3D4D6" opacity="1.000000" stroke="none" 
	d="
M72.809372,137.754990 
	C72.347198,137.458527 71.970955,136.877487 71.811234,136.143951 
	C72.316940,136.484451 72.606125,136.977432 72.809372,137.754990 
z"/>
<path fill="#06090A" opacity="1.000000" stroke="none" 
	d="
M91.955101,35.566696 
	C91.729622,35.195526 91.731934,34.826817 91.760834,34.460205 
	C91.761635,34.450012 92.047371,34.462280 92.200226,34.464077 
	C92.195679,34.832535 92.191132,35.200989 91.955101,35.566696 
z"/>
<path fill="#06090A" opacity="1.000000" stroke="none" 
	d="
M77.636230,145.563385 
	C78.056236,145.672684 78.310699,145.939865 78.565163,146.207062 
	C78.454491,146.312271 78.253136,146.515015 78.246216,146.508575 
	C77.976646,146.258041 77.724831,145.988403 77.636230,145.563385 
z"/>
<path fill="#D3D4D6" opacity="1.000000" stroke="none" 
	d="
M69.989944,150.014023 
	C70.285950,149.998184 70.581955,149.982361 71.322311,149.950745 
	C71.662964,150.549500 71.559265,151.164062 71.237839,151.891708 
	C70.702049,151.532333 70.383980,151.059860 70.033043,150.293762 
	C70.000168,150.000137 69.989944,150.014023 69.989944,150.014023 
z"/>
<path fill="#06090A" opacity="1.000000" stroke="none" 
	d="
M71.563339,165.363647 
	C71.672630,164.943588 71.939842,164.689102 72.207062,164.434601 
	C72.312286,164.545303 72.515068,164.746658 72.508636,164.753571 
	C72.258064,165.023178 71.988411,165.275055 71.563339,165.363647 
z"/>
<path fill="#D3D4D6" opacity="1.000000" stroke="none" 
	d="
M72.022461,148.490417 
	C71.896843,147.885742 71.959480,147.041061 72.367561,146.077026 
	C72.545578,146.721924 72.378143,147.486160 72.022461,148.490417 
z"/>
<path fill="#ECEDEF" opacity="1.000000" stroke="none" 
	d="
M48.773251,73.748016 
	C48.561493,76.288399 48.124516,78.578316 47.343773,80.934113 
	C44.030003,76.295792 44.411865,74.445122 48.773251,73.748016 
z"/>
<path fill="#F1F2F4" opacity="1.000000" stroke="none" 
	d="
M45.436760,106.636337 
	C45.327480,107.056274 45.060272,107.310707 44.793060,107.565140 
	C44.687855,107.454468 44.485104,107.253120 44.491512,107.246239 
	C44.742077,106.976730 45.011707,106.724937 45.436760,106.636337 
z"/>
<path fill="#EEEFF1" opacity="1.000000" stroke="none" 
	d="
M53.296158,63.546410 
	C53.139904,64.342682 52.926823,65.142738 52.713741,65.942795 
	C52.520634,65.885674 52.327526,65.828545 52.134418,65.771423 
	C52.334522,65.161087 52.534626,64.550751 52.963043,63.693642 
	C53.191357,63.446869 53.239326,63.550190 53.296158,63.546410 
z"/>
<path fill="#D3D4D6" opacity="1.000000" stroke="none" 
	d="
M70.007065,149.994934 
	C70.013954,149.989746 69.589409,149.754425 69.589409,149.754425 
	C69.589409,149.754425 69.889938,149.779114 69.939941,149.896576 
	C69.989944,150.014023 70.000168,150.000137 70.007065,149.994934 
z"/>
<path fill="#ECEDEF" opacity="1.000000" stroke="none" 
	d="
M35.001068,34.001392 
	C34.917610,34.036179 34.833088,34.069572 34.872887,34.050423 
	C34.997204,33.997883 35.000000,34.000000 35.001068,34.001392 
z"/>
<path fill="#EDEEF0" opacity="1.000000" stroke="none" 
	d="
M215.603958,72.874168 
	C217.587906,70.402542 219.197540,68.032944 220.752090,65.744431 
	C222.057785,68.865463 223.703247,72.018883 224.598724,75.372559 
	C224.902039,76.508537 223.522247,79.184990 222.547241,79.385460 
	C217.926697,80.335533 217.836029,83.770180 217.734909,87.371483 
	C214.773499,85.986191 212.084869,84.728500 209.326111,83.438004 
	C211.377655,79.802414 213.303635,76.389313 215.603958,72.874168 
z"/>
<path fill="#EBECEE" opacity="1.000000" stroke="none" 
	d="
M225.452042,62.769684 
	C227.995651,65.337280 227.361893,67.944199 225.680756,70.488358 
	C225.125046,70.439903 224.569336,70.391449 224.013626,70.342995 
	C224.393616,67.889168 224.773605,65.435333 225.452042,62.769684 
z"/>
<path fill="#EDEEF0" opacity="1.000000" stroke="none" 
	d="
M237.619751,56.704533 
	C236.790024,54.789539 236.321304,52.840858 235.852585,50.892174 
	C236.473358,50.799088 237.094116,50.706001 237.714890,50.612915 
	C237.803513,52.632225 237.892136,54.651531 237.619751,56.704533 
z"/>
<path fill="#EBECEE" opacity="1.000000" stroke="none" 
	d="
M220.426056,34.955894 
	C221.169479,36.466587 221.685532,38.260880 222.201584,40.055176 
	C221.533966,40.157612 220.866333,40.260048 220.198715,40.362480 
	C220.198715,38.654819 220.198715,36.947163 220.426056,34.955894 
z"/>
<path fill="#EDEEF0" opacity="1.000000" stroke="none" 
	d="
M227.214478,58.766430 
	C228.329819,58.222393 229.469238,58.032398 230.608658,57.842407 
	C230.472031,58.577911 230.335403,59.313412 230.198761,60.048904 
	C229.212021,59.739429 228.225281,59.429951 227.214478,58.766430 
z"/>
<path fill="#EDEEF0" opacity="1.000000" stroke="none" 
	d="
M229.563217,74.363640 
	C229.672516,73.943695 229.939728,73.689278 230.206940,73.434853 
	C230.312134,73.545517 230.514877,73.746880 230.508484,73.753777 
	C230.257904,74.023277 229.988266,74.275055 229.563217,74.363640 
z"/>
<path fill="#EBECEE" opacity="1.000000" stroke="none" 
	d="
M221.955460,44.707714 
	C221.554733,44.998730 221.110703,44.999142 220.333633,44.999168 
	C220.318390,44.494801 220.636154,43.990818 220.953918,43.486832 
	C221.273331,43.796921 221.592743,44.107014 221.955460,44.707714 
z"/>
</svg>