<svg version="1.1" id="Layer_1" xmlns="http://www.w3.org/2000/svg" xmlns:xlink="http://www.w3.org/1999/xlink" x="0px" y="0px"
	 width="100%" viewBox="0 0 225 225" enable-background="new 0 0 225 225" xml:space="preserve">
<path fill="#FDFDFD" opacity="1.000000" stroke="none" 
	d="
M226.000000,28.000000 
	C226.000000,93.948586 226.000000,159.897171 226.000000,225.922882 
	C151.109909,225.922882 76.219719,225.922882 1.000000,225.922882 
	C1.000000,179.979630 1.000000,133.958481 1.341204,87.612701 
	C3.585563,95.920372 5.004014,98.004211 10.450752,97.902351 
	C14.171037,97.832787 16.268862,99.272682 18.038887,102.235825 
	C19.372692,104.468704 21.143291,106.440659 22.912764,108.784828 
	C19.358271,110.889908 15.936131,112.916595 12.513993,114.943283 
	C12.630577,115.432755 12.747162,115.922234 12.863747,116.411705 
	C16.080120,116.411705 19.296494,116.411705 22.655910,116.592773 
	C22.798956,116.773834 23.114229,117.110863 22.976692,117.429443 
	C19.562214,119.326157 16.285271,120.904282 12.763972,122.459648 
	C12.680691,122.877251 12.841763,123.317612 13.333229,123.912323 
	C14.384959,124.194206 15.106299,124.321724 17.196238,124.691185 
	C12.826279,127.892853 9.439417,130.374252 5.763237,133.067612 
	C10.088611,135.893494 8.745888,139.766525 7.740243,143.889130 
	C6.566004,148.702881 5.769871,153.652740 5.323620,158.589996 
	C4.646113,166.085831 5.696765,167.485001 13.230123,169.067810 
	C27.440750,172.053574 41.702217,174.797348 56.099087,177.672958 
	C55.686646,179.706833 54.961945,181.645721 55.024307,183.558960 
	C55.064575,184.794189 56.258270,185.991837 56.928452,187.145721 
	C56.921848,187.085129 57.051212,187.465103 56.610909,187.160126 
	C53.007492,191.007843 55.372654,194.745590 58.297073,196.892883 
	C62.414326,199.916092 67.272186,202.818542 72.177200,203.665482 
	C78.927299,204.831024 86.469017,205.551666 92.841881,203.663101 
	C100.018143,201.536484 109.958504,200.315720 108.917198,186.727219 
	C113.378723,190.098221 116.412033,192.390106 119.575272,194.937286 
	C125.962868,197.235413 132.220535,199.278244 138.513550,201.300323 
	C138.548904,201.279587 138.494980,201.314255 138.758209,201.633545 
	C140.573242,202.868881 142.033600,204.041733 143.700256,204.635422 
	C145.739777,205.361893 147.952164,205.603104 150.116196,206.044006 
	C150.142593,206.033844 150.441711,206.062012 150.232391,206.481949 
	C154.802567,207.897400 159.546951,209.465363 164.369400,209.761475 
	C172.725662,210.274521 181.130692,210.045898 189.513794,209.969391 
	C190.194443,209.963165 190.863937,208.737106 191.521851,208.046448 
	C191.505066,208.015030 191.471207,208.077728 191.518646,208.508484 
	C192.240463,208.634811 192.914856,208.330399 193.553864,208.018250 
	C193.518463,208.010529 193.516876,208.082977 193.896790,208.115082 
	C194.897141,207.421127 195.517563,206.695068 196.492569,206.001801 
	C197.899277,205.026093 198.951416,204.017578 200.245239,202.686218 
	C202.624954,200.913025 204.762985,199.462708 206.863678,198.004272 
	C207.021851,197.940186 207.088684,197.803467 207.276688,197.372223 
	C207.683243,196.768768 207.839966,196.379105 208.257141,195.741959 
	C209.289230,192.661407 210.060883,189.828339 210.935196,186.561951 
	C211.327835,183.321548 211.790527,180.519135 211.865982,177.706299 
	C211.970505,173.809448 211.783905,169.904785 211.682251,165.723145 
	C211.115585,164.942520 210.588623,164.442200 210.030090,163.608276 
	C209.689743,162.730743 209.381012,162.186813 209.062347,161.657562 
	C209.052399,161.672256 209.085648,161.671936 209.003021,161.292938 
	C207.898865,159.084305 206.877350,157.254684 205.619431,155.001633 
	C210.927185,154.160675 215.684418,153.587677 220.340256,152.556686 
	C221.698105,152.255981 223.367599,150.838577 223.765411,149.577057 
	C224.050522,148.673019 222.733154,146.757904 221.640411,146.034302 
	C219.600632,144.683578 217.237457,143.790054 214.948273,142.854462 
	C211.588074,141.481171 208.174652,140.238068 204.425873,138.802383 
	C205.628372,137.773209 206.391495,137.120087 207.114746,136.501083 
	C204.944672,134.748520 202.996918,133.175507 201.049179,131.602509 
	C201.229248,131.301117 201.409302,130.999725 201.589371,130.698334 
	C202.859039,131.064316 204.128708,131.430283 205.725800,131.890640 
	C204.454926,129.572708 202.897675,127.704742 202.395309,125.586578 
	C201.655746,122.468369 200.847107,118.929596 201.695984,116.049889 
	C202.142593,114.534805 206.046997,114.039009 208.565887,113.011215 
	C206.360611,109.342354 203.962143,105.352074 201.231995,100.809982 
	C204.160797,101.747612 206.284073,102.427361 208.407364,103.107109 
	C208.514816,102.840393 208.622284,102.573685 208.729752,102.306969 
	C207.456223,100.859718 206.182709,99.412460 204.933395,97.992722 
	C207.557266,96.435532 209.878525,95.057945 211.252487,94.242546 
	C207.462341,91.790154 204.045639,89.579407 200.837646,87.057930 
	C201.154938,86.522530 201.263550,86.297859 201.734009,86.173431 
	C208.694397,91.257965 209.237839,91.346664 212.774994,87.825943 
	C211.174683,87.403809 209.688263,87.011711 206.940079,86.286781 
	C209.337997,84.643959 210.904953,83.570427 213.229568,81.977821 
	C210.631134,81.118202 209.340866,80.691353 207.718033,80.154488 
	C209.174805,78.380104 210.328064,76.975426 212.001938,74.936600 
	C209.933914,75.353203 208.739395,75.593834 207.208069,75.902321 
	C209.120712,73.217819 210.779144,70.890137 212.502075,68.471909 
	C208.872330,68.944778 205.687958,69.359634 202.503571,69.774490 
	C202.530243,69.466751 202.556900,69.159019 202.583557,68.851288 
	C206.049210,67.356102 209.514877,65.860916 212.980530,64.365730 
	C212.779999,63.905472 212.579468,63.445213 212.378937,62.984955 
	C210.672501,62.984955 208.966064,62.984955 207.659592,62.984955 
	C209.660187,54.149982 211.931839,45.676567 213.397034,37.065926 
	C214.283539,31.856083 215.886475,28.605011 221.822800,29.110020 
	C223.173935,29.224964 224.605469,28.395033 226.000000,28.000000 
z"/>
<path fill="#FDFDFD" opacity="1.000000" stroke="none" 
	d="
M1.000000,78.000000 
	C1.000000,52.367931 1.000000,26.735863 1.000000,1.051896 
	C75.999992,1.051896 151.000000,1.051896 226.000000,1.051896 
	C226.000000,8.415670 226.000000,15.739099 225.644379,23.531960 
	C223.199646,21.910580 221.110550,19.819767 219.003265,17.453026 
	C216.826904,16.096268 214.354599,12.425797 212.620483,17.998028 
	C210.502960,18.341682 208.757004,18.591387 206.998032,18.486282 
	C205.969330,17.274601 205.059860,15.892565 203.917587,15.661515 
	C200.771515,15.025156 189.710510,21.686867 187.660339,24.896976 
	C184.843033,26.579742 182.395020,28.265829 179.986053,29.951267 
	C180.025116,29.950619 179.989655,29.880840 179.635132,29.868626 
	C175.602875,32.868935 171.925125,35.881454 168.135300,38.985790 
	C168.032928,37.699409 167.933395,36.448765 167.735062,33.956749 
	C166.171951,36.720989 165.238846,38.371109 164.444214,39.776344 
	C163.274445,39.589241 162.271088,39.428753 161.036011,39.065109 
	C160.632965,38.748524 160.461670,38.635098 160.310867,38.174339 
	C160.753601,36.656212 161.175827,35.485420 161.598053,34.314632 
	C161.150452,34.155392 160.702850,33.996155 160.255249,33.836914 
	C158.507828,37.618694 156.760391,41.400475 155.012970,45.182255 
	C154.710602,45.042774 154.408249,44.903297 154.105881,44.763817 
	C154.105881,42.900707 154.105881,41.037598 154.105881,39.174484 
	C152.870331,40.532780 152.214752,41.989048 151.844238,43.514561 
	C151.262329,45.910412 150.176193,46.953686 147.414612,46.987858 
	C131.613968,47.183392 115.816566,47.638901 99.651695,48.002083 
	C98.189972,48.604008 97.094627,49.209991 95.564865,49.896545 
	C90.604141,49.037670 86.077827,48.098217 81.272354,47.100822 
	C81.273125,47.098145 81.036713,47.923832 80.737434,48.969067 
	C79.256203,48.176338 77.968979,47.487442 75.172668,45.990917 
	C76.247231,49.476234 76.874039,51.509270 77.320358,53.705772 
	C77.139870,53.869244 76.792297,54.210407 76.441513,54.123215 
	C74.640381,52.726917 73.190018,51.417809 71.739662,50.108700 
	C71.699318,50.526188 71.658966,50.943676 71.618622,51.361164 
	C68.108261,51.203045 64.597908,51.044922 60.541576,50.862206 
	C61.632584,52.201630 62.111229,52.789261 61.687603,52.269180 
	C58.025063,54.643562 53.835396,56.395977 50.983944,59.413116 
	C45.412952,65.307816 40.957466,72.261673 35.348312,78.113930 
	C30.243021,83.440483 24.535648,88.343925 18.471172,92.532593 
	C15.412563,94.645142 10.974400,94.760330 7.160030,95.778664 
	C7.167639,95.483376 7.175249,95.188087 7.182858,94.892792 
	C12.635668,90.443428 18.088478,85.994057 23.791004,81.370529 
	C24.321489,80.554146 24.602255,79.911934 25.254089,78.420959 
	C23.769409,79.388046 23.108068,79.818825 22.142284,80.424889 
	C20.978716,80.606178 20.054842,80.821472 19.272465,80.579422 
	C16.805965,79.816338 14.392535,78.881729 11.917984,77.657562 
	C11.023471,77.470398 10.169541,77.639160 8.979665,77.777145 
	C7.768122,77.678909 6.892527,77.611450 6.016933,77.543991 
	C6.340190,77.016548 6.663447,76.489113 7.334438,75.914719 
	C14.272605,72.262230 20.863037,68.656685 27.453468,65.051147 
	C27.681526,65.365891 27.909584,65.680634 28.137640,65.995377 
	C27.809328,66.828903 27.481016,67.662437 27.145319,68.514717 
	C37.794857,69.075294 37.794857,69.075294 43.854061,60.576366 
	C44.122158,56.511204 44.291832,53.938469 44.441868,51.663452 
	C32.090805,59.086823 19.463938,66.675957 6.495992,74.375328 
	C4.436608,75.657043 2.718304,76.828522 1.000000,78.000000 
M73.759270,44.047871 
	C73.759270,44.047871 73.995285,44.073532 73.995285,44.073532 
	C73.995285,44.073532 73.688545,44.219536 74.335281,44.801228 
	C74.851830,45.633419 75.368370,46.465611 75.884911,47.297802 
	C76.247314,46.878178 76.609711,46.458549 76.972107,46.038921 
	C75.895859,45.468666 74.819611,44.898407 73.759270,44.047871 
M62.117344,47.049225 
	C63.699730,46.475967 65.282120,45.902706 68.322334,44.801311 
	C64.120750,43.409069 61.213238,42.445637 57.608685,41.251232 
	C58.340694,43.028149 58.639904,43.754471 58.834293,44.226337 
	C54.803150,45.034058 50.937283,45.808659 47.071415,46.583263 
	C47.143112,46.974987 47.214809,47.366711 47.286503,47.758434 
	C51.930157,47.536934 56.573807,47.315434 62.117344,47.049225 
M71.252029,49.270195 
	C70.656517,48.941875 70.060997,48.613552 69.465485,48.285233 
	C69.347748,48.524162 69.230003,48.763092 69.112267,49.002022 
	C69.872864,49.309322 70.633469,49.616627 71.252029,49.270195 
z"/>
<path fill="#070707" opacity="1.000000" stroke="none" 
	d="
M23.541288,81.544693 
	C18.088478,85.994057 12.635668,90.443428 7.182858,94.892792 
	C7.175249,95.188087 7.167639,95.483376 7.160030,95.778664 
	C10.974400,94.760330 15.412563,94.645142 18.471172,92.532593 
	C24.535648,88.343925 30.243021,83.440483 35.348312,78.113930 
	C40.957466,72.261673 45.412952,65.307816 50.983944,59.413116 
	C53.835396,56.395977 58.025063,54.643562 61.687603,52.269180 
	C62.111229,52.789261 61.632584,52.201630 60.541576,50.862206 
	C64.597908,51.044922 68.108261,51.203045 71.618622,51.361164 
	C71.658966,50.943676 71.699318,50.526188 71.739662,50.108700 
	C73.190018,51.417809 74.640381,52.726917 76.554337,54.389072 
	C77.279289,54.735287 77.540634,54.728455 77.801987,54.721619 
	C77.701607,54.328514 77.601227,53.935410 77.500847,53.542305 
	C76.874039,51.509270 76.247231,49.476234 75.172668,45.990917 
	C77.968979,47.487442 79.256203,48.176338 80.737434,48.969067 
	C81.036713,47.923832 81.273125,47.098145 81.272354,47.100822 
	C86.077827,48.098217 90.604141,49.037670 95.899010,50.068531 
	C93.838448,50.865871 91.009338,51.571800 87.632248,52.414467 
	C89.944984,55.105160 92.121773,57.637676 93.889999,59.694874 
	C90.797874,62.811188 88.020454,65.610329 85.156464,68.496727 
	C85.948128,68.802528 86.691147,69.089539 87.501923,69.402725 
	C86.159149,70.408951 84.865929,71.378052 83.118736,72.687340 
	C84.747536,72.862061 85.788467,72.973717 86.874748,73.090240 
	C84.671623,75.987625 82.594383,78.719452 80.263031,81.611519 
	C79.789314,82.080956 79.569717,82.390144 79.350121,82.699326 
	C79.967247,82.536491 80.584366,82.373657 81.549408,82.164093 
	C81.955391,83.068932 82.013451,84.020508 81.849380,85.113434 
	C82.604782,85.817123 83.582306,86.379463 84.668579,87.291893 
	C84.533928,89.300362 84.290527,90.958755 84.030907,92.727715 
	C88.133141,91.880608 85.153679,95.319565 85.323387,97.190598 
	C86.348312,96.764664 86.939468,96.518990 87.643288,96.480446 
	C87.755959,96.687576 88.056702,97.050835 88.035957,97.407043 
	C87.540550,99.156509 86.999092,100.533913 86.660332,101.959473 
	C86.607048,102.183723 87.472092,102.626190 88.220573,102.977966 
	C88.734085,102.991806 88.939545,102.995453 89.233276,103.368332 
	C89.279938,104.420486 89.238304,105.103409 89.178482,106.084831 
	C90.244446,105.218376 90.969536,104.629005 91.743683,103.999748 
	C92.154427,105.416351 92.523140,106.688019 93.255127,107.970428 
	C93.860672,107.982224 94.102951,107.983276 94.339645,108.366547 
	C94.282188,109.480827 94.230316,110.212875 94.063522,112.566864 
	C97.856384,107.628906 100.619827,103.789055 103.636215,100.159416 
	C108.464439,94.349609 113.931969,89.476875 122.267487,89.401138 
	C122.827370,89.476601 123.208458,89.365067 123.589539,89.253525 
	C123.097412,88.835625 122.605286,88.417732 121.841248,87.703308 
	C118.489784,87.646637 115.410217,87.886497 112.085678,88.044098 
	C111.575462,87.747383 111.310234,87.532944 111.330032,87.071579 
	C115.342247,85.402153 119.069427,83.979630 122.895668,82.519302 
	C121.819344,81.704956 120.908478,81.015808 119.446060,79.909355 
	C121.402481,79.804642 122.467949,79.747612 124.285378,79.650337 
	C122.149910,77.955315 120.550896,76.686096 118.951881,75.416885 
	C122.033905,75.253769 124.807724,75.904152 127.406151,76.978653 
	C140.933395,82.572418 144.754745,103.552979 140.381393,114.700897 
	C137.483795,122.087067 132.290619,128.650970 127.640839,135.241302 
	C124.968643,139.028717 120.656349,139.930756 116.011795,139.248230 
	C107.956581,138.064545 104.486725,132.255859 101.713890,125.585564 
	C98.198120,117.128090 92.958427,115.536285 86.849174,122.404243 
	C81.255615,128.692474 77.337242,136.470840 72.368103,144.070663 
	C74.690025,144.582535 75.451752,144.750458 77.198326,145.135483 
	C74.119904,147.280792 71.810066,148.890503 69.417404,150.557907 
	C72.506104,151.005936 75.235374,151.401810 77.964638,151.797684 
	C77.923027,152.170242 77.881409,152.542801 77.839790,152.915359 
	C69.707222,154.974457 61.574657,157.033539 52.578224,159.311356 
	C53.928242,157.762009 54.537445,157.062851 55.126152,156.387222 
	C51.150352,155.663269 47.455959,154.990540 42.792793,154.141418 
	C47.446030,151.707245 50.863182,149.919678 54.280334,148.132111 
	C54.055031,147.631912 53.829727,147.131714 53.604424,146.631500 
	C50.822361,147.177704 48.040298,147.723907 44.027283,148.511780 
	C52.158493,141.744812 54.252533,138.646423 54.189228,133.875076 
	C48.305065,138.341858 43.514397,145.127457 33.958241,142.626190 
	C35.905521,141.286423 37.169777,140.416580 38.292019,139.644455 
	C35.023888,138.811005 31.959118,138.029419 28.894348,137.247833 
	C41.863892,133.013748 52.168392,126.404266 58.556511,114.139221 
	C58.707687,113.409126 58.623821,112.846573 58.539955,112.284019 
	C58.181118,112.553696 57.822285,112.823364 57.136909,113.219254 
	C51.881180,117.653030 47.110638,122.164764 41.950089,126.174561 
	C39.666374,127.949020 36.592937,128.707123 33.913094,129.945160 
	C33.948185,129.963715 34.013149,130.009354 34.009773,129.699768 
	C34.457253,128.710220 34.908108,128.030243 35.608948,127.169296 
	C35.423073,126.731842 34.987221,126.475334 34.210701,126.322220 
	C29.631878,129.035553 25.393723,131.645493 21.099314,134.290070 
	C22.431740,135.176849 23.736391,136.045135 25.819031,137.431198 
	C23.355459,137.921539 21.766281,138.237854 20.177101,138.554153 
	C20.161098,138.871429 20.145096,139.188690 20.129091,139.505951 
	C23.184164,140.855423 26.239239,142.204895 29.909943,143.826309 
	C26.732183,146.653091 23.885361,149.185501 20.457058,152.235153 
	C23.675892,152.013824 25.988621,151.854797 28.301348,151.695770 
	C28.498343,152.078232 28.695337,152.460693 28.892334,152.843155 
	C26.777500,154.524231 24.662666,156.205307 22.547832,157.886383 
	C22.822651,158.302017 23.097471,158.717636 23.372292,159.133270 
	C26.406416,158.110443 29.440542,157.087616 32.758129,156.442337 
	C33.259022,157.047440 33.476452,157.275009 33.621246,157.870987 
	C32.991768,160.177963 32.434925,162.116501 31.676231,164.223633 
	C31.558123,164.782288 31.641863,165.172379 31.725605,165.562469 
	C32.150364,165.072952 32.575127,164.583435 33.286457,163.932526 
	C34.793522,162.515289 36.014019,161.259430 37.453751,160.009460 
	C37.672985,160.015350 38.111187,160.034607 38.141792,160.429504 
	C38.781879,161.577057 39.391354,162.329742 40.033165,163.443512 
	C40.102646,164.043457 40.139801,164.282288 40.157303,164.850739 
	C39.735386,169.545044 42.847061,164.975952 43.694641,166.833649 
	C43.548931,167.572998 43.343807,168.613800 43.097012,169.866043 
	C50.207424,169.530289 56.930351,172.994049 63.569027,170.682571 
	C59.681969,175.884323 56.718498,180.913910 56.935059,187.206314 
	C56.258270,185.991837 55.064575,184.794189 55.024307,183.558960 
	C54.961945,181.645721 55.686646,179.706833 56.099087,177.672958 
	C41.702217,174.797348 27.440750,172.053574 13.230123,169.067810 
	C5.696765,167.485001 4.646113,166.085831 5.323620,158.589996 
	C5.769871,153.652740 6.566004,148.702881 7.740243,143.889130 
	C8.745888,139.766525 10.088611,135.893494 5.763237,133.067612 
	C9.439417,130.374252 12.826279,127.892853 17.196238,124.691185 
	C15.106299,124.321724 14.384959,124.194206 13.333523,123.699730 
	C13.004432,123.049324 13.006065,122.765862 13.008327,122.482407 
	C16.285271,120.904282 19.562214,119.326157 23.266617,117.367157 
	C23.728163,116.748749 23.762251,116.511215 23.796341,116.273682 
	C23.368515,116.319687 22.940691,116.365692 22.512867,116.411697 
	C19.296494,116.411705 16.080120,116.411705 12.863747,116.411705 
	C12.747162,115.922234 12.630577,115.432755 12.513993,114.943283 
	C15.936131,112.916595 19.358271,110.889908 22.912764,108.784828 
	C21.143291,106.440659 19.372692,104.468704 18.038887,102.235825 
	C16.268862,99.272682 14.171037,97.832787 10.450752,97.902351 
	C5.004014,98.004211 3.585563,95.920372 1.341204,87.144043 
	C1.000000,86.555557 1.000000,86.111107 1.225479,85.187737 
	C1.300639,84.139206 1.150320,83.569603 1.000001,83.000000 
	C1.000000,81.611107 1.000000,80.222221 1.000000,78.416664 
	C2.718304,76.828522 4.436608,75.657043 6.534576,74.799370 
	C6.938394,75.396004 6.962548,75.678841 6.986703,75.961670 
	C6.663447,76.489113 6.340190,77.016548 6.016933,77.543991 
	C6.892527,77.611450 7.768122,77.678909 9.419833,77.829926 
	C10.783488,77.946831 11.371028,77.980164 11.958567,78.013504 
	C14.392535,78.881729 16.805965,79.816338 19.272465,80.579422 
	C20.054842,80.821472 20.978716,80.606178 22.408520,80.754913 
	C23.166563,81.121346 23.353926,81.333023 23.541288,81.544693 
M55.868671,145.995819 
	C55.377068,145.832031 54.885464,145.668243 53.746407,145.959137 
	C53.839737,146.347824 53.933064,146.736511 54.026386,147.125198 
	C54.451778,146.851349 54.877171,146.577515 55.868671,145.995819 
M117.018478,114.430519 
	C116.870964,114.178207 116.723450,113.925903 116.575928,113.673599 
	C116.699707,114.123642 116.823494,114.573692 117.507286,115.577980 
	C118.817284,115.790482 120.127289,116.002991 120.885193,116.840508 
	C113.492775,117.209137 110.652267,115.620605 110.055534,110.726067 
	C111.326210,110.521759 114.284454,112.696762 112.877266,108.597412 
	C112.683479,108.032875 114.489914,106.781715 116.020752,106.125069 
	C118.319046,105.878059 120.617340,105.631050 122.915634,105.384041 
	C119.239182,100.391426 116.518112,102.438370 113.202156,105.094818 
	C111.905602,106.795609 110.609055,108.496399 108.749054,110.695915 
	C107.538277,110.784660 106.327492,110.873405 104.726669,110.990746 
	C109.523178,118.742485 115.575516,120.974510 123.513321,118.580902 
	C125.196304,118.073410 127.163055,118.506996 129.643204,118.506996 
	C130.612701,117.310928 132.059723,115.525742 133.357849,113.924248 
	C132.518051,111.486382 131.752121,109.262985 130.915268,106.426842 
	C130.495285,106.115616 130.075302,105.804390 129.655319,105.493156 
	C129.453522,106.040878 129.251709,106.588600 128.722260,107.787468 
	C128.136978,108.389557 127.575165,109.016762 126.962173,109.589165 
	C124.854561,111.557205 125.980080,116.226028 121.184029,115.606468 
	C121.123940,115.405243 121.063858,115.204010 121.488060,114.781746 
	C121.763329,114.437309 122.038597,114.092873 122.313866,113.748428 
	C122.105766,113.637825 121.897667,113.527222 121.689568,113.416626 
	C121.458443,113.943100 121.227318,114.469566 120.218842,114.997208 
	C119.183693,114.961342 118.148552,114.925476 117.018478,114.430519 
M126.970222,101.574409 
	C127.301498,102.215126 127.632767,102.855850 127.964035,103.496567 
	C128.249741,103.191406 128.535461,102.886253 128.821167,102.581093 
	C128.170486,102.024628 127.519806,101.468170 126.877953,100.161469 
	C122.890640,95.688736 117.945702,95.568314 112.642166,99.347916 
	C117.031952,99.815163 121.973244,100.341110 126.970222,101.574409 
M66.703552,94.885704 
	C65.908287,95.339005 65.113022,95.792305 63.417164,95.457489 
	C64.302605,94.010422 65.188049,92.563354 66.073486,91.116287 
	C65.844604,90.748123 65.615723,90.379959 65.386833,90.011795 
	C57.694557,94.625137 50.002277,99.238472 42.309998,103.851814 
	C42.625679,104.480148 42.941357,105.108482 43.257038,105.736816 
	C47.729076,103.634155 52.181335,101.487709 56.684456,99.453865 
	C58.153622,98.790306 59.755325,98.420189 60.645973,98.905685 
	C54.669170,104.675087 48.692368,110.444481 42.715565,116.213882 
	C53.990864,112.742348 60.032341,102.650375 68.683235,94.939285 
	C68.696632,94.686089 68.710037,94.432884 68.723434,94.179688 
	C68.325928,94.279221 67.928413,94.378754 66.703552,94.885704 
M51.786324,94.179810 
	C58.027046,92.130516 62.712322,88.013214 66.974884,83.447708 
	C60.772072,83.447708 54.857147,83.447708 48.942223,83.447708 
	C48.866718,83.694687 48.791214,83.941666 48.715710,84.188652 
	C51.231449,85.431480 53.747185,86.674316 56.820232,88.192467 
	C53.483948,90.404869 50.690285,92.257431 47.896626,94.110001 
	C48.014202,94.336372 48.131779,94.562744 48.249355,94.789116 
	C49.193459,94.663383 50.137566,94.537651 51.786324,94.179810 
M72.158325,65.353462 
	C67.657700,63.712540 63.157082,62.071617 58.656460,60.430695 
	C66.905121,67.945518 66.905121,67.945518 76.317360,67.496452 
	C74.775108,66.722115 73.799400,66.232224 72.158325,65.353462 
M107.641327,105.432533 
	C107.127464,105.164330 106.613602,104.896133 106.099731,104.627930 
	C105.877731,105.162712 105.655724,105.697495 105.433723,106.232277 
	C106.079689,106.140564 106.725662,106.048851 107.641327,105.432533 
M68.649483,88.335426 
	C68.531639,88.580528 68.413795,88.825630 68.295959,89.070740 
	C68.531235,89.142189 68.766502,89.213638 69.001785,89.285088 
	C69.027252,88.947433 69.052727,88.609779 68.649483,88.335426 
M81.316505,48.900120 
	C81.219147,49.368473 81.082520,49.834499 81.054504,50.306965 
	C81.048195,50.413212 81.421181,50.541950 81.619560,50.660336 
	C81.723801,50.263542 81.828041,49.866745 81.316505,48.900120 
M126.475021,92.367928 
	C126.529144,92.157951 126.583275,91.947975 126.637398,91.737991 
	C126.504456,91.872940 126.371513,92.007889 126.475021,92.367928 
M60.524742,110.633850 
	C60.470699,110.843163 60.416660,111.052475 60.362621,111.261787 
	C60.495197,111.127289 60.627773,110.992790 60.524742,110.633850 
M15.517007,81.412315 
	C15.517007,81.412315 15.582623,81.522621 15.517007,81.412315 
M114.586159,112.516563 
	C114.586159,112.516563 114.477066,112.581291 114.586159,112.516563 
M56.483021,143.587860 
	C56.483021,143.587860 56.417568,143.477707 56.483021,143.587860 
z"/>
<path fill="#070707" opacity="1.000000" stroke="none" 
	d="
M161.267746,39.268269 
	C162.271088,39.428753 163.274445,39.589241 164.444214,39.776344 
	C165.238846,38.371109 166.171951,36.720989 167.735062,33.956749 
	C167.933395,36.448765 168.032928,37.699409 168.135300,38.985790 
	C171.925125,35.881454 175.602875,32.868935 179.982300,30.118092 
	C177.672974,33.644730 174.661957,36.909691 171.650955,40.174648 
	C172.031876,40.752647 172.412811,41.330647 172.793747,41.908649 
	C175.019302,40.874805 177.460968,40.147156 179.433548,38.754894 
	C188.696640,32.216980 197.830841,25.496431 207.011047,18.841091 
	C208.757004,18.591387 210.502960,18.341682 213.041870,18.102825 
	C215.563705,17.985430 217.292572,17.857191 219.021454,17.728952 
	C221.110550,19.819767 223.199646,21.910580 225.644379,24.000698 
	C226.000000,25.066669 226.000000,26.133339 226.000000,27.600002 
	C224.605469,28.395033 223.173935,29.224964 221.822800,29.110020 
	C215.886475,28.605011 214.283539,31.856083 213.397034,37.065926 
	C211.931839,45.676567 209.660187,54.149982 207.659592,62.984955 
	C208.966064,62.984955 210.672501,62.984955 212.378937,62.984955 
	C212.579468,63.445213 212.779999,63.905472 212.980530,64.365730 
	C209.514877,65.860916 206.049210,67.356102 202.583557,68.851288 
	C202.556900,69.159019 202.530243,69.466751 202.503571,69.774490 
	C205.687958,69.359634 208.872330,68.944778 212.502075,68.471909 
	C210.779144,70.890137 209.120712,73.217819 207.208069,75.902321 
	C208.739395,75.593834 209.933914,75.353203 212.001938,74.936600 
	C210.328064,76.975426 209.174805,78.380104 207.718033,80.154488 
	C209.340866,80.691353 210.631134,81.118202 213.229568,81.977821 
	C210.904953,83.570427 209.337997,84.643959 206.940079,86.286781 
	C209.688263,87.011711 211.174683,87.403809 212.774994,87.825943 
	C209.237839,91.346664 208.694397,91.257965 201.662094,86.040749 
	C201.104782,85.632133 200.936783,85.528618 200.460999,85.308990 
	C199.789871,85.195801 199.382080,85.270889 198.974274,85.345993 
	C199.215118,85.663994 199.455948,85.982002 199.765076,86.543144 
	C200.098557,86.980408 200.363754,87.174538 200.628952,87.368668 
	C204.045639,89.579407 207.462341,91.790154 211.252487,94.242546 
	C209.878525,95.057945 207.557266,96.435532 204.933395,97.992722 
	C206.182709,99.412460 207.456223,100.859718 208.729752,102.306969 
	C208.622284,102.573685 208.514816,102.840393 208.407364,103.107109 
	C206.284073,102.427361 204.160797,101.747612 201.231995,100.809982 
	C203.962143,105.352074 206.360611,109.342354 208.565887,113.011215 
	C206.046997,114.039009 202.142593,114.534805 201.695984,116.049889 
	C200.847107,118.929596 201.655746,122.468369 202.395309,125.586578 
	C202.897675,127.704742 204.454926,129.572708 205.725800,131.890640 
	C204.128708,131.430283 202.859039,131.064316 201.589371,130.698334 
	C201.409302,130.999725 201.229248,131.301117 201.049179,131.602509 
	C202.996918,133.175507 204.944672,134.748520 207.114746,136.501083 
	C206.391495,137.120087 205.628372,137.773209 204.425873,138.802383 
	C208.174652,140.238068 211.588074,141.481171 214.948273,142.854462 
	C217.237457,143.790054 219.600632,144.683578 221.640411,146.034302 
	C222.733154,146.757904 224.050522,148.673019 223.765411,149.577057 
	C223.367599,150.838577 221.698105,152.255981 220.340256,152.556686 
	C215.684418,153.587677 210.927185,154.160675 205.619431,155.001633 
	C206.877350,157.254684 207.898865,159.084305 208.673309,161.394928 
	C208.220734,161.979156 208.015228,162.082397 207.466187,162.019394 
	C206.046143,160.216064 204.969650,158.578964 204.265976,156.899094 
	C200.187637,150.512955 195.736465,144.169601 191.500488,137.375427 
	C191.806198,136.604095 191.896713,136.283600 191.999390,135.538666 
	C192.538757,131.325562 193.465225,127.541504 193.508942,123.747269 
	C193.596329,116.165222 193.199875,108.577606 192.998474,100.606567 
	C186.040634,86.326836 183.804230,69.821251 170.433823,59.477848 
	C170.874084,58.746887 171.313248,58.019135 171.798264,57.215393 
	C169.493790,56.438210 167.515228,55.770939 165.303528,55.025043 
	C166.270615,53.681156 166.910477,52.791973 167.812180,51.538940 
	C154.074219,49.820393 141.073334,46.322952 127.422325,49.312389 
	C131.699448,53.366001 135.403717,56.876709 139.108002,60.387413 
	C138.767410,60.776951 138.426819,61.166489 138.086212,61.556026 
	C137.561707,61.293999 136.912643,61.151199 136.530945,60.752457 
	C127.537636,51.357853 117.065353,46.623058 103.811943,49.884464 
	C102.764801,50.142147 101.292679,48.672840 100.018066,48.006138 
	C115.816566,47.638901 131.613968,47.183392 147.414612,46.987858 
	C150.176193,46.953686 151.262329,45.910412 151.844238,43.514561 
	C152.214752,41.989048 152.870331,40.532780 154.105881,39.174484 
	C154.105881,41.037598 154.105881,42.900707 154.105881,44.763817 
	C154.408249,44.903297 154.710602,45.042774 155.012970,45.182255 
	C156.760391,41.400475 158.507828,37.618694 160.255249,33.836914 
	C160.702850,33.996155 161.150452,34.155392 161.598053,34.314632 
	C161.175827,35.485420 160.753601,36.656212 160.213043,38.424850 
	C160.177277,39.278671 160.259857,39.534649 160.342438,39.790627 
	C160.650879,39.616512 160.959305,39.442390 161.267746,39.268269 
M183.124435,56.834919 
	C186.679977,54.949631 190.235519,53.064339 194.397354,50.857567 
	C192.414276,50.343346 191.185547,50.024731 189.362396,49.551983 
	C192.071533,47.697472 194.077438,46.324337 196.083359,44.951206 
	C188.775208,44.616409 184.258026,48.720119 180.606842,52.764317 
	C181.404129,54.645519 181.882736,55.774792 183.124435,56.834919 
M189.199799,57.142464 
	C187.682175,57.936230 186.164551,58.729996 184.442032,59.630928 
	C189.780762,63.890587 195.412323,62.884808 200.477737,57.032509 
	C196.871338,57.032509 193.461288,57.032509 189.199799,57.142464 
M190.866608,65.333336 
	C190.249008,66.132851 189.631393,66.932365 189.013779,67.731880 
	C189.192307,67.941376 189.370834,68.150871 189.549362,68.360374 
	C192.925583,66.837288 196.301788,65.314209 199.678009,63.791126 
	C199.479279,63.291096 199.280563,62.791065 199.081848,62.291031 
	C196.555893,63.153965 194.029922,64.016899 190.866608,65.333336 
z"/>
<path fill="#070707" opacity="1.000000" stroke="none" 
	d="
M1.000001,83.333328 
	C1.150320,83.569603 1.300639,84.139206 1.225479,84.854401 
	C1.000000,84.555557 1.000000,84.111107 1.000001,83.333328 
z"/>
<path fill="#070707" opacity="1.000000" stroke="none" 
	d="
M150.089798,206.054138 
	C147.952164,205.603104 145.739777,205.361893 143.700256,204.635422 
	C142.033600,204.041733 140.573242,202.868881 139.342346,201.528137 
	C140.921143,200.227402 142.179016,199.351364 143.733627,198.536194 
	C159.633530,203.400955 174.912659,202.373367 190.018158,196.245361 
	C188.260513,194.947510 186.282730,194.825760 184.668350,193.996536 
	C181.093124,192.160126 176.195801,190.786743 174.545105,187.751907 
	C171.059341,181.343277 169.064835,174.063354 166.951355,166.993561 
	C165.875427,163.394440 167.949600,160.608139 171.281906,158.941727 
	C181.949036,153.607315 192.802444,151.291611 203.940216,157.525986 
	C202.854904,158.341888 201.964828,158.811462 201.071838,158.817017 
	C194.443680,158.858292 187.814438,158.746277 181.186508,158.800797 
	C172.798294,158.869766 171.288071,161.420547 175.404480,168.396790 
	C176.069687,169.524124 176.820160,170.601166 177.636795,171.864807 
	C187.429108,166.760162 197.754303,167.104630 208.179398,168.016510 
	C208.776581,168.068741 209.497696,166.704224 210.421265,165.999847 
	C211.028244,166.001556 211.375107,166.002502 211.721954,166.003464 
	C211.783905,169.904785 211.970505,173.809448 211.865982,177.706299 
	C211.790527,180.519135 211.327835,183.321548 210.551605,186.522980 
	C209.810074,186.887466 209.554764,186.857590 209.288971,186.482147 
	C209.380096,185.260742 209.481705,184.384872 209.583328,183.509003 
	C209.202271,183.164749 208.821198,182.820511 208.440125,182.476257 
	C207.043625,192.410553 197.833618,192.868835 191.333237,196.613266 
	C191.604691,197.079636 191.876144,197.546021 192.147614,198.012390 
	C197.065399,198.012390 201.983200,198.012390 206.901001,198.012390 
	C204.762985,199.462708 202.624954,200.913025 199.846939,202.710297 
	C196.149277,203.377167 193.088104,203.667175 190.034500,204.022141 
	C176.224487,205.627350 162.504761,205.298737 148.886749,202.273697 
	C147.470612,201.959122 145.953842,202.097610 144.069504,202.005661 
	C146.448853,203.605713 148.269333,204.829926 150.089798,206.054138 
M209.463394,179.039291 
	C209.463394,178.174423 209.463394,177.309540 209.463394,176.444672 
	C209.122162,176.281418 208.780914,176.118164 208.439682,175.954910 
	C207.212753,177.603882 205.985840,179.252838 204.758911,180.901810 
	C205.257904,181.336746 205.756912,181.771698 206.255905,182.206650 
	C207.216095,181.364624 208.176285,180.522598 209.463394,179.039291 
M190.377823,181.674179 
	C190.084274,182.208771 189.790726,182.743362 189.497162,183.277954 
	C190.202728,183.313431 191.474289,183.523605 191.525681,183.357162 
	C192.002731,181.811432 192.269714,180.200851 192.597656,178.609100 
	C192.210358,178.545761 191.823044,178.482437 191.435730,178.419113 
	C191.207214,179.327820 190.978714,180.236526 190.377823,181.674179 
M178.722656,179.056992 
	C178.164032,179.695206 177.605392,180.333420 177.046768,180.971634 
	C177.299103,181.270584 177.551437,181.569534 177.803772,181.868500 
	C179.329498,181.292816 180.855209,180.717148 182.380936,180.141479 
	C182.312561,179.845993 182.244171,179.550522 182.175797,179.255035 
	C181.265305,179.174210 180.354797,179.093384 178.722656,179.056992 
M182.216644,185.654495 
	C182.102921,185.774994 181.953003,185.878510 181.886124,186.021011 
	C181.824966,186.151321 181.802032,186.439835 181.849960,186.461121 
	C185.262131,187.976578 187.010727,187.583603 187.653671,185.536331 
	C186.099518,185.536331 184.467789,185.536331 182.216644,185.654495 
M200.479980,183.579834 
	C199.867889,184.270645 199.255783,184.961441 198.643677,185.652237 
	C199.128738,185.960236 199.613800,186.268234 200.098877,186.576218 
	C200.344208,185.746765 200.589523,184.917297 200.479980,183.579834 
M199.101532,178.299484 
	C198.875656,178.607224 198.649780,178.914963 198.423904,179.222702 
	C198.750626,179.014359 199.077347,178.806015 199.101532,178.299484 
M204.735825,184.182632 
	C204.622635,184.026688 204.509445,183.870728 204.396271,183.714767 
	C204.418991,183.931442 204.441711,184.148132 204.735825,184.182632 
z"/>
<path fill="#F5F5F5" opacity="1.000000" stroke="none" 
	d="
M56.928452,187.145721 
	C56.718498,180.913910 59.681969,175.884323 63.511360,170.699524 
	C63.781731,170.033554 63.866673,169.771317 64.356079,169.587494 
	C65.357742,169.128860 65.959045,168.571686 66.679337,167.799500 
	C67.529015,167.249985 68.259712,166.915466 69.348595,166.360657 
	C70.311691,165.406738 70.916595,164.673096 71.512466,163.971100 
	C71.503441,164.002762 71.442017,163.979065 71.721725,164.474945 
	C77.227112,164.807892 82.455574,164.696747 87.674950,164.416382 
	C88.326790,164.381363 88.930557,163.451172 89.742340,162.919067 
	C90.423264,162.924026 90.918449,162.945694 90.982788,163.320343 
	C91.364174,164.511353 92.037956,165.589600 93.010223,166.149918 
	C101.799301,171.215042 105.236038,185.056396 99.512581,194.401443 
	C100.828728,186.944916 98.868546,181.160370 93.050110,176.603027 
	C92.761070,176.726105 92.559853,177.101639 92.363686,177.892303 
	C93.053276,183.683899 93.737808,189.060379 94.398193,194.247238 
	C91.792511,192.264053 89.739525,190.701523 87.686539,189.138992 
	C86.276802,191.367065 84.867065,193.595154 82.746498,196.946716 
	C81.728088,188.685989 80.839653,181.479584 79.951225,174.273178 
	C79.598198,174.309402 79.245163,174.345642 78.892136,174.381866 
	C78.892136,182.130295 78.892136,189.878708 78.892136,197.627136 
	C78.530327,197.690048 78.168510,197.752945 77.806702,197.815857 
	C76.400688,192.418213 74.994675,187.020554 73.588661,181.622910 
	C73.174629,181.635910 72.760597,181.648911 72.346565,181.661911 
	C72.171700,184.975937 71.996826,188.289948 71.833862,191.378189 
	C66.475349,191.250427 69.376640,195.794876 68.098129,198.620956 
	C62.481426,191.620285 64.007721,184.549759 65.881332,177.155655 
	C65.961266,176.258499 65.918564,175.659042 65.822586,174.311615 
	C65.136047,175.496185 64.830086,176.024124 64.270767,176.807068 
	C62.394627,182.288727 60.771839,187.515381 58.837570,193.745224 
	C58.130032,191.257797 57.590622,189.361450 57.051212,187.465103 
	C57.051212,187.465103 56.921848,187.085129 56.928452,187.145721 
z"/>
<path fill="#070707" opacity="1.000000" stroke="none" 
	d="
M56.610909,187.160126 
	C57.590622,189.361450 58.130032,191.257797 58.837570,193.745224 
	C60.771839,187.515381 62.394627,182.288727 64.563301,177.054474 
	C65.325691,177.182343 65.542198,177.317841 65.758705,177.453339 
	C64.007721,184.549759 62.481426,191.620285 68.098129,198.620956 
	C69.376640,195.794876 66.475349,191.250427 71.833862,191.378189 
	C71.996826,188.289948 72.171700,184.975937 72.346565,181.661911 
	C72.760597,181.648911 73.174629,181.635910 73.588661,181.622910 
	C74.994675,187.020554 76.400688,192.418213 77.806702,197.815857 
	C78.168510,197.752945 78.530327,197.690048 78.892136,197.627136 
	C78.892136,189.878708 78.892136,182.130295 78.892136,174.381866 
	C79.245163,174.345642 79.598198,174.309402 79.951225,174.273178 
	C80.839653,181.479584 81.728088,188.685989 82.746498,196.946716 
	C84.867065,193.595154 86.276802,191.367065 87.686539,189.138992 
	C89.739525,190.701523 91.792511,192.264053 94.398193,194.247238 
	C93.737808,189.060379 93.053276,183.683899 92.569138,177.750183 
	C92.769539,177.192963 93.137924,176.855469 93.137924,176.855469 
	C98.868546,181.160370 100.828728,186.944916 99.512581,194.401443 
	C105.236038,185.056396 101.799301,171.215042 93.010223,166.149918 
	C92.037956,165.589600 91.364174,164.511353 91.350983,163.541992 
	C96.832741,167.185425 102.380402,170.289078 105.968269,174.913300 
	C109.997437,180.106308 112.695358,186.253723 118.957481,189.480545 
	C119.780937,189.904877 120.051422,191.402313 120.251915,192.951218 
	C119.765671,193.893799 119.605507,194.287888 119.445343,194.681992 
	C116.412033,192.390106 113.378723,190.098221 108.917198,186.727219 
	C109.958504,200.315720 100.018143,201.536484 92.841881,203.663101 
	C86.469017,205.551666 78.927299,204.831024 72.177200,203.665482 
	C67.272186,202.818542 62.414326,199.916092 58.297073,196.892883 
	C55.372654,194.745590 53.007492,191.007843 56.610909,187.160126 
M72.609116,194.408310 
	C72.965553,194.317062 73.321999,194.225815 73.678444,194.134583 
	C73.356934,194.087250 73.035431,194.039917 72.609116,194.408310 
z"/>
<path fill="#E8E8E8" opacity="1.000000" stroke="none" 
	d="
M150.116196,206.043991 
	C148.269333,204.829926 146.448853,203.605713 144.069504,202.005661 
	C145.953842,202.097610 147.470612,201.959122 148.886749,202.273697 
	C162.504761,205.298737 176.224487,205.627350 190.034500,204.022141 
	C193.088104,203.667175 196.149277,203.377167 199.605255,203.033173 
	C198.951416,204.017578 197.899277,205.026093 196.031189,205.986084 
	C194.649109,206.652695 194.082993,207.367828 193.516876,208.082977 
	C193.516876,208.082977 193.518463,208.010529 193.013550,207.591309 
	C192.162842,207.473969 191.817032,207.775848 191.471207,208.077728 
	C191.471207,208.077728 191.505066,208.015030 191.179932,207.686737 
	C182.056564,209.246246 173.386276,210.012787 164.460388,207.295792 
	C160.069183,205.959137 155.131882,206.416504 150.441711,206.062012 
	C150.441711,206.062012 150.142593,206.033844 150.116196,206.043991 
z"/>
<path fill="#070707" opacity="1.000000" stroke="none" 
	d="
M138.478210,201.321075 
	C132.220535,199.278244 125.962868,197.235413 119.575272,194.937286 
	C119.605507,194.287888 119.765671,193.893799 120.483749,193.197876 
	C124.859650,196.206467 130.307343,197.997360 134.945343,196.891846 
	C125.145569,194.914368 121.284836,186.473938 115.725616,179.915222 
	C114.934761,178.982178 114.890846,177.416031 114.501213,176.142899 
	C115.816971,176.309631 117.466705,176.036911 118.381050,176.731827 
	C120.478996,178.326248 122.337578,180.288437 124.081352,182.286346 
	C129.680862,188.701828 135.356934,194.995377 142.816559,198.570923 
	C140.974442,199.556808 139.726318,200.438934 138.478210,201.321075 
z"/>
<path fill="#ECECEC" opacity="1.000000" stroke="none" 
	d="
M206.863678,198.004272 
	C201.983200,198.012390 197.065399,198.012390 192.147614,198.012390 
	C191.876144,197.546021 191.604691,197.079636 191.333237,196.613266 
	C197.833618,192.868835 207.043625,192.410553 208.440125,182.476257 
	C208.821198,182.820511 209.202271,183.164749 209.583328,183.509003 
	C209.481705,184.384872 209.380096,185.260742 209.151627,186.792999 
	C208.447800,189.644287 207.870834,191.839172 207.040375,194.513794 
	C206.866882,195.857681 206.946869,196.721832 207.026855,197.585999 
	C207.088684,197.803467 207.021851,197.940186 206.863678,198.004272 
z"/>
<path fill="#070707" opacity="1.000000" stroke="none" 
	d="
M150.232391,206.481949 
	C155.131882,206.416504 160.069183,205.959137 164.460388,207.295792 
	C173.386276,210.012787 182.056564,209.246246 191.196716,207.718140 
	C190.863937,208.737106 190.194443,209.963165 189.513794,209.969391 
	C181.130692,210.045898 172.725662,210.274521 164.369400,209.761475 
	C159.546951,209.465363 154.802567,207.897400 150.232391,206.481949 
z"/>
<path fill="#070707" opacity="1.000000" stroke="none" 
	d="
M207.293854,194.034073 
	C207.870834,191.839172 208.447800,189.644287 209.162125,187.138550 
	C209.554764,186.857590 209.810074,186.887466 210.448944,186.956314 
	C210.060883,189.828339 209.289230,192.661407 208.247040,195.470901 
	C207.748932,194.976242 207.521393,194.505157 207.293854,194.034073 
z"/>
<path fill="#070707" opacity="1.000000" stroke="none" 
	d="
M138.513550,201.300323 
	C139.726318,200.438934 140.974442,199.556808 142.814240,198.596649 
	C143.405914,198.518616 143.436905,198.475311 143.436905,198.475311 
	C142.179016,199.351364 140.921143,200.227402 139.079117,201.208847 
	C138.494980,201.314255 138.548904,201.279587 138.513550,201.300323 
z"/>
<path fill="#070707" opacity="1.000000" stroke="none" 
	d="
M193.896790,208.115067 
	C194.082993,207.367828 194.649109,206.652695 195.676605,205.953278 
	C195.517563,206.695068 194.897141,207.421127 193.896790,208.115067 
z"/>
<path fill="#070707" opacity="1.000000" stroke="none" 
	d="
M211.682251,165.723145 
	C211.375107,166.002502 211.028244,166.001556 210.255463,165.779266 
	C209.669647,165.229340 209.509750,164.900742 209.528168,164.414978 
	C209.706482,164.257812 210.061676,163.941879 210.061676,163.941879 
	C210.588623,164.442200 211.115585,164.942520 211.682251,165.723145 
z"/>
<path fill="#070707" opacity="1.000000" stroke="none" 
	d="
M207.040375,194.513794 
	C207.521393,194.505157 207.748932,194.976242 207.986588,195.718384 
	C207.839966,196.379105 207.683243,196.768768 207.276672,197.372223 
	C206.946869,196.721832 206.866882,195.857681 207.040375,194.513794 
z"/>
<path fill="#070707" opacity="1.000000" stroke="none" 
	d="
M209.072281,161.642868 
	C209.381012,162.186813 209.689743,162.730743 210.030090,163.608276 
	C210.061676,163.941879 209.706482,164.257812 209.375793,164.271973 
	C208.865692,164.053452 208.789597,163.790848 208.881927,163.034622 
	C208.988785,162.261581 209.030533,161.952225 209.072281,161.642868 
z"/>
<path fill="#070707" opacity="1.000000" stroke="none" 
	d="
M12.763972,122.459648 
	C13.006065,122.765862 13.004432,123.049324 13.003132,123.545380 
	C12.841763,123.317612 12.680691,122.877251 12.763972,122.459648 
z"/>
<path fill="#070707" opacity="1.000000" stroke="none" 
	d="
M191.518646,208.508484 
	C191.817032,207.775848 192.162842,207.473969 193.048950,207.599030 
	C192.914856,208.330399 192.240463,208.634811 191.518646,208.508484 
z"/>
<path fill="#070707" opacity="1.000000" stroke="none" 
	d="
M209.062347,161.657562 
	C209.030533,161.952225 208.988785,162.261581 208.624847,162.897186 
	C208.138351,162.877502 207.974045,162.531570 207.809723,162.185638 
	C208.015228,162.082397 208.220734,161.979156 208.755951,161.773926 
	C209.085648,161.671936 209.052399,161.672256 209.062347,161.657562 
z"/>
<path fill="#FBFBFB" opacity="1.000000" stroke="none" 
	d="
M143.733627,198.536194 
	C143.436905,198.475311 143.405914,198.518616 143.408234,198.492889 
	C135.356934,194.995377 129.680862,188.701828 124.081352,182.286346 
	C122.337578,180.288437 120.478996,178.326248 118.381050,176.731827 
	C117.466705,176.036911 115.816971,176.309631 114.501213,176.142899 
	C114.890846,177.416031 114.934761,178.982178 115.725616,179.915222 
	C121.284836,186.473938 125.145569,194.914368 134.945343,196.891846 
	C130.307343,197.997360 124.859650,196.206467 120.809845,192.649399 
	C120.051422,191.402313 119.780937,189.904877 118.957481,189.480545 
	C112.695358,186.253723 109.997437,180.106308 105.968269,174.913300 
	C102.380402,170.289078 96.832741,167.185425 91.781815,163.189026 
	C90.918449,162.945694 90.423264,162.924026 89.295471,162.865997 
	C82.922569,163.212769 77.182297,163.595917 71.442017,163.979065 
	C71.442017,163.979065 71.503441,164.002762 70.943466,163.852081 
	C69.919128,164.661255 69.454765,165.621094 68.990402,166.580948 
	C68.259712,166.915466 67.529015,167.249985 66.773270,167.299423 
	C65.611565,167.368164 64.474922,167.721970 63.338280,168.075775 
	C63.544094,168.546860 63.749908,169.017914 63.955727,169.488983 
	C63.866673,169.771317 63.781731,170.033554 63.758560,170.258743 
	C56.930351,172.994049 50.207424,169.530289 43.097012,169.866043 
	C43.343807,168.613800 43.548931,167.572998 43.694641,166.833649 
	C42.847061,164.975952 39.735386,169.545044 40.431114,164.663834 
	C40.483334,163.792358 40.242085,163.437378 40.000832,163.082413 
	C39.391354,162.329742 38.781879,161.577057 38.404358,160.345184 
	C38.589909,159.600586 38.543499,159.335175 38.497097,159.069794 
	C38.076241,159.381058 37.655380,159.692322 37.234516,160.003571 
	C36.014019,161.259430 34.793522,162.515289 33.008209,163.859116 
	C32.254955,163.983078 32.066517,164.019058 31.878082,164.055054 
	C32.434925,162.116501 32.991768,160.177963 33.761314,157.611450 
	C33.947166,156.424850 33.920319,155.866196 33.893471,155.307541 
	C33.420540,155.559967 32.947605,155.812378 32.474670,156.064789 
	C29.440542,157.087616 26.406416,158.110443 23.372292,159.133270 
	C23.097471,158.717636 22.822651,158.302017 22.547832,157.886383 
	C24.662666,156.205307 26.777500,154.524231 28.892334,152.843155 
	C28.695337,152.460693 28.498343,152.078232 28.301348,151.695770 
	C25.988621,151.854797 23.675892,152.013824 20.457058,152.235153 
	C23.885361,149.185501 26.732183,146.653091 29.909943,143.826309 
	C26.239239,142.204895 23.184164,140.855423 20.129091,139.505951 
	C20.145096,139.188690 20.161098,138.871429 20.177101,138.554153 
	C21.766281,138.237854 23.355459,137.921539 25.819031,137.431198 
	C23.736391,136.045135 22.431740,135.176849 21.099314,134.290070 
	C25.393723,131.645493 29.631878,129.035553 34.394196,126.618210 
	C35.065228,126.990639 35.212101,127.170448 35.358971,127.350258 
	C34.908108,128.030243 34.457253,128.710220 33.770317,129.781982 
	C33.601955,130.353180 33.669678,130.532562 33.737396,130.711960 
	C33.845032,130.660614 34.049236,130.596451 34.044399,130.560013 
	C34.015919,130.345291 33.938763,130.137039 33.877998,129.926605 
	C36.592937,128.707123 39.666374,127.949020 41.950089,126.174561 
	C47.110638,122.164764 51.881180,117.653030 57.337753,113.532333 
	C58.017254,113.915062 58.169361,114.110909 58.321468,114.306755 
	C52.168392,126.404266 41.863892,133.013748 28.894348,137.247833 
	C31.959118,138.029419 35.023888,138.811005 38.292019,139.644455 
	C37.169777,140.416580 35.905521,141.286423 33.958241,142.626190 
	C43.514397,145.127457 48.305065,138.341858 54.189228,133.875076 
	C54.252533,138.646423 52.158493,141.744812 44.027283,148.511780 
	C48.040298,147.723907 50.822361,147.177704 53.604424,146.631500 
	C53.829727,147.131714 54.055031,147.631912 54.280334,148.132111 
	C50.863182,149.919678 47.446030,151.707245 42.792793,154.141418 
	C47.455959,154.990540 51.150352,155.663269 55.126152,156.387222 
	C54.537445,157.062851 53.928242,157.762009 52.578224,159.311356 
	C61.574657,157.033539 69.707222,154.974457 77.839790,152.915359 
	C77.881409,152.542801 77.923027,152.170242 77.964638,151.797684 
	C75.235374,151.401810 72.506104,151.005936 69.417404,150.557907 
	C71.810066,148.890503 74.119904,147.280792 77.198326,145.135483 
	C75.451752,144.750458 74.690025,144.582535 72.368103,144.070663 
	C77.337242,136.470840 81.255615,128.692474 86.849174,122.404243 
	C92.958427,115.536285 98.198120,117.128090 101.713890,125.585564 
	C104.486725,132.255859 107.956581,138.064545 116.011795,139.248230 
	C120.656349,139.930756 124.968643,139.028717 127.640839,135.241302 
	C132.290619,128.650970 137.483795,122.087067 140.381393,114.700897 
	C144.754745,103.552979 140.933395,82.572418 127.406151,76.978653 
	C124.807724,75.904152 122.033905,75.253769 118.951881,75.416885 
	C120.550896,76.686096 122.149910,77.955315 124.285378,79.650337 
	C122.467949,79.747612 121.402481,79.804642 119.446060,79.909355 
	C120.908478,81.015808 121.819344,81.704956 122.895668,82.519302 
	C119.069427,83.979630 115.342247,85.402153 111.053642,87.203720 
	C110.461975,87.995140 110.431725,88.407524 110.401474,88.819901 
	C111.044540,88.588722 111.687599,88.357544 112.330658,88.126366 
	C115.410217,87.886497 118.489784,87.646637 121.790726,88.005981 
	C122.037628,88.808182 122.063156,89.011162 122.088684,89.214134 
	C113.931969,89.476875 108.464439,94.349609 103.636215,100.159416 
	C100.619827,103.789055 97.856384,107.628906 94.063522,112.566864 
	C94.230316,110.212875 94.282188,109.480827 94.462784,107.824753 
	C94.307343,106.663063 94.023170,106.425400 93.820312,106.461761 
	C94.083946,106.828522 94.266251,106.921257 94.448555,107.013992 
	C94.211327,106.741249 93.974106,106.468506 93.707947,106.540329 
	C93.416634,107.243164 93.154243,107.601425 92.891861,107.959686 
	C92.523140,106.688019 92.154427,105.416351 91.743683,103.999748 
	C90.969536,104.629005 90.244446,105.218376 89.178482,106.084831 
	C89.238304,105.103409 89.279938,104.420486 89.283752,103.074493 
	C88.801460,102.596870 88.356987,102.782318 87.912514,102.967758 
	C87.472092,102.626190 86.607048,102.183723 86.660332,101.959473 
	C86.999092,100.533913 87.540550,99.156509 88.309448,97.325012 
	C88.642090,96.631554 88.680481,96.376320 88.718880,96.121094 
	C88.322792,96.171837 87.926704,96.222572 87.530617,96.273315 
	C86.939468,96.518990 86.348312,96.764664 85.323387,97.190598 
	C85.153679,95.319565 88.133141,91.880608 84.030907,92.727715 
	C84.290527,90.958755 84.533928,89.300362 84.933586,86.863945 
	C84.968056,85.512268 84.846252,84.938614 84.790298,84.701408 
	C85.105186,84.985077 85.354218,84.932304 85.603256,84.879532 
	C85.315628,84.754898 85.028000,84.630264 84.458008,84.735764 
	C83.474274,84.967972 82.772896,84.970024 82.071518,84.972084 
	C82.013451,84.020508 81.955391,83.068932 81.378159,81.974342 
	C80.745041,81.704636 80.631088,81.577950 80.517143,81.451271 
	C82.594383,78.719452 84.671623,75.987625 86.874748,73.090240 
	C85.788467,72.973717 84.747536,72.862061 83.118736,72.687340 
	C84.865929,71.378052 86.159149,70.408951 87.501923,69.402725 
	C86.691147,69.089539 85.948128,68.802528 85.156464,68.496727 
	C88.020454,65.610329 90.797874,62.811188 93.889999,59.694874 
	C92.121773,57.637676 89.944984,55.105160 87.632248,52.414467 
	C91.009338,51.571800 93.838448,50.865871 96.333420,49.987961 
	C97.094627,49.209991 98.189972,48.604008 99.651695,48.002083 
	C101.292679,48.672840 102.764801,50.142147 103.811943,49.884464 
	C117.065353,46.623058 127.537636,51.357853 136.530945,60.752457 
	C136.912643,61.151199 137.561707,61.293999 138.086212,61.556026 
	C138.426819,61.166489 138.767410,60.776951 139.108002,60.387413 
	C135.403717,56.876709 131.699448,53.366001 127.422325,49.312389 
	C141.073334,46.322952 154.074219,49.820393 167.812180,51.538940 
	C166.910477,52.791973 166.270615,53.681156 165.303528,55.025043 
	C167.515228,55.770939 169.493790,56.438210 171.798264,57.215393 
	C171.313248,58.019135 170.874084,58.746887 170.433823,59.477848 
	C183.804230,69.821251 186.040634,86.326836 192.909210,100.811104 
	C192.665543,101.665047 192.445145,101.859268 191.966705,101.685684 
	C189.028885,95.698586 186.430664,89.866631 179.202713,88.878853 
	C179.305832,87.734779 179.834122,86.461678 179.422867,85.687950 
	C176.852417,80.851875 171.775024,81.981728 167.634644,81.534004 
	C166.773544,81.440880 165.305450,85.310425 164.449478,87.484612 
	C163.989822,88.652176 164.000153,90.135422 164.202682,91.412086 
	C165.646347,100.512817 168.267197,109.220932 174.035065,116.594833 
	C179.652145,123.776009 185.524841,130.757233 191.285309,137.826248 
	C195.736465,144.169601 200.187637,150.512955 204.285233,156.923416 
	C203.931671,156.990524 204.134094,156.964798 204.134094,156.964798 
	C192.802444,151.291611 181.949036,153.607315 171.281906,158.941727 
	C167.949600,160.608139 165.875427,163.394440 166.951355,166.993561 
	C169.064835,174.063354 171.059341,181.343277 174.545105,187.751907 
	C176.195801,190.786743 181.093124,192.160126 184.668350,193.996536 
	C186.282730,194.825760 188.260513,194.947510 190.018158,196.245361 
	C174.912659,202.373367 159.633530,203.400955 143.733627,198.536194 
z"/>
<path fill="#0E0E0E" opacity="1.000000" stroke="none" 
	d="
M7.334438,75.914719 
	C6.962548,75.678841 6.938394,75.396004 6.875655,74.689133 
	C19.463938,66.675957 32.090805,59.086823 44.441868,51.663452 
	C44.291832,53.938469 44.122158,56.511204 43.854061,60.576366 
	C37.794857,69.075294 37.794857,69.075294 27.145319,68.514717 
	C27.481016,67.662437 27.809328,66.828903 28.137640,65.995377 
	C27.909584,65.680634 27.681526,65.365891 27.453468,65.051147 
	C20.863037,68.656685 14.272605,72.262230 7.334438,75.914719 
z"/>
<path fill="#EDEDED" opacity="1.000000" stroke="none" 
	d="
M206.998032,18.486282 
	C197.830841,25.496431 188.696640,32.216980 179.433548,38.754894 
	C177.460968,40.147156 175.019302,40.874805 172.793747,41.908649 
	C172.412811,41.330647 172.031876,40.752647 171.650955,40.174648 
	C174.661957,36.909691 177.672974,33.644730 180.336823,30.130306 
	C179.989655,29.880840 180.025116,29.950619 180.184357,30.350460 
	C182.905609,28.800304 185.467606,26.850306 188.029602,24.900303 
	C189.710510,21.686867 200.771515,15.025156 203.917587,15.661515 
	C205.059860,15.892565 205.969330,17.274601 206.998032,18.486282 
z"/>
<path fill="#0F0F0F" opacity="1.000000" stroke="none" 
	d="
M61.667404,47.071579 
	C56.573807,47.315434 51.930157,47.536934 47.286503,47.758434 
	C47.214809,47.366711 47.143112,46.974987 47.071415,46.583263 
	C50.937283,45.808659 54.803150,45.034058 58.834293,44.226337 
	C58.639904,43.754471 58.340694,43.028149 57.608685,41.251232 
	C61.213238,42.445637 64.120750,43.409069 68.322334,44.801311 
	C65.282120,45.902706 63.699730,46.475967 61.667404,47.071579 
z"/>
<path fill="#070707" opacity="1.000000" stroke="none" 
	d="
M187.660339,24.896980 
	C185.467606,26.850306 182.905609,28.800304 180.145309,30.351110 
	C182.395020,28.265829 184.843033,26.579742 187.660339,24.896980 
z"/>
<path fill="#EDEDED" opacity="1.000000" stroke="none" 
	d="
M219.003265,17.453024 
	C217.292572,17.857191 215.563705,17.985430 213.413452,18.008875 
	C214.354599,12.425797 216.826904,16.096268 219.003265,17.453024 
z"/>
<path fill="#070707" opacity="1.000000" stroke="none" 
	d="
M71.323044,49.597061 
	C70.633469,49.616627 69.872864,49.309322 69.112267,49.002022 
	C69.230003,48.763092 69.347748,48.524162 69.465485,48.285233 
	C70.060997,48.613552 70.656517,48.941875 71.323044,49.597061 
z"/>
<path fill="#070707" opacity="1.000000" stroke="none" 
	d="
M73.743362,44.328152 
	C74.819611,44.898407 75.895859,45.468666 76.972107,46.038921 
	C76.609711,46.458549 76.247314,46.878178 75.884911,47.297802 
	C75.368370,46.465611 74.851830,45.633419 74.061890,44.523190 
	C73.788506,44.245152 73.743362,44.328152 73.743362,44.328152 
z"/>
<path fill="#070707" opacity="1.000000" stroke="none" 
	d="
M22.712963,80.579636 
	C23.108068,79.818825 23.769409,79.388046 25.254089,78.420959 
	C24.602255,79.911934 24.321489,80.554146 23.791004,81.370529 
	C23.353926,81.333023 23.166563,81.121346 22.712963,80.579636 
z"/>
<path fill="#070707" opacity="1.000000" stroke="none" 
	d="
M11.917983,77.657562 
	C11.371028,77.980164 10.783488,77.946831 9.755781,77.860703 
	C10.169541,77.639160 11.023471,77.470398 11.917983,77.657562 
z"/>
<path fill="#070707" opacity="1.000000" stroke="none" 
	d="
M73.751312,44.188011 
	C73.743362,44.328152 73.788506,44.245152 73.738525,44.232346 
	C73.688545,44.219536 73.995285,44.073532 73.995285,44.073532 
	C73.995285,44.073532 73.759270,44.047871 73.751312,44.188011 
z"/>
<path fill="#E8E8E8" opacity="1.000000" stroke="none" 
	d="
M130.986206,107.039581 
	C131.752121,109.262985 132.518051,111.486382 133.357849,113.924248 
	C132.059723,115.525742 130.612701,117.310928 129.643204,118.506996 
	C127.163055,118.506996 125.196304,118.073410 123.513321,118.580902 
	C115.575516,120.974510 109.523178,118.742485 104.726669,110.990746 
	C106.327492,110.873405 107.538277,110.784660 109.054001,110.489586 
	C109.358955,110.283257 109.296516,110.359650 109.296516,110.359650 
	C110.652267,115.620605 113.492775,117.209137 121.130814,116.493210 
	C121.376442,116.145920 121.461082,116.174011 121.461082,116.174011 
	C125.980080,116.226028 124.854561,111.557205 126.962173,109.589165 
	C127.575165,109.016762 128.136978,108.389557 129.201553,107.355492 
	C130.115967,106.962204 130.551086,107.000893 130.986206,107.039581 
z"/>
<path fill="#E5E5E5" opacity="1.000000" stroke="none" 
	d="
M51.433998,94.295868 
	C50.137566,94.537651 49.193459,94.663383 48.249355,94.789116 
	C48.131779,94.562744 48.014202,94.336372 47.896626,94.110001 
	C50.690285,92.257431 53.483948,90.404869 56.820232,88.192467 
	C53.747185,86.674316 51.231449,85.431480 48.715710,84.188652 
	C48.791214,83.941666 48.866718,83.694687 48.942223,83.447708 
	C54.857147,83.447708 60.772072,83.447708 66.974884,83.447708 
	C62.712322,88.013214 58.027046,92.130516 51.433998,94.295868 
M56.765591,87.650734 
	C56.580776,87.582794 56.395962,87.514847 56.211147,87.446899 
	C56.267548,87.634674 56.323952,87.822441 56.765591,87.650734 
z"/>
<path fill="#E6E6E6" opacity="1.000000" stroke="none" 
	d="
M61.296413,97.915863 
	C59.755325,98.420189 58.153622,98.790306 56.684456,99.453865 
	C52.181335,101.487709 47.729076,103.634155 43.257038,105.736816 
	C42.941357,105.108482 42.625679,104.480148 42.309998,103.851814 
	C50.002277,99.238472 57.694557,94.625137 65.386833,90.011795 
	C65.615723,90.379959 65.844604,90.748123 66.073486,91.116287 
	C65.188049,92.563354 64.302605,94.010422 63.700077,95.978271 
	C63.087463,96.971321 62.191940,97.443596 61.296413,97.915863 
z"/>
<path fill="#E9E9E9" opacity="1.000000" stroke="none" 
	d="
M60.971191,98.410774 
	C62.191940,97.443596 63.087463,96.971321 64.150375,96.372330 
	C65.113022,95.792305 65.908287,95.339005 67.263123,94.848511 
	C67.822693,94.811317 68.133102,95.127060 68.133102,95.127060 
	C60.032341,102.650375 53.990864,112.742348 42.715565,116.213882 
	C48.692368,110.444481 54.669170,104.675087 60.971191,98.410774 
z"/>
<path fill="#E5E5E5" opacity="1.000000" stroke="none" 
	d="
M72.491013,65.547897 
	C73.799400,66.232224 74.775108,66.722115 76.317360,67.496452 
	C66.905121,67.945518 66.905121,67.945518 58.656460,60.430695 
	C63.157082,62.071617 67.657700,63.712540 72.491013,65.547897 
z"/>
<path fill="#E1E1E1" opacity="1.000000" stroke="none" 
	d="
M126.914536,100.867065 
	C121.973244,100.341110 117.031952,99.815163 112.642166,99.347916 
	C117.945702,95.568314 122.890640,95.688736 126.926285,100.567635 
	C126.974609,100.973801 126.914536,100.867065 126.914536,100.867065 
z"/>
<path fill="#E5E5E5" opacity="1.000000" stroke="none" 
	d="
M113.868233,105.040611 
	C116.518112,102.438370 119.239182,100.391426 122.915634,105.384041 
	C120.617340,105.631050 118.319046,105.878059 115.526176,105.719803 
	C114.643814,105.223236 114.256020,105.131920 113.868233,105.040611 
z"/>
<path fill="#070707" opacity="1.000000" stroke="none" 
	d="
M113.535194,105.067719 
	C114.256020,105.131920 114.643814,105.223236 115.200958,105.581497 
	C114.489914,106.781715 112.683479,108.032875 112.877266,108.597412 
	C114.284454,112.696762 111.326210,110.521759 109.676025,110.542862 
	C109.296516,110.359650 109.358955,110.283257 109.335732,110.240219 
	C110.609055,108.496399 111.905602,106.795609 113.535194,105.067719 
z"/>
<path fill="#070707" opacity="1.000000" stroke="none" 
	d="
M107.506477,105.694839 
	C106.725662,106.048851 106.079689,106.140564 105.433716,106.232277 
	C105.655724,105.697495 105.877731,105.162712 106.099731,104.627930 
	C106.613602,104.896133 107.127464,105.164330 107.506477,105.694839 
z"/>
<path fill="#070707" opacity="1.000000" stroke="none" 
	d="
M81.849380,85.113434 
	C82.772896,84.970024 83.474274,84.967972 84.461876,84.699722 
	C84.748100,84.433525 84.724457,84.364967 84.724457,84.364967 
	C84.846252,84.938614 84.968056,85.512268 84.824844,86.513863 
	C83.582306,86.379463 82.604782,85.817123 81.849380,85.113434 
z"/>
<path fill="#070707" opacity="1.000000" stroke="none" 
	d="
M126.921867,100.942749 
	C127.519806,101.468170 128.170486,102.024628 128.821167,102.581093 
	C128.535461,102.886253 128.249741,103.191406 127.964035,103.496567 
	C127.632767,102.855850 127.301498,102.215126 126.942383,101.220734 
	C126.914536,100.867065 126.974609,100.973801 126.921867,100.942749 
z"/>
<path fill="#070707" opacity="1.000000" stroke="none" 
	d="
M117.113403,114.889603 
	C118.148552,114.925476 119.183693,114.961342 120.609421,114.998604 
	C121.000000,115.000000 121.003784,115.002785 121.003784,115.002785 
	C121.063858,115.204010 121.123940,115.405243 121.322556,115.890244 
	C121.461082,116.174011 121.376442,116.145920 121.406860,116.180710 
	C120.127289,116.002991 118.817284,115.790482 117.270721,115.269684 
	C117.034157,114.961395 117.113403,114.889603 117.113403,114.889603 
z"/>
<path fill="#070707" opacity="1.000000" stroke="none" 
	d="
M130.950745,106.733215 
	C130.551086,107.000893 130.115967,106.962204 129.365372,107.029922 
	C129.251709,106.588600 129.453522,106.040878 129.655334,105.493164 
	C130.075302,105.804390 130.495285,106.115616 130.950745,106.733215 
z"/>
<path fill="#070707" opacity="1.000000" stroke="none" 
	d="
M31.676231,164.223633 
	C32.066517,164.019058 32.254955,163.983078 32.721642,164.020493 
	C32.575127,164.583435 32.150364,165.072952 31.725605,165.562469 
	C31.641863,165.172379 31.558123,164.782288 31.676231,164.223633 
z"/>
<path fill="#070707" opacity="1.000000" stroke="none" 
	d="
M122.267487,89.401138 
	C122.063156,89.011162 122.037628,88.808182 122.062622,88.302521 
	C122.605286,88.417732 123.097412,88.835625 123.589539,89.253525 
	C123.208458,89.365067 122.827370,89.476601 122.267487,89.401138 
z"/>
<path fill="#070707" opacity="1.000000" stroke="none" 
	d="
M68.863846,88.303772 
	C69.052727,88.609779 69.027252,88.947433 69.001785,89.285088 
	C68.766502,89.213638 68.531235,89.142189 68.295959,89.070740 
	C68.413795,88.825630 68.531639,88.580528 68.863846,88.303772 
z"/>
<path fill="#070707" opacity="1.000000" stroke="none" 
	d="
M112.085678,88.044098 
	C111.687599,88.357544 111.044540,88.588722 110.401474,88.819901 
	C110.431725,88.407524 110.461975,87.995140 110.768616,87.450630 
	C111.310234,87.532944 111.575462,87.747383 112.085678,88.044098 
z"/>
<path fill="#070707" opacity="1.000000" stroke="none" 
	d="
M120.998100,114.998016 
	C121.227318,114.469566 121.458443,113.943100 121.689560,113.416626 
	C121.897667,113.527222 122.105766,113.637825 122.313866,113.748428 
	C122.038597,114.092873 121.763329,114.437309 121.245926,114.892265 
	C121.003784,115.002785 121.000000,115.000000 120.998100,114.998016 
z"/>
<path fill="#FDFDFD" opacity="1.000000" stroke="none" 
	d="
M81.624390,49.185036 
	C81.828041,49.866745 81.723801,50.263542 81.619560,50.660336 
	C81.421181,50.541950 81.048195,50.413212 81.054504,50.306965 
	C81.082520,49.834499 81.219147,49.368473 81.624390,49.185036 
z"/>
<path fill="#070707" opacity="1.000000" stroke="none" 
	d="
M126.356796,92.255386 
	C126.371513,92.007889 126.504456,91.872940 126.637398,91.737991 
	C126.583275,91.947975 126.529144,92.157951 126.356796,92.255386 
z"/>
<path fill="#FBFBFB" opacity="1.000000" stroke="none" 
	d="
M81.030243,82.021072 
	C80.584366,82.373657 79.967247,82.536491 79.350121,82.699326 
	C79.569717,82.390144 79.789314,82.080956 80.263031,81.611519 
	C80.631088,81.577950 80.745041,81.704636 81.030243,82.021072 
z"/>
<path fill="#070707" opacity="1.000000" stroke="none" 
	d="
M37.453751,160.009460 
	C37.655380,159.692322 38.076241,159.381058 38.497097,159.069794 
	C38.543499,159.335175 38.589909,159.600586 38.373753,159.950287 
	C38.111187,160.034607 37.672985,160.015350 37.453751,160.009460 
z"/>
<path fill="#070707" opacity="1.000000" stroke="none" 
	d="
M60.642548,110.746071 
	C60.627773,110.992790 60.495197,111.127289 60.362621,111.261787 
	C60.416660,111.052475 60.470699,110.843163 60.642548,110.746071 
z"/>
<path fill="#FBFBFB" opacity="1.000000" stroke="none" 
	d="
M57.664299,113.406128 
	C57.822285,112.823364 58.181118,112.553696 58.539955,112.284019 
	C58.623821,112.846573 58.707687,113.409126 58.556511,114.139221 
	C58.169361,114.110909 58.017254,113.915062 57.664299,113.406128 
z"/>
<path fill="#070707" opacity="1.000000" stroke="none" 
	d="
M116.990715,114.992569 
	C116.823494,114.573692 116.699707,114.123642 116.575928,113.673599 
	C116.723450,113.925903 116.870964,114.178207 117.065941,114.660065 
	C117.113403,114.889603 117.034157,114.961395 116.990715,114.992569 
z"/>
<path fill="#070707" opacity="1.000000" stroke="none" 
	d="
M88.220573,102.977966 
	C88.356987,102.782318 88.801460,102.596870 89.195465,102.705261 
	C88.939545,102.995453 88.734085,102.991806 88.220573,102.977966 
z"/>
<path fill="#FDFDFD" opacity="1.000000" stroke="none" 
	d="
M77.320358,53.705772 
	C77.601227,53.935410 77.701607,54.328514 77.801987,54.721619 
	C77.540634,54.728455 77.279289,54.735287 76.905121,54.476265 
	C76.792297,54.210407 77.139870,53.869244 77.320358,53.705772 
z"/>
<path fill="#070707" opacity="1.000000" stroke="none" 
	d="
M15.549815,81.467468 
	C15.582623,81.522621 15.517007,81.412315 15.549815,81.467468 
z"/>
<path fill="#E9E9E9" opacity="1.000000" stroke="none" 
	d="
M67.676804,94.644798 
	C67.928413,94.378754 68.325928,94.279221 68.723434,94.179688 
	C68.710037,94.432884 68.696632,94.686089 68.408173,95.033173 
	C68.133102,95.127060 67.822693,94.811317 67.676804,94.644798 
z"/>
<path fill="#070707" opacity="1.000000" stroke="none" 
	d="
M40.033165,163.443512 
	C40.242085,163.437378 40.483334,163.792358 40.450768,164.334229 
	C40.139801,164.282288 40.102646,164.043457 40.033165,163.443512 
z"/>
<path fill="#070707" opacity="1.000000" stroke="none" 
	d="
M93.255127,107.970428 
	C93.154243,107.601425 93.416634,107.243164 93.720848,106.584999 
	C93.762680,106.285088 93.738991,106.187737 93.738991,106.187737 
	C94.023170,106.425400 94.307343,106.663063 94.468369,107.442528 
	C94.102951,107.983276 93.860672,107.982224 93.255127,107.970428 
z"/>
<path fill="#070707" opacity="1.000000" stroke="none" 
	d="
M114.531616,112.548927 
	C114.477066,112.581291 114.586159,112.516563 114.531616,112.548927 
z"/>
<path fill="#FDFDFD" opacity="1.000000" stroke="none" 
	d="
M22.655910,116.592766 
	C22.940691,116.365692 23.368515,116.319687 23.796341,116.273682 
	C23.762251,116.511215 23.728163,116.748749 23.404152,117.048569 
	C23.114229,117.110863 22.798956,116.773834 22.655910,116.592766 
z"/>
<path fill="#FBFBFB" opacity="1.000000" stroke="none" 
	d="
M34.734863,126.514832 
	C34.987221,126.475334 35.423073,126.731842 35.608948,127.169296 
	C35.212101,127.170448 35.065228,126.990639 34.734863,126.514832 
z"/>
<path fill="#070707" opacity="1.000000" stroke="none" 
	d="
M56.450294,143.532776 
	C56.417568,143.477707 56.483021,143.587860 56.450294,143.532776 
z"/>
<path fill="#FBFBFB" opacity="1.000000" stroke="none" 
	d="
M54.393860,145.504456 
	C54.885464,145.668243 55.377068,145.832031 55.361908,145.946014 
	C54.701382,145.765610 54.547619,145.635025 54.393860,145.504456 
z"/>
<path fill="#FBFBFB" opacity="1.000000" stroke="none" 
	d="
M55.078850,146.099945 
	C54.877171,146.577515 54.451778,146.851349 54.026390,147.125198 
	C53.933064,146.736511 53.839737,146.347824 54.070133,145.731796 
	C54.547619,145.635025 54.701382,145.765610 55.078850,146.099945 
z"/>
<path fill="#0A0A0A" opacity="1.000000" stroke="none" 
	d="
M191.500488,137.375427 
	C185.524841,130.757233 179.652145,123.776009 174.035065,116.594833 
	C168.267197,109.220932 165.646347,100.512817 164.202682,91.412086 
	C164.000153,90.135422 163.989822,88.652176 164.449478,87.484612 
	C165.305450,85.310425 166.773544,81.440880 167.634644,81.534004 
	C171.775024,81.981728 176.852417,80.851875 179.422867,85.687950 
	C179.834122,86.461678 179.305832,87.734779 179.202713,88.878853 
	C186.430664,89.866631 189.028885,95.698586 191.970795,102.097183 
	C191.901413,108.803688 191.585953,114.798759 191.374710,120.797501 
	C191.196289,125.863701 187.449127,131.086548 191.987228,135.963104 
	C191.896713,136.283600 191.806198,136.604095 191.500488,137.375427 
M181.481079,103.587532 
	C184.532364,101.014671 184.756546,103.748909 184.975723,105.638153 
	C185.139069,107.046036 184.625504,108.532448 184.413391,109.983887 
	C184.929169,110.078423 185.444946,110.172958 185.960724,110.267494 
	C186.313477,108.098518 187.308197,105.765244 186.808929,103.814316 
	C186.432541,102.343567 184.295151,100.801491 182.652740,100.355949 
	C181.513062,100.046783 179.794022,101.421021 178.524048,102.313713 
	C178.131088,102.589928 178.363098,103.755241 178.308975,104.513489 
	C179.173370,104.397514 180.037781,104.281540 181.481079,103.587532 
z"/>
<path fill="#F6F6F6" opacity="1.000000" stroke="none" 
	d="
M203.940216,157.525986 
	C204.134094,156.964798 203.931671,156.990524 203.912415,156.966202 
	C204.969650,158.578964 206.046143,160.216064 207.466187,162.019394 
	C207.974045,162.531570 208.138351,162.877502 208.559738,163.360870 
	C208.789597,163.790848 208.865692,164.053452 209.197479,164.429138 
	C209.509750,164.900742 209.669647,165.229340 209.995331,165.778503 
	C209.497696,166.704224 208.776581,168.068741 208.179398,168.016510 
	C197.754303,167.104630 187.429108,166.760162 177.636795,171.864807 
	C176.820160,170.601166 176.069687,169.524124 175.404480,168.396790 
	C171.288071,161.420547 172.798294,158.869766 181.186508,158.800797 
	C187.814438,158.746277 194.443680,158.858292 201.071838,158.817017 
	C201.964828,158.811462 202.854904,158.341888 203.940216,157.525986 
z"/>
<path fill="#E9E9E9" opacity="1.000000" stroke="none" 
	d="
M182.742889,56.869492 
	C181.882736,55.774792 181.404129,54.645519 180.606842,52.764317 
	C184.258026,48.720119 188.775208,44.616409 196.083359,44.951206 
	C194.077438,46.324337 192.071533,47.697472 189.362396,49.551983 
	C191.185547,50.024731 192.414276,50.343346 194.397354,50.857567 
	C190.235519,53.064339 186.679977,54.949631 182.742889,56.869492 
z"/>
<path fill="#F9F9F9" opacity="1.000000" stroke="none" 
	d="
M191.999390,135.538666 
	C187.449127,131.086548 191.196289,125.863701 191.374710,120.797501 
	C191.585953,114.798759 191.901413,108.803688 192.167633,102.395523 
	C192.445145,101.859268 192.665543,101.665047 192.913971,101.196823 
	C193.199875,108.577606 193.596329,116.165222 193.508942,123.747269 
	C193.465225,127.541504 192.538757,131.325562 191.999390,135.538666 
z"/>
<path fill="#F2F2F2" opacity="1.000000" stroke="none" 
	d="
M189.625519,57.087486 
	C193.461288,57.032509 196.871338,57.032509 200.477737,57.032509 
	C195.412323,62.884808 189.780762,63.890587 184.442032,59.630928 
	C186.164551,58.729996 187.682175,57.936230 189.625519,57.087486 
z"/>
<path fill="#D9D9D9" opacity="1.000000" stroke="none" 
	d="
M191.185287,65.106583 
	C194.029922,64.016899 196.555893,63.153965 199.081848,62.291031 
	C199.280563,62.791065 199.479279,63.291096 199.678009,63.791126 
	C196.301788,65.314209 192.925583,66.837288 189.549362,68.360374 
	C189.370834,68.150871 189.192307,67.941376 189.013779,67.731880 
	C189.631393,66.932365 190.249008,66.132851 191.185287,65.106583 
z"/>
<path fill="#FDFDFD" opacity="1.000000" stroke="none" 
	d="
M161.036011,39.065109 
	C160.959305,39.442390 160.650879,39.616512 160.342438,39.790627 
	C160.259857,39.534649 160.177277,39.278671 160.192535,38.772182 
	C160.461670,38.635098 160.632965,38.748524 161.036011,39.065109 
z"/>
<path fill="#FDFDFD" opacity="1.000000" stroke="none" 
	d="
M199.696777,86.300003 
	C199.455948,85.982002 199.215118,85.663994 198.974274,85.345993 
	C199.382080,85.270889 199.789871,85.195801 200.197250,85.500900 
	C200.030151,86.020737 199.863464,86.160370 199.696777,86.300003 
z"/>
<path fill="#FDFDFD" opacity="1.000000" stroke="none" 
	d="
M200.837646,87.057930 
	C200.363754,87.174538 200.098557,86.980408 199.765076,86.543137 
	C199.863464,86.160370 200.030151,86.020737 200.460587,85.689186 
	C200.936783,85.528618 201.104782,85.632133 201.300247,85.940514 
	C201.263550,86.297859 201.154938,86.522530 200.837646,87.057930 
z"/>
<path fill="#070707" opacity="1.000000" stroke="none" 
	d="
M209.299927,179.359924 
	C208.176285,180.522598 207.216095,181.364624 206.255905,182.206650 
	C205.756912,181.771698 205.257904,181.336746 204.758911,180.901810 
	C205.985840,179.252838 207.212753,177.603882 208.439682,175.954910 
	C208.780914,176.118164 209.122162,176.281418 209.463394,176.444672 
	C209.463394,177.309540 209.463394,178.174423 209.299927,179.359924 
z"/>
<path fill="#070707" opacity="1.000000" stroke="none" 
	d="
M190.564011,181.409698 
	C190.978714,180.236526 191.207214,179.327820 191.435730,178.419113 
	C191.823044,178.482437 192.210358,178.545761 192.597656,178.609100 
	C192.269714,180.200851 192.002731,181.811432 191.525681,183.357162 
	C191.474289,183.523605 190.202728,183.313431 189.497162,183.277954 
	C189.790726,182.743362 190.084274,182.208771 190.564011,181.409698 
z"/>
<path fill="#070707" opacity="1.000000" stroke="none" 
	d="
M179.083481,179.034775 
	C180.354797,179.093384 181.265305,179.174210 182.175797,179.255035 
	C182.244171,179.550522 182.312561,179.845993 182.380936,180.141479 
	C180.855209,180.717148 179.329498,181.292816 177.803772,181.868500 
	C177.551437,181.569534 177.299103,181.270584 177.046768,180.971634 
	C177.605392,180.333420 178.164032,179.695206 179.083481,179.034775 
z"/>
<path fill="#070707" opacity="1.000000" stroke="none" 
	d="
M182.526337,185.595413 
	C184.467789,185.536331 186.099518,185.536331 187.653671,185.536331 
	C187.010727,187.583603 185.262131,187.976578 181.849960,186.461121 
	C181.802032,186.439835 181.824966,186.151321 181.886124,186.021011 
	C181.953003,185.878510 182.102921,185.774994 182.526337,185.595413 
z"/>
<path fill="#070707" opacity="1.000000" stroke="none" 
	d="
M200.657410,183.833832 
	C200.589523,184.917297 200.344208,185.746765 200.098877,186.576218 
	C199.613800,186.268234 199.128738,185.960236 198.643677,185.652237 
	C199.255783,184.961441 199.867889,184.270645 200.657410,183.833832 
z"/>
<path fill="#070707" opacity="1.000000" stroke="none" 
	d="
M199.252808,178.448578 
	C199.077347,178.806015 198.750626,179.014359 198.423920,179.222717 
	C198.649780,178.914963 198.875656,178.607224 199.252808,178.448578 
z"/>
<path fill="#070707" opacity="1.000000" stroke="none" 
	d="
M204.600128,184.273712 
	C204.441711,184.148132 204.418991,183.931442 204.396271,183.714767 
	C204.509445,183.870728 204.622635,184.026688 204.600128,184.273712 
z"/>
<path fill="#070707" opacity="1.000000" stroke="none" 
	d="
M71.721725,164.474945 
	C77.182297,163.595917 82.922569,163.212769 89.109726,162.882690 
	C88.930557,163.451172 88.326790,164.381363 87.674950,164.416382 
	C82.455574,164.696747 77.227112,164.807892 71.721725,164.474945 
z"/>
<path fill="#070707" opacity="1.000000" stroke="none" 
	d="
M64.356079,169.587494 
	C63.749908,169.017914 63.544094,168.546860 63.338280,168.075775 
	C64.474922,167.721970 65.611565,167.368164 66.654282,167.514435 
	C65.959045,168.571686 65.357742,169.128860 64.356079,169.587494 
z"/>
<path fill="#070707" opacity="1.000000" stroke="none" 
	d="
M69.348595,166.360657 
	C69.454765,165.621094 69.919128,164.661255 70.952499,163.820435 
	C70.916595,164.673096 70.311691,165.406738 69.348595,166.360657 
z"/>
<path fill="#070707" opacity="1.000000" stroke="none" 
	d="
M64.816650,176.799438 
	C64.830086,176.024124 65.136047,175.496185 65.822586,174.311615 
	C65.918564,175.659042 65.961266,176.258499 65.881332,177.155655 
	C65.542198,177.317841 65.325691,177.182343 64.816650,176.799438 
z"/>
<path fill="#070707" opacity="1.000000" stroke="none" 
	d="
M92.564087,177.335083 
	C92.559853,177.101639 92.761070,176.726105 93.050110,176.603027 
	C93.137924,176.855469 92.769539,177.192963 92.564087,177.335083 
z"/>
<path fill="#070707" opacity="1.000000" stroke="none" 
	d="
M72.661514,194.200439 
	C73.035431,194.039917 73.356934,194.087250 73.678444,194.134583 
	C73.321999,194.225815 72.965553,194.317062 72.661514,194.200439 
z"/>
<path fill="#070707" opacity="1.000000" stroke="none" 
	d="
M32.758133,156.442352 
	C32.947605,155.812378 33.420540,155.559967 33.893471,155.307541 
	C33.920319,155.866196 33.947166,156.424850 33.833946,157.243042 
	C33.476452,157.275009 33.259022,157.047440 32.758133,156.442352 
z"/>
<path fill="#070707" opacity="1.000000" stroke="none" 
	d="
M84.744232,84.469574 
	C85.028000,84.630264 85.315628,84.754898 85.603256,84.879532 
	C85.354218,84.932304 85.105186,84.985077 84.790298,84.701408 
	C84.724457,84.364967 84.748100,84.433525 84.744232,84.469574 
z"/>
<path fill="#070707" opacity="1.000000" stroke="none" 
	d="
M87.643288,96.480438 
	C87.926704,96.222572 88.322792,96.171837 88.718880,96.121094 
	C88.680481,96.376320 88.642090,96.631554 88.330200,96.968811 
	C88.056702,97.050835 87.755959,96.687576 87.643288,96.480438 
z"/>
<path fill="#070707" opacity="1.000000" stroke="none" 
	d="
M93.749786,106.240417 
	C93.974106,106.468506 94.211327,106.741249 94.448555,107.013992 
	C94.266251,106.921257 94.083946,106.828522 93.820312,106.461761 
	C93.738991,106.187737 93.762680,106.285088 93.749786,106.240417 
z"/>
<path fill="#070707" opacity="1.000000" stroke="none" 
	d="
M33.913094,129.945160 
	C33.938763,130.137039 34.015919,130.345291 34.044399,130.560013 
	C34.049236,130.596451 33.845032,130.660614 33.737396,130.711960 
	C33.669678,130.532562 33.601955,130.353180 33.773693,130.091568 
	C34.013149,130.009354 33.948185,129.963715 33.913094,129.945160 
z"/>
<path fill="#070707" opacity="1.000000" stroke="none" 
	d="
M56.572971,87.830475 
	C56.323952,87.822441 56.267548,87.634674 56.211147,87.446899 
	C56.395962,87.514847 56.580776,87.582794 56.572971,87.830475 
z"/>
<path fill="#D9D9D9" opacity="1.000000" stroke="none" 
	d="
M181.191620,103.876556 
	C180.037781,104.281540 179.173370,104.397514 178.308975,104.513489 
	C178.363098,103.755241 178.131088,102.589928 178.524048,102.313713 
	C179.794022,101.421021 181.513062,100.046783 182.652740,100.355949 
	C184.295151,100.801491 186.432541,102.343567 186.808929,103.814316 
	C187.308197,105.765244 186.313477,108.098518 185.960724,110.267494 
	C185.444946,110.172958 184.929169,110.078423 184.413391,109.983887 
	C184.625504,108.532448 185.139069,107.046036 184.975723,105.638153 
	C184.756546,103.748909 184.532364,101.014671 181.191620,103.876556 
z"/>
</svg>