<?xml version="1.0" standalone="no"?>
<!DOCTYPE svg PUBLIC "-//W3C//DTD SVG 20010904//EN"
 "http://www.w3.org/TR/2001/REC-SVG-20010904/DTD/svg10.dtd">
<svg version="1.0" xmlns="http://www.w3.org/2000/svg"
 width="1024.000000pt" height="1024.000000pt" viewBox="0 0 1024.000000 1024.000000"
 preserveAspectRatio="xMidYMid meet">
<metadata>
Created by potrace 1.16, written by Peter Selinger 2001-2019
</metadata>
<g transform="translate(0.000000,1024.000000) scale(0.100000,-0.100000)"
fill="#000000" stroke="none">
<path d="M0 5120 l0 -5120 1446 0 c1090 0 1443 3 1438 12 -4 7 -3 8 5 4 6 -4
13 -1 16 6 2 7 18 150 35 318 17 168 50 503 75 745 24 242 55 564 69 715 14
151 28 290 31 309 l4 35 -62 -60 c-175 -169 -342 -267 -542 -315 -97 -23 -244
-25 -333 -4 -183 43 -361 175 -458 340 -14 25 -30 43 -35 39 -5 -3 -6 1 -4 8
3 8 -5 40 -19 73 -55 137 -70 227 -71 420 0 99 5 268 12 375 9 136 9 224 3
290 -6 52 -13 169 -16 260 -6 157 -4 177 30 399 31 196 37 254 34 360 -8 337
1 405 63 491 25 35 98 91 132 103 6 2 -17 59 -51 128 -125 253 -181 480 -189
769 -3 110 -1 230 6 295 18 167 28 311 46 635 27 509 36 559 101 586 49 21 89
17 121 -10 l28 -24 0 -389 1 -388 -6 382 -5 381 -24 26 c-44 47 -124 26 -155
-39 -21 -44 -30 -138 -51 -525 -18 -324 -28 -468 -46 -635 -18 -175 -6 -453
26 -605 36 -172 85 -313 155 -449 33 -63 60 -122 60 -131 0 -9 -16 -24 -35
-33 -52 -25 -108 -80 -134 -132 -30 -60 -44 -176 -36 -294 12 -172 6 -268 -31
-504 -34 -220 -36 -241 -30 -397 3 -91 10 -208 16 -260 6 -66 6 -154 -3 -290
-7 -107 -12 -278 -11 -380 1 -167 4 -195 28 -283 31 -114 54 -167 114 -262 86
-135 237 -255 384 -306 95 -33 266 -38 378 -11 190 46 353 141 526 304 39 38
76 68 83 68 7 0 9 -13 6 -38 -3 -20 -17 -161 -31 -312 -14 -151 -45 -473 -69
-715 -25 -242 -58 -575 -75 -740 -16 -165 -32 -310 -35 -322 -5 -20 -1 -23 24
-23 29 0 29 0 35 78 4 42 14 134 22 203 16 141 26 239 54 514 11 105 24 235
30 290 13 123 67 642 81 785 6 58 14 166 17 240 l8 136 52 64 c28 35 58 78 67
95 10 21 15 24 15 12 0 -21 -21 -54 -87 -135 -42 -53 -43 -55 -43 -130 0 -92
-35 -460 -100 -1067 -6 -55 -19 -185 -30 -290 -28 -275 -38 -373 -54 -514 -8
-69 -18 -161 -22 -203 l-6 -78 1971 0 1971 0 0 28 c0 15 -5 106 -11 202 -6 96
-14 301 -17 455 l-7 280 -30 3 c-87 9 -381 68 -531 107 -342 89 -763 253 -913
354 -33 23 -68 41 -78 41 -31 0 -271 83 -331 114 -43 23 -79 67 -93 116 -7 25
-13 46 -14 48 -1 1 -32 -9 -69 -23 -112 -42 -324 -93 -439 -106 -184 -20 -390
11 -503 76 -22 13 -65 27 -95 30 -220 26 -389 93 -403 162 -6 31 -43 379 -50
483 -9 110 20 -106 39 -303 21 -206 23 -210 118 -256 76 -37 154 -58 272 -72
65 -7 100 -17 126 -34 98 -64 311 -96 496 -76 116 13 340 67 439 107 33 13 65
24 71 24 6 0 13 -19 17 -42 10 -64 78 -125 181 -162 177 -63 218 -76 242 -76
13 0 51 -18 83 -40 99 -67 361 -182 605 -266 175 -61 475 -136 670 -169 88
-15 170 -29 183 -31 22 -4 22 -5 22 -207 0 -111 4 -272 9 -357 6 -85 13 -212
16 -283 l7 -127 28 0 c26 0 27 1 24 48 -11 144 -25 447 -30 662 l-7 245 184 1
c222 1 301 18 415 89 163 102 260 264 313 525 58 282 75 544 68 1029 -6 387
-15 521 -62 876 -62 462 -141 821 -221 993 -71 155 -175 278 -314 372 -90 61
-351 192 -565 284 -99 43 -193 84 -210 91 -16 7 -102 43 -190 79 -88 36 -173
74 -190 83 -72 39 -234 115 -272 127 -40 13 -53 80 -53 277 l0 177 42 53 c84
106 166 237 229 366 57 117 67 132 89 132 182 5 388 192 474 431 35 96 42 171
26 290 -12 93 -12 99 7 126 74 105 151 345 184 573 16 116 6 349 -21 476 -48
224 -155 407 -326 556 -80 70 -209 152 -257 164 -18 5 -32 17 -38 34 -36 93
-96 166 -193 235 -156 111 -330 166 -631 201 -171 20 -481 20 -605 0 -324 -52
-663 -206 -986 -448 -338 -254 -569 -584 -614 -880 -14 -92 0 -146 42 -161 50
-18 73 3 93 84 10 39 19 69 22 67 2 -3 -1 -26 -8 -51 -6 -26 -9 -49 -6 -52 3
-3 11 20 18 52 7 31 15 52 17 46 2 -6 -7 -46 -19 -89 -30 -101 -32 -328 -5
-438 29 -123 90 -229 183 -324 l82 -83 0 -127 c0 -168 32 -315 88 -405 18 -28
29 -68 39 -143 32 -229 90 -385 209 -563 110 -166 273 -331 428 -433 l77 -52
0 -65 c0 -89 -7 -109 -39 -116 -55 -11 -199 -57 -281 -89 -47 -18 -208 -70
-358 -114 -353 -106 -438 -139 -575 -227 -94 -61 -239 -210 -302 -312 -27 -45
-55 -81 -61 -82 -7 0 -13 33 -16 88 -8 142 -52 221 -163 293 -84 54 -87 76
-15 148 27 27 74 87 104 133 94 145 138 255 230 585 25 90 73 237 106 328 69
190 75 241 35 280 -46 47 -117 32 -196 -42 -62 -58 -107 -134 -162 -271 -40
-99 -60 -130 -66 -100 -1 7 -6 299 -11 648 -9 641 -16 785 -44 839 -35 68
-112 82 -168 32 l-33 -29 -3 -476 c-2 -411 -5 -476 -17 -476 -13 0 -15 71 -15
534 0 590 0 588 -63 626 -58 36 -110 20 -145 -43 -15 -29 -17 -82 -22 -556 -4
-407 -8 -525 -17 -529 -10 -3 -13 96 -13 475 0 456 -1 479 -20 510 -22 36 -66
63 -105 63 -36 0 -81 -47 -95 -101 -8 -29 -15 -211 -20 -534 l-8 -490 3 495
c4 526 8 572 54 614 45 41 142 25 178 -30 17 -26 18 -65 23 -514 l5 -485 3
511 c2 546 5 576 54 620 29 27 108 26 144 -2 51 -38 52 -49 56 -624 l3 -535 5
470 c5 432 7 473 23 498 23 36 61 50 115 44 96 -10 110 -57 122 -402 5 -143
10 -451 10 -685 1 -234 5 -434 9 -444 6 -16 14 -3 40 60 64 156 101 224 148
275 75 81 157 108 222 74 60 -31 57 -91 -19 -300 -33 -91 -81 -238 -106 -328
-60 -216 -89 -305 -130 -405 -19 -46 -31 -89 -28 -95 4 -7 4 -9 -1 -5 -4 4
-34 -33 -66 -82 -32 -50 -81 -113 -109 -141 -63 -63 -63 -84 0 -118 111 -62
168 -159 177 -308 l6 -81 60 91 c73 112 196 238 295 302 111 71 256 127 601
231 173 52 320 99 325 103 16 13 262 91 285 91 29 0 41 30 41 102 l0 63 -77
52 c-43 28 -116 86 -162 128 -280 254 -429 527 -473 869 -7 60 -19 105 -35
132 -60 106 -94 257 -94 422 l0 124 -65 60 c-35 33 -78 82 -96 109 -17 27 -35
46 -41 42 -6 -3 -7 -1 -3 5 3 6 -7 44 -23 84 -16 40 -34 100 -42 133 -14 67
-18 270 -7 355 6 42 5 49 -3 30 -13 -31 -26 -40 -65 -40 -41 0 -61 17 -74 67
-26 101 44 330 160 518 204 333 617 652 1065 823 249 95 397 122 669 122 340
0 629 -48 826 -137 143 -65 269 -178 311 -278 22 -54 26 -58 97 -90 236 -109
421 -324 511 -593 53 -155 76 -437 51 -602 -34 -220 -117 -481 -183 -574 -19
-26 -19 -34 -8 -105 15 -102 14 -165 -4 -236 -39 -147 -100 -257 -198 -356
-79 -79 -162 -125 -258 -141 l-65 -11 -47 -99 c-26 -55 -44 -104 -41 -110 4
-7 3 -8 -4 -4 -7 4 -20 -10 -33 -36 -26 -51 -117 -185 -171 -249 l-38 -47 0
-176 c0 -232 4 -243 106 -286 68 -28 188 -87 224 -110 8 -5 130 -57 270 -116
512 -213 759 -331 897 -426 83 -57 189 -165 228 -232 15 -26 32 -43 37 -39 6
3 8 2 5 -4 -4 -6 9 -47 28 -92 103 -245 199 -739 261 -1341 21 -211 30 -853
15 -1076 -28 -395 -93 -687 -186 -835 -128 -201 -351 -292 -674 -276 l-114 6
6 -232 c8 -264 26 -661 33 -694 l4 -23 1620 0 1620 0 0 5120 0 5120 -5120 0
-5120 0 0 -5120z m5233 2060 c84 -19 182 -10 249 24 65 33 92 32 96 -5 10 -82
-174 -180 -304 -163 -106 14 -234 103 -234 162 0 40 21 44 87 16 28 -12 76
-28 106 -34z m-1159 20 c51 -26 70 -30 140 -30 80 0 191 22 210 41 14 13 64
11 69 -3 10 -29 -17 -66 -76 -105 -77 -53 -134 -73 -204 -73 -138 0 -282 107
-243 180 14 27 35 25 104 -10z m832 -980 c89 -11 205 -49 236 -77 23 -21 24
-63 2 -63 -9 0 -47 11 -84 24 -155 56 -356 60 -458 10 -31 -16 -60 -30 -63
-32 -14 -6 -37 29 -32 48 7 28 115 78 188 88 100 13 121 13 211 2z m1148 -835
c74 -34 76 -35 76 -70 0 -171 -229 -428 -487 -546 -286 -131 -626 -164 -913
-88 -171 45 -274 101 -381 208 -97 97 -142 183 -147 283 -6 107 -4 111 86 142
42 14 81 26 85 26 4 0 7 -27 7 -61 0 -116 65 -204 226 -304 86 -54 131 -69
259 -90 187 -31 393 -15 544 42 184 68 293 135 392 239 58 61 133 179 144 227
4 15 13 27 20 27 7 0 47 -16 89 -35z m263 -126 c71 -28 152 -62 181 -75 29
-13 55 -24 57 -24 2 0 28 -11 57 -24 29 -13 91 -40 138 -60 162 -70 206 -91
350 -163 143 -71 280 -157 287 -179 2 -7 -24 -32 -59 -57 -265 -189 -480 -620
-577 -1157 -39 -216 -52 -385 -58 -742 -3 -192 -7 -348 -8 -348 -2 0 -113 23
-246 51 -134 28 -287 59 -339 70 -52 11 -147 22 -210 25 -88 5 -136 13 -205
35 -87 28 -284 69 -328 69 -12 0 -35 -7 -51 -15 -15 -8 -45 -15 -64 -15 -40 0
-56 14 -279 262 -95 106 -237 242 -293 281 l-22 16 21 212 c14 143 18 216 11
224 -7 8 -2 66 15 179 24 165 25 167 60 200 37 35 39 41 35 126 -2 64 -22 93
-86 121 -45 20 -54 43 -54 140 0 83 -74 127 -280 164 -127 23 -577 33 -740 15
-136 -14 -277 -43 -319 -64 -16 -9 -34 -16 -39 -16 -5 0 -12 57 -16 127 -8
138 -17 173 -43 152 -12 -11 -14 -49 -12 -256 l3 -244 -30 -15 c-64 -33 -72
-48 -72 -137 0 -79 1 -82 33 -111 32 -30 33 -34 50 -179 9 -81 15 -167 13
-190 -4 -38 13 -237 71 -842 17 -174 24 -215 41 -237 26 -36 26 -41 -11 -107
-79 -140 -296 -380 -429 -473 -216 -153 -479 -220 -675 -174 -210 50 -394 216
-473 428 -49 131 -65 249 -65 463 1 110 6 259 12 330 8 101 7 181 -5 362 -11
177 -12 260 -5 349 14 157 53 414 63 414 4 0 30 -16 56 -35 65 -46 172 -90
257 -105 99 -17 320 -8 410 17 111 31 230 98 307 174 46 44 71 63 76 55 7 -9
37 -173 57 -311 50 -350 60 -762 25 -1004 -14 -95 -66 -319 -81 -347 -12 -24
-9 -58 6 -57 6 0 18 13 27 29 20 34 68 215 78 294 7 49 8 51 9 15 1 -46 -52
-263 -77 -315 -11 -23 -24 -35 -37 -35 -28 0 -24 40 15 185 40 151 59 268 68
442 12 203 -7 541 -43 793 -8 54 -48 300 -49 302 -1 1 -31 -26 -68 -61 -77
-74 -188 -135 -303 -166 -101 -28 -316 -38 -420 -20 -90 16 -207 62 -267 106
-27 19 -48 28 -48 21 0 -6 -9 -68 -20 -137 -37 -237 -42 -354 -26 -603 12
-179 13 -258 5 -360 -18 -223 -16 -508 5 -612 39 -197 104 -323 227 -439 140
-132 273 -182 459 -173 203 11 388 93 578 256 126 108 279 291 357 427 17 30
17 32 -3 60 -23 31 -20 10 -91 754 -15 162 -26 314 -23 337 2 24 -3 107 -13
185 -16 140 -17 144 -48 170 -31 25 -31 29 -34 116 -3 101 8 126 68 155 l32
15 -2 239 c-2 250 3 282 41 268 22 -9 26 -29 34 -166 l7 -116 46 17 c138 53
354 74 691 67 287 -6 377 -16 515 -59 97 -30 135 -68 135 -136 0 -90 8 -110
54 -131 65 -29 84 -56 86 -126 4 -98 2 -106 -36 -142 -36 -33 -36 -35 -60
-190 -15 -105 -20 -161 -13 -169 6 -8 3 -84 -11 -224 l-22 -212 24 -16 c33
-24 226 -201 235 -217 5 -7 73 -83 152 -169 130 -140 147 -156 177 -156 18 0
35 4 39 9 20 34 218 10 400 -48 69 -22 117 -30 205 -35 63 -3 158 -14 210 -25
205 -42 536 -111 556 -116 21 -5 21 -5 27 338 6 352 19 523 58 737 98 540 319
990 574 1166 30 20 55 41 55 45 0 11 -71 59 -176 119 -47 28 -87 50 -88 50 -2
0 -69 32 -150 70 -80 39 -148 70 -151 70 -2 0 -28 11 -57 24 -113 51 -299 130
-418 178 -69 28 -128 52 -133 55 -4 2 -9 -2 -11 -9 -43 -154 -89 -234 -205
-349 -225 -223 -556 -348 -926 -349 -417 0 -742 162 -872 436 -24 51 -36 92
-41 146 l-7 76 -210 -64 c-450 -137 -554 -180 -693 -284 -105 -77 -176 -158
-277 -310 -96 -146 -97 -152 -70 -295 69 -354 112 -814 102 -1070 l-6 -150 36
-130 c21 -77 37 -154 37 -190 1 -54 -1 -60 -21 -63 -19 -3 -23 4 -33 55 -7 32
-19 84 -27 117 -8 32 -12 60 -10 63 3 2 13 -31 22 -74 32 -143 36 -154 48
-150 22 7 11 109 -26 242 l-36 130 6 150 c10 256 -33 716 -102 1070 -28 149
-26 158 71 305 167 255 311 370 584 468 70 25 603 192 614 192 2 0 6 -35 9
-79 4 -62 12 -93 38 -146 88 -176 266 -317 483 -384 259 -80 636 -63 896 39
305 120 556 367 604 593 4 15 8 27 11 27 3 0 62 -23 132 -51z m-3597 -366 c65
-62 89 -128 97 -267 7 -136 -9 -266 -42 -321 -56 -96 -202 -186 -365 -225
-221 -52 -517 -4 -633 104 -50 47 -57 78 -59 288 -2 183 -1 196 21 245 24 54
89 123 116 123 20 0 21 -132 0 -189 -42 -119 101 -211 330 -211 235 0 445 114
486 265 13 46 5 87 -16 79 -13 -5 -15 7 -15 75 0 98 7 101 80 34z m4775 -265
c78 -104 123 -205 180 -407 66 -234 117 -527 170 -976 33 -272 46 -926 25
-1225 -32 -452 -118 -743 -256 -869 -169 -155 -405 -185 -859 -110 -447 73
-882 210 -1227 386 -60 30 -108 60 -107 66 0 7 19 26 42 42 86 63 198 238 237
370 59 203 81 396 61 539 -13 92 -11 96 62 96 70 0 157 -14 492 -81 648 -129
801 -182 960 -331 66 -61 95 -76 95 -48 0 4 -20 31 -45 58 -47 53 -157 130
-228 162 -50 22 -35 27 17 5 128 -54 280 -193 262 -241 -10 -27 -39 -13 -111
54 -164 153 -306 202 -950 331 -341 68 -441 84 -505 79 l-45 -3 5 -55 c35
-383 -93 -790 -297 -946 l-43 -33 58 -31 c337 -183 800 -332 1267 -409 465
-77 689 -46 855 119 143 141 218 395 250 850 21 299 8 953 -25 1225 -53 449
-104 743 -170 976 -55 195 -117 326 -200 423 l-33 40 -57 -38 c-305 -202 -537
-736 -610 -1401 -33 -303 -31 -809 3 -822 10 -4 21 2 30 18 29 47 228 234 285
268 105 62 177 74 177 31 0 -13 -17 -26 -55 -44 -85 -39 -194 -118 -273 -200
l-72 -73 108 -7 c169 -12 347 -56 480 -122 60 -29 72 -39 72 -60 0 -13 -6 -27
-13 -30 -8 -3 -51 13 -96 35 -74 36 -151 58 -316 90 l-50 10 60 -6 c91 -8 233
-47 319 -87 64 -29 78 -33 83 -20 6 17 9 14 -45 48 -50 31 -216 89 -317 110
-39 8 -121 18 -182 22 -62 4 -113 11 -113 15 0 5 32 42 70 83 77 81 185 160
273 201 31 14 57 30 57 35 0 34 -67 15 -165 -48 -76 -48 -234 -197 -267 -250
-16 -26 -26 -32 -47 -30 -26 3 -26 4 -34 118 -11 151 -1 543 18 712 58 521
200 941 415 1226 77 103 218 222 261 222 10 0 38 -28 64 -62z m-3150 -92 c112
-18 215 -49 244 -74 16 -14 21 -37 29 -137 5 -66 7 -125 5 -131 -2 -7 -32 -21
-67 -32 -285 -94 -1024 -81 -1271 22 l-35 15 0 83 c1 107 23 176 66 200 42 24
185 55 314 67 154 14 593 6 715 -13z m-1133 -323 c8 -67 211 -118 575 -143
247 -18 616 13 789 64 56 17 100 56 90 81 -8 21 17 29 46 14 34 -18 38 -28 38
-95 0 -72 -15 -90 -102 -122 -308 -113 -1057 -117 -1389 -6 -101 33 -114 48
-115 136 0 59 3 71 20 84 30 21 44 17 48 -13z m163 -278 c173 -37 301 -48 565
-48 273 -1 458 17 624 58 55 14 102 23 104 20 5 -5 -44 -355 -51 -361 -3 -3
-36 -16 -73 -29 -267 -92 -890 -95 -1194 -5 -36 11 -73 25 -82 32 -13 10 -21
52 -36 183 -10 94 -17 174 -14 178 2 5 14 6 26 2 11 -3 71 -17 131 -30z m-38
-394 c163 -54 273 -66 613 -66 338 1 425 10 594 66 49 16 91 27 94 24 3 -3 -4
-107 -16 -233 -12 -125 -27 -290 -32 -367 -17 -214 -7 -191 -113 -262 -127
-85 -243 -145 -367 -189 -94 -33 -118 -37 -231 -42 -201 -7 -443 42 -518 106
l-31 27 -20 220 c-12 121 -32 335 -45 475 -28 283 -27 270 -21 270 3 0 44 -13
93 -29z m2148 -926 c66 -14 141 -32 166 -40 45 -15 46 -17 59 -73 25 -107 15
-317 -21 -472 -65 -271 -206 -487 -332 -506 -28 -5 -147 32 -312 96 -70 27
-108 94 -86 153 11 29 37 35 72 16 16 -8 19 -17 14 -39 -3 -16 -2 -31 4 -35
45 -27 190 207 255 413 54 172 68 312 41 415 -20 76 -19 97 3 97 9 0 71 -11
137 -25z m-2080 -94 c18 -30 251 -81 382 -83 63 -1 80 -4 76 -15 -3 -7 -12
-13 -21 -13 -18 0 -102 -52 -126 -79 -29 -32 -24 -80 12 -113 32 -28 41 -48
22 -48 -5 0 -28 -18 -50 -40 -33 -33 -40 -47 -40 -79 0 -32 6 -44 34 -69 19
-16 40 -32 48 -34 10 -4 7 -11 -9 -30 -45 -49 -14 -113 61 -125 21 -3 36 -11
36 -19 0 -18 -6 -18 -125 6 -118 24 -216 57 -251 85 -23 19 -25 30 -49 280
-13 143 -27 288 -30 323 -6 51 -4 62 9 62 8 0 17 -4 21 -9z m1005 -505 c0 -32
-260 -75 -485 -80 -134 -3 -142 -2 -45 3 l115 7 -120 3 -120 4 157 8 c164 8
338 30 423 53 65 18 75 19 75 2z"/>
<path d="M5060 7220 c-34 -21 41 -106 135 -152 73 -36 191 -28 272 19 80 47
132 131 78 127 -11 -1 -47 -14 -80 -28 -97 -41 -219 -34 -346 22 -26 11 -52
17 -59 12z"/>
<path d="M3982 7208 c-19 -19 -14 -35 25 -79 50 -55 105 -81 184 -87 83 -6
125 8 211 67 114 78 112 122 -4 79 -52 -19 -83 -23 -173 -23 -100 0 -115 3
-166 28 -65 31 -61 31 -77 15z"/>
<path d="M4696 6209 c-64 -9 -129 -37 -165 -70 -20 -19 -21 -23 -8 -36 13 -13
18 -13 43 6 91 65 311 67 496 4 79 -27 101 -26 82 5 -43 68 -276 116 -448 91z"/>
<path d="M5946 5365 c-38 -114 -177 -271 -307 -348 -69 -40 -239 -109 -329
-133 -30 -8 -116 -18 -190 -21 -224 -10 -401 25 -527 104 -155 96 -212 173
-222 295 l-6 66 -68 -22 c-38 -12 -73 -29 -78 -37 -15 -24 -10 -136 8 -181 55
-141 212 -288 388 -361 129 -54 312 -82 489 -74 332 14 603 121 815 322 112
107 187 226 198 315 l6 49 -76 35 c-42 20 -78 36 -81 36 -2 0 -11 -20 -20 -45z"/>
<path d="M2650 4862 c0 -57 3 -70 14 -66 23 9 29 -49 12 -111 -42 -144 -255
-255 -488 -255 -189 0 -321 56 -347 148 -6 21 -5 46 5 80 9 28 14 78 12 113
l-3 64 -40 -37 c-23 -20 -52 -58 -65 -85 -24 -47 -25 -54 -22 -240 1 -106 6
-203 11 -216 25 -65 134 -133 266 -167 108 -28 288 -27 404 0 146 35 287 121
351 216 34 48 49 131 50 264 0 155 -27 247 -92 306 -70 64 -68 65 -68 -14z"/>
<path d="M3630 4539 c-150 -14 -276 -44 -316 -74 -39 -30 -57 -96 -52 -195 3
-74 7 -78 114 -105 296 -75 909 -75 1161 0 83 25 82 23 72 155 -9 105 -12 117
-35 136 -33 28 -109 51 -230 70 -121 19 -560 27 -714 13z m735 -63 c55 -9 106
-23 114 -31 20 -20 13 -20 -120 2 -79 12 -175 17 -400 17 l-296 1 -27 -32
c-24 -29 -79 -54 -141 -65 -47 -9 269 -29 447 -29 307 0 514 30 581 83 31 24
41 27 52 18 52 -43 -56 -86 -288 -115 -413 -51 -977 -7 -977 76 0 23 23 25 40
4 7 -8 20 -15 28 -15 13 0 12 3 -3 14 -19 14 -19 15 5 34 44 36 135 45 470 45
l315 1 -230 6 -230 7 280 -3 c198 -1 309 -7 380 -18z"/>
<path d="M3565 4473 c-84 -8 -147 -23 -171 -42 l-25 -20 38 -10 c109 -28 169
-18 217 39 13 16 34 30 47 33 28 5 -49 5 -106 0z"/>
<path d="M4549 4424 c-49 -59 -282 -95 -619 -95 -199 0 -453 20 -515 40 -26 9
-23 10 20 6 46 -4 47 -4 15 5 -19 5 -46 7 -59 4 -13 -3 -34 2 -47 11 -14 9
-24 11 -24 5 0 -6 16 -18 35 -26 218 -91 1006 -77 1196 21 29 16 36 29 20 39
-5 3 -15 -1 -22 -10z"/>
<path d="M3175 4217 c-15 -12 -19 -27 -20 -77 -1 -56 2 -64 27 -85 64 -54 280
-98 565 -115 399 -25 862 31 963 116 27 23 30 32 30 79 0 43 -5 59 -22 75 -29
27 -46 26 -41 -4 10 -49 -66 -82 -264 -116 -255 -44 -602 -46 -878 -5 -227 34
-326 69 -335 118 -5 26 -7 27 -25 14z"/>
<path d="M3226 3938 c2 -12 11 -88 19 -168 9 -79 21 -150 27 -157 6 -7 40 -22
77 -33 300 -89 904 -88 1184 1 48 15 71 28 77 43 9 23 53 326 48 331 -2 1 -46
-8 -98 -21 -162 -40 -349 -58 -620 -57 -135 0 -292 5 -350 12 -91 11 -281 47
-346 66 -18 6 -21 3 -18 -17z"/>
<path d="M3254 3512 c3 -26 17 -168 31 -317 61 -650 51 -577 86 -606 77 -67
244 -104 464 -104 150 0 165 2 245 29 121 41 194 77 178 89 -9 6 -8 7 5 3 10
-3 33 1 50 10 45 23 241 155 249 168 4 6 8 31 8 56 0 39 9 145 56 647 l7 72
-89 -29 c-174 -55 -259 -64 -594 -65 -338 0 -445 11 -613 65 l-89 28 6 -46z
m686 -188 c0 -9 9 -18 20 -21 14 -4 20 -12 18 -27 -2 -16 3 -22 21 -24 13 -2
28 1 34 7 19 19 37 12 37 -13 0 -13 8 -34 18 -46 15 -19 22 -21 40 -11 33 18
36 -4 6 -44 -27 -36 -44 -38 -44 -4 0 11 -4 17 -10 14 -22 -13 -10 -74 20
-108 35 -41 46 -84 32 -126 -8 -23 -7 -34 5 -51 9 -13 19 -37 22 -54 5 -21 13
-32 28 -34 31 -5 46 -27 39 -58 -7 -25 -8 -26 -26 -9 -11 10 -26 15 -36 11
-14 -5 -14 -9 -3 -24 13 -16 13 -16 -5 -2 -18 14 -19 13 -13 -2 3 -10 2 -18
-3 -18 -5 0 -8 14 -8 31 1 20 4 26 9 17 7 -10 9 -10 9 0 0 6 11 12 24 12 13 0
26 -6 29 -12 2 -7 8 -9 13 -5 11 11 -10 42 -27 41 -8 -1 -23 -5 -34 -9 -19 -6
-19 -6 -2 8 10 8 14 18 9 21 -5 3 -24 -13 -42 -36 -30 -36 -32 -43 -20 -62 27
-42 40 -71 40 -89 0 -29 -32 -16 -41 15 -4 15 -16 40 -28 57 -28 38 -27 42 14
91 40 47 42 58 19 102 -12 24 -14 36 -5 55 18 40 13 68 -19 98 -16 16 -30 35
-30 43 0 8 14 -3 31 -24 39 -49 39 -49 39 -37 0 6 -13 27 -30 48 -40 50 -40
125 -1 125 14 1 14 2 -1 11 -10 5 -20 26 -24 45 -5 25 -10 32 -17 25 -17 -17
-74 -13 -81 5 -3 9 -4 20 -1 24 3 5 -4 11 -15 15 -11 3 -20 14 -20 23 0 13 -3
12 -16 -6 -8 -12 -21 -22 -28 -22 -9 0 -12 -9 -9 -24 4 -20 0 -25 -25 -31 -17
-3 -40 -1 -51 5 -19 10 -21 8 -21 -19 0 -29 -14 -41 -50 -41 -23 0 -45 26 -30
35 6 4 9 1 8 -7 -2 -8 7 -13 27 -13 27 0 30 4 33 33 3 33 19 41 39 21 13 -13
63 -4 63 12 0 6 -4 8 -9 5 -5 -4 -7 3 -4 14 3 11 12 20 19 20 8 0 19 9 26 20
15 24 38 26 38 4z m-297 -159 c4 -8 25 -28 48 -45 24 -17 35 -30 26 -30 -9 0
-34 17 -57 39 l-40 38 -18 -41 -18 -41 28 -3 c15 -2 28 -8 28 -13 0 -5 11 -7
25 -4 74 15 80 16 65 5 -8 -5 -25 -10 -37 -10 -15 0 -28 -10 -38 -30 -9 -16
-20 -30 -26 -30 -6 0 -7 5 -4 10 8 13 -5 13 -25 0 -13 -9 -13 -10 0 -10 13 0
13 -1 0 -10 -12 -8 -11 -10 8 -10 28 0 29 -20 1 -27 -12 -4 -16 -9 -10 -12 6
-4 -11 -17 -39 -28 -42 -18 -51 -19 -61 -7 -7 9 -8 14 -1 14 6 0 12 -4 14 -9
2 -5 14 -3 28 4 24 14 24 14 3 15 -12 0 -24 4 -27 9 -3 4 7 6 22 4 23 -4 24
-3 9 7 -9 6 -27 10 -39 8 -12 -2 -23 3 -25 12 -3 9 -1 11 4 4 5 -6 18 -7 33
-3 14 4 18 8 10 9 -8 1 8 12 35 26 l50 24 -50 -3 c-27 -2 -41 -2 -30 1 l20 4
-20 9 c-12 5 -3 6 25 2 25 -3 53 -10 63 -15 11 -5 17 -5 17 2 0 21 -6 24 -45
23 l-40 -1 40 8 c39 7 39 7 8 9 -18 0 -33 4 -33 7 0 3 10 28 22 55 23 49 41
61 51 34z m132 -26 c5 -22 0 -44 -18 -82 -31 -64 -33 -71 -23 -126 6 -29 11
-39 16 -30 5 7 4 21 -1 30 -18 34 -10 74 20 103 20 19 27 34 23 49 -3 12 -2
19 2 16 9 -9 16 -70 7 -65 -4 3 -17 -2 -29 -10 -16 -11 -22 -25 -21 -52 0 -33
1 -35 10 -14 5 13 7 27 5 31 -3 4 6 7 19 7 19 0 22 -3 15 -17 -9 -15 -1 -52
21 -104 7 -14 8 -10 4 15 l-5 35 14 -35 c13 -30 15 -32 15 -11 1 13 4 22 7 18
4 -3 3 -18 0 -34 -6 -21 -9 -24 -17 -12 -6 10 -9 6 -10 -16 l-1 -30 -7 30 c-7
30 -7 30 -15 6 -7 -21 -3 -29 27 -54 51 -40 57 -82 22 -142 -31 -53 -27 -80
15 -88 39 -8 133 3 142 17 10 15 -2 56 -24 85 -27 35 -23 83 9 112 l27 24 -22
-29 c-27 -35 -28 -73 -2 -106 11 -14 20 -20 20 -14 0 5 -7 19 -15 30 -23 30
-18 53 19 90 21 21 36 47 39 67 l4 32 1 -36 c2 -28 -5 -42 -33 -69 -39 -38
-42 -50 -19 -85 9 -13 22 -44 28 -67 12 -39 14 -41 24 -21 10 17 7 27 -12 56
-39 57 -40 72 -9 109 57 66 56 64 39 97 -9 16 -16 38 -16 48 1 10 7 2 14 -17
7 -19 16 -42 20 -51 5 -11 -6 -32 -33 -63 -23 -26 -41 -50 -41 -54 0 -4 10
-23 23 -42 13 -19 26 -42 29 -50 8 -23 -8 -57 -31 -63 -17 -4 -20 -1 -15 17 3
12 0 33 -5 46 -11 25 -11 25 -9 -5 2 -61 2 -62 -63 -68 -131 -12 -163 15 -114
98 14 24 24 54 24 67 -1 20 -2 21 -6 3 -3 -11 -17 -39 -30 -63 -18 -30 -24
-51 -20 -71 5 -25 3 -28 -13 -24 -11 3 -20 8 -20 12 0 3 -12 7 -27 8 -15 0
-29 6 -31 12 -2 5 -9 8 -16 5 -7 -3 -40 20 -73 49 -44 39 -58 58 -52 68 6 10
9 10 9 2 0 -12 60 -72 99 -100 18 -12 22 -11 36 17 9 17 13 35 10 41 -4 5 -1
8 7 7 7 -2 14 8 16 21 3 17 -7 34 -33 61 -33 34 -37 42 -31 73 4 19 14 41 22
48 12 9 14 22 8 48 -10 54 -7 76 22 132 18 37 24 59 19 78 -7 24 -8 25 -15 6
-8 -19 -9 -19 -9 3 -1 33 26 27 34 -9z"/>
<path d="M3771 2958 c-6 -17 -9 -33 -6 -36 2 -2 -2 -17 -11 -33 -15 -30 -28
-40 -18 -14 11 27 -5 16 -21 -15 -22 -42 -19 -55 20 -99 41 -45 43 -62 11
-118 -14 -24 -21 -45 -16 -48 8 -5 60 96 60 116 0 4 -18 29 -40 54 -44 50 -45
53 -29 75 8 12 9 11 4 -6 -4 -16 5 -34 35 -69 46 -53 47 -61 21 -107 -26 -45
-35 -78 -22 -78 6 0 11 7 11 15 0 9 11 37 24 62 22 41 24 49 11 72 -7 14 -25
37 -39 50 -31 29 -32 49 -6 94 12 19 18 43 14 53 -5 17 -5 17 6 2 8 -14 6 -26
-10 -57 -26 -52 -26 -54 13 -98 47 -53 49 -65 20 -121 -17 -34 -23 -57 -18
-69 7 -15 9 -13 15 14 4 17 16 47 27 65 37 62 36 79 -4 120 -32 33 -35 40 -26
61 8 17 8 36 1 63 -5 22 -10 49 -10 62 0 30 -4 28 -17 -10z"/>
<path d="M5340 2616 c0 -8 7 -41 15 -73 19 -73 19 -150 -1 -254 -35 -187 -111
-376 -203 -506 -50 -70 -84 -95 -111 -78 -6 4 -10 19 -9 33 4 34 -7 52 -31 52
-21 0 -40 -28 -40 -59 0 -25 44 -77 81 -97 43 -22 283 -104 305 -104 34 0 120
67 169 132 94 125 141 246 185 471 16 82 17 301 1 365 -16 62 -16 62 -171 97
-165 37 -190 39 -190 21z"/>
<path d="M3385 2461 c3 -31 17 -170 30 -309 13 -142 29 -260 35 -268 24 -28
126 -67 239 -90 130 -27 159 -30 89 -8 -26 8 -54 24 -63 36 -21 31 -19 74 5
98 l20 20 -24 9 c-87 34 -86 165 2 216 l29 18 -29 26 c-33 29 -40 79 -19 119
13 24 82 73 126 91 17 6 20 9 8 7 -63 -11 -296 28 -393 67 l-61 25 6 -57z"/>
</g>
</svg>
